<?xml version="1.0" encoding="UTF-8"?>
<svg width="220px" height="117px" viewBox="0 0 220 117" version="1.1" xmlns="http://www.w3.org/2000/svg" xmlns:xlink="http://www.w3.org/1999/xlink">
    <!-- Generator: Sketch 58 (84663) - https://sketch.com -->
    <title>undraw_programmer_imem</title>
    <desc>Created with Sketch.</desc>
    <g id="Sales-Page" stroke="none" stroke-width="1" fill="none" fill-rule="evenodd">
        <g id="Desktop-HD" transform="translate(-625.000000, -877.000000)" fill-rule="nonzero">
            <g id="undraw_programmer_imem" transform="translate(625.000000, 877.000000)">
                <path d="M203.138341,91.7427481 C202.893258,92.2661847 202.648878,92.7826421 202.405203,93.2921204 C202.024901,94.0835565 201.649528,94.8596384 201.279086,95.6203663 C201.114288,95.9574594 200.94949,96.2882713 200.788918,96.6190833 C198.971918,100.297796 197.275347,103.551477 195.834424,106.227285 C193.171259,111.165701 188.002719,114.272104 182.352705,114.330083 L150.312232,114.675551 L149.974186,114.675551 L147.227557,114.704864 L144.878134,114.729989 L137.673517,114.807457 L137.381952,114.807457 L133.714147,114.847239 L133.602169,114.847239 L110.995307,115.090113 L90.8160421,115.299488 L88.4687315,115.324613 L73.8904747,115.481644 L73.8735724,115.481644 L64.4188334,115.582144 L64.3174194,115.582144 L34.4214291,115.902487 L25.4779854,115.998799 C24.7164655,116.007416 23.9551308,115.969657 23.1982841,115.885737 L23.1982841,115.885737 C22.9405237,115.856424 22.6827632,115.822924 22.4271155,115.783143 C18.2560411,115.145083 14.4314965,113.110016 11.5906113,110.016966 C7.74321915,105.823192 4.94377129,100.930107 3.06338745,95.6203663 C2.79154169,94.8540551 2.53800679,94.0779731 2.30278274,93.2921204 C-4.20672583,71.4857526 3.72891656,43.3520834 18.0113826,24.5251167 C18.6100067,23.737868 19.2184905,22.9701611 19.8368339,22.2219957 L19.8516234,22.2052457 C24.2441156,16.8620052 29.169031,12.398138 34.4150907,9.22401864 C43.7113704,3.58974733 54.0112257,2.00268763 64.1420578,6.73246053 C72.7136502,10.7357035 80.7169019,12.6179814 88.4750699,13.1288555 C89.2589153,13.1791054 90.0427607,13.2167928 90.8223805,13.2398241 C108.618418,13.7946668 125.296789,7.44014679 144.88236,3.33849777 C145.661979,3.17518556 146.443712,3.01396709 147.231783,2.86112361 C161.203669,0.105753471 176.703102,-1.34730647 195.13509,1.7074694 C197.050035,2.01748255 198.939646,2.46533375 200.788918,3.04746703 C201.601638,3.30709157 202.384779,3.58625775 203.138341,3.88496556 C211.936002,7.4317718 216.73415,13.9851977 218.772994,22.1968708 C218.965962,22.9589944 219.132872,23.7343785 219.273725,24.5230229 C222.88871,44.2754256 212.301515,72.2939387 203.138341,91.7427481 Z" id="Path" fill="#F2F2F2"></path>
                <path d="M104.714742,94.1020119 C104.629565,94.8909031 104.497627,95.6740623 104.31962,96.447371 L124.117965,96.447371 L124.117965,94.1020119 L104.714742,94.1020119 Z M88.1809056,107.349494 L90.5283934,107.330512 L90.5283934,101.536716 C89.7233593,101.50086 88.9394547,101.465005 88.1809056,101.427041 L88.1809056,107.349494 Z M38.9660662,94.1020119 L38.9660662,96.447371 L80.9081305,96.447371 L80.9081305,94.1020119 L38.9660662,94.1020119 Z M218.499231,22.4926331 L202.863398,22.4926331 L202.863398,4.03980395 C202.109779,3.73468231 201.326579,3.4534642 200.513797,3.19614963 L200.513797,22.4926331 L146.942055,22.4926331 L146.942055,3 C146.153924,3.15396691 145.372132,3.31637037 144.592454,3.48088296 L144.592454,22.4926331 L90.5283934,22.4926331 L90.5283934,13.4549862 C89.7487147,13.4317857 88.9648101,13.3938212 88.1809056,13.343202 L88.1809056,22.4926331 L34.1168452,22.4926331 L34.1168452,9.41599112 C28.8703895,12.613441 23.9451022,17.1101185 19.5522785,22.4926331 L19.5374878,22.4926331 L19.5374878,22.5095062 C18.9176891,23.2687951 18.3091594,24.0421449 17.7118987,24.8295556 L19.5374878,24.8295556 L19.5374878,94.1020119 L2,94.1020119 C2.23383317,94.8936409 2.48738721,95.6754273 2.76066212,96.447371 L19.5353749,96.447371 L19.5353749,116.1931 C20.3793753,116.450767 21.2408701,116.647425 22.1131743,116.781549 C22.3688413,116.821623 22.6266212,116.855369 22.8844012,116.884897 L22.8844012,116.884897 C23.6413049,116.969434 24.4026972,117.00747 25.1642746,116.99879 L34.1083934,116.90177 L34.1083934,96.4431527 L88.1809056,96.4431527 L88.1809056,116.313321 L90.5283934,116.288011 L90.5283934,96.447371 L144.592454,96.447371 L144.592454,115.716436 L146.942055,115.691126 L146.942055,96.447371 L200.503233,96.447371 L200.503233,97.4534287 C200.663817,97.1201853 200.828627,96.7869418 200.993437,96.447371 C201.363908,95.6810516 201.739309,94.8992653 202.11964,94.1020119 C202.363333,93.590195 202.607731,93.0699415 202.852833,92.5412515 L202.852833,24.8379921 L219,24.8379921 C218.857728,24.0379266 218.690805,23.2561403 218.499231,22.4926331 Z M34.1168452,94.1020119 L34.1168452,24.8295556 L88.1809056,24.8295556 L88.1809056,94.1020119 L34.1168452,94.1020119 Z M90.5326193,94.1020119 L90.5326193,24.8295556 L144.592454,24.8295556 L144.592454,94.1020119 L90.5326193,94.1020119 Z M200.507459,94.1020119 L146.942055,94.1020119 L146.942055,24.8295556 L200.503233,24.8295556 L200.507459,94.1020119 Z" id="Shape" fill="#000000" opacity="0.1"></path>
                <polygon id="Path" fill="#65617D" points="182 111.876289 182 114.556701 149.890092 114.845361 149.547688 114.851546 137.343725 114.960825 137.052048 114.964948 133.342668 114.995876 133.232761 114.995876 110.6214 115.2 73.5043593 115.536082 73.4726552 115.536082 64.0354029 115.62268 63.9339498 115.624742 22 116 22 112.907216 31.8599736 107.134021 51.6433289 106.973196 52.0660502 106.971134 52.2055482 106.969072 52.6282695 106.962887 62.1268164 106.886598 62.5516513 106.884536 62.6869221 106.882474 63.1096433 106.880412 66.1553501 106.85567 66.2356671 106.853608 73.7495376 106.791753 73.8108322 106.791753 132.442272 106.309278 133.877411 106.298969 134.021136 106.298969 135.115984 106.28866 143.073712 106.224742 143.496433 106.218557 143.88745 106.214433 144.090357 106.214433 146.56539 106.195876 147.055746 106.189691 147.713078 106.185567 149.773844 106.16701 153.043593 106.140206 153.466314 106.136082 154.201849 106.131959 154.339234 106.131959 170.129987 106"></polygon>
                <polygon id="Path" fill="#000000" opacity="0.2" points="182 111.876289 182 114.556701 149.890092 114.845361 149.547688 114.851546 137.343725 114.960825 137.052048 114.964948 133.342668 114.995876 133.232761 114.995876 110.6214 115.2 73.5043593 115.536082 73.4726552 115.536082 64.0354029 115.62268 63.9339498 115.624742 22 116 22 112.907216 31.8599736 107.134021 51.6433289 106.973196 52.0660502 106.971134 52.2055482 106.969072 52.6282695 106.962887 62.1268164 106.886598 62.5516513 106.884536 62.6869221 106.882474 63.1096433 106.880412 66.1553501 106.85567 66.2356671 106.853608 73.7495376 106.791753 73.8108322 106.791753 132.442272 106.309278 133.877411 106.298969 134.021136 106.298969 135.115984 106.28866 143.073712 106.224742 143.496433 106.218557 143.88745 106.214433 144.090357 106.214433 146.56539 106.195876 147.055746 106.189691 147.713078 106.185567 149.773844 106.16701 153.043593 106.140206 153.466314 106.136082 154.201849 106.131959 154.339234 106.131959 170.129987 106"></polygon>
                <path d="M63,101 L63,106.464475 C63.0002334,106.992764 62.7113927,107.473964 62.2580029,107.70062 C62.0926031,107.785028 61.9117866,107.830702 61.7280051,107.834498 L54.3292353,107.999615 C54.131639,108.004603 53.9356569,107.961057 53.7568377,107.87243 C53.2952125,107.649735 52.9994568,107.16406 53,106.629592 L53,101 L63,101 Z" id="Path" fill="#3F3D56"></path>
                <path d="M63,101 L63,106.464475 C63.0002334,106.992764 62.7113927,107.473964 62.2580029,107.70062 C62.0926031,107.785028 61.9117866,107.830702 61.7280051,107.834498 L54.3292353,107.999615 C54.131639,108.004603 53.9356569,107.961057 53.7568377,107.87243 C53.2952125,107.649735 52.9994568,107.16406 53,106.629592 L53,101 L63,101 Z" id="Path" fill="#000000" opacity="0.1"></path>
                <path d="M63,101 L63,106.464475 C63.0002334,106.992764 62.7113927,107.473964 62.2580029,107.70062 C62.0926031,107.785028 61.9117866,107.830702 61.7280051,107.834498 L54.3292353,107.999615 C54.131639,108.004603 53.9356569,107.961057 53.7568377,107.87243 C53.2952125,107.649735 52.9994568,107.16406 53,106.629592 L53,101 L63,101 Z" id="Path" fill="#3F3D56"></path>
                <rect id="Rectangle" fill="#3F3D56" x="144" y="101" width="10" height="7"></rect>
                <rect id="Rectangle" fill="#000000" opacity="0.1" x="144" y="101" width="10" height="7"></rect>
                <rect id="Rectangle" fill="#3F3D56" x="143" y="101" width="10" height="7"></rect>
                <polygon id="Path" fill="#000000" opacity="0.1" points="63 101 63 102.595506 53 103 53 101"></polygon>
                <path d="M81,65.8283664 L81,101.102097 C80.9945764,101.549302 80.6295136,101.913723 80.1701754,101.930464 L38.8621554,103 L38.8513784,103 C38.3836035,102.994346 38.0058115,102.626765 38,102.171634 L38,65.8283664 C38.0058115,65.373235 38.3836035,65.0056545 38.8513784,65 L80.1486216,65 C80.6163965,65.0056545 80.9941885,65.373235 81,65.8283664 Z" id="Path" fill="#65617D"></path>
                <path d="M40,65 L40,103 L39.9875,103 C39.4449354,102.994346 39.0067407,102.626765 39,102.171634 L39,65.8283664 C39.0067407,65.373235 39.4449354,65.0056545 39.9875,65 L40,65 Z" id="Path" fill="#000000" opacity="0.1"></path>
                <polygon id="Path" fill="#38D39F" points="41 67 79 67 79 98.1592775 41 99"></polygon>
                <polygon id="Path" fill="#000000" opacity="0.1" points="153 101 153 103 143 102.606864 143 101"></polygon>
                <path d="M167,65.8283664 L167,102.171634 C166.994101,102.630819 166.609901,103 166.138017,103 L166.138017,103 L124.829658,101.930464 C124.370412,101.913723 124.005423,101.549302 124,101.102097 L124,65.8283664 C124.00581,65.373235 124.383527,65.0056545 124.851208,65 L166.140172,65 C166.611216,65.0011102 166.994113,65.369997 167,65.8283664 Z" id="Path" fill="#65617D"></path>
                <path d="M167,65.8283664 L167,102.171634 C166.993157,102.630819 166.54744,103 166,103 L166,103 L166,65 L166,65 C166.54744,65 166.993157,65.3691813 167,65.8283664 Z" id="Path" fill="#000000" opacity="0.1"></path>
                <polygon id="Path" fill="#38D39F" points="164 67 126 67 126 98.1592775 164 99"></polygon>
                <path d="M124,65.8283664 L124,101.102097 C123.994576,101.549302 123.629514,101.913723 123.170175,101.930464 L81.8621554,103 L81.8621554,103 C81.3901772,103 81.0058997,102.630819 81,102.171634 L81,65.8283664 C81.0058115,65.373235 81.3836035,65.0056545 81.8513784,65 L123.148622,65 C123.616397,65.0056545 123.994188,65.373235 124,65.8283664 Z" id="Path" fill="#65617D"></path>
                <polygon id="Path" fill="#38D39F" points="84 67 122 67 122 98.1592775 84 99"></polygon>
                <polygon id="Path" fill="#000000" opacity="0.1" points="182 112 182 115.25 149.890092 115.6 149.547688 115.6075 137.343725 115.74 137.052048 115.745 133.342668 115.7825 133.232761 115.7825 110.6214 116.03 73.5043593 116.4375 73.4726552 116.4375 64.0354029 116.5425 63.9339498 116.545 22 117 22 113.25 64.802642 112.9175 64.9040951 112.9175 73.5677675 112.8475 73.607926 112.8475 133.439894 112.38 133.501189 112.38 133.53712 112.3775 133.63646 112.3775 134.648877 112.37 134.957464 112.37 150.701717 112.245 151.631704 112.24 151.838838 112.2375"></polygon>
                <circle id="Oval" fill="#FBBEBE" cx="103" cy="63" r="11"></circle>
                <path d="M114,79.8442125 C114,79.8442125 93.142629,82.4447344 95.1340363,79.8442125 C95.8551353,78.9036904 96.054276,76.1167978 96.0144479,72.941994 C96.0018706,71.9776339 95.9683311,70.9786 95.9201181,69.9839004 C95.6895341,65.216277 95.1340363,60.5570086 95.1340363,60.5570086 C95.1340363,60.5570086 113.371135,51.6718923 111.274916,58.7149723 C110.436429,61.5603767 110.711034,65.5565119 111.348284,69.3077647 C111.534847,70.402151 111.750758,71.4748663 111.977149,72.493404 C112.529658,74.9777537 113.204826,77.4312339 114,79.8442125 L114,79.8442125 Z" id="Path" fill="#FBBEBE"></path>
                <path d="M107.068689,79.446475 C109.500638,79.0073822 112.076264,78.209594 114.364535,79.1290089 C114.966712,79.3702007 115.520292,79.7227118 116.137259,79.9247357 C116.754226,80.1267596 117.430354,80.1762348 118.072676,80.3184761 C120.329254,80.8173515 122.159026,82.4933253 123.333798,84.441413 C124.508571,86.3895006 125.117087,88.5932103 125.712925,90.7742439 L127.170826,96.0990168 C128.438566,100.727013 129.706307,105.394178 130,110.178846 C112.350227,111.164502 94.6601441,111.262896 77,110.473636 C78.149418,108.342078 79.3241907,106.080647 79.2269973,103.67079 C79.1298039,101.260934 77.7078217,98.8840607 78.2212566,96.509249 C78.5487562,94.9961312 79.6094323,93.7489428 80.2580928,92.3409599 C82.1068809,88.3169736 80.6679955,82.9014961 83.9176367,79.838154 C85.379764,78.4610931 87.5095679,77.9395416 89.5442912,78.0055086 C92.1389332,78.0900288 94.7948493,78.8795712 97.3620236,79.2650658 C100.649697,79.7515723 103.755661,80.0401779 107.068689,79.446475 Z" id="Path" fill="#FF6584"></path>
                <path d="M134.9943,102.330302 L134.973425,102.616631 L134.973425,102.636654 L134.937938,103.097183 L134.660303,106.803439 L134.324218,111.268567 L134.228193,112.526011 L134.019445,115.217101 L134.019445,115.25114 L111.683362,115.45137 L75.0292248,115.831807 L75.0292248,116 L75,116 L75,115.831807 L75,115.775742 L75.0939368,112.900441 L75.2734604,107.281988 L75.4279343,102.518518 L75.4425467,102.043973 C75.4610039,101.465113 75.7268803,100.919021 76.1777721,100.533868 C76.6286639,100.148715 77.2248696,99.9584157 77.8264538,100.007635 C78.8117464,100.087727 80.0913743,100.185839 81.6215003,100.289959 L82.2477457,100.33401 C91.0840669,100.922686 107.414457,101.683559 123.893058,100.734469 C124.239581,100.716449 124.588191,100.696426 124.936801,100.672398 C127.491881,100.518221 130.044875,100.319993 132.572818,100.071708 C133.219735,100.006694 133.863451,100.219842 134.330787,100.653809 C134.798123,101.087776 135.041082,101.697992 134.9943,102.320291 L134.9943,102.330302 Z" id="Path" fill="#000000" opacity="0.1"></path>
                <path d="M75,115.992097 L75,115.826128 L111.675669,115.448746 L134.021055,115.251163 L134.083705,115.251163 L134.083705,115.217575 L134.292541,112.56207 L134.38234,111.376577 L134.72483,106.909243 L134.994228,103.372522 L134.994228,103.285586 C135.006679,103.122619 134.99897,102.958833 134.971256,102.797558 C134.972424,102.791018 134.972424,102.784339 134.971256,102.7778 C134.913887,102.444345 134.770421,102.12944 134.553585,101.861018 C134.086093,101.293841 133.342353,100.995046 132.586356,101.070689 C130.057359,101.315691 127.503303,101.511298 124.947157,101.663436 C124.598402,101.687146 124.249647,101.706904 123.902981,101.724687 C107.417516,102.651347 91.0803241,101.900535 82.2403226,101.329522 L81.6138164,101.286054 C80.0830531,101.183311 78.8028922,101.088472 77.8171893,101.007463 C76.6940714,100.917798 75.6808302,101.645308 75.4698796,102.692839 C75.4487936,102.799808 75.4362282,102.908124 75.4322892,103.016874 L75.2902812,107.395295 L75.0960643,112.941428 L75.0041767,115.778708 L75.0041767,115.834031 L75.0041767,116 L75,115.992097 Z" id="Path" fill="#3F3D56"></path>
                <path d="M134.996641,103.472376 L134.740014,106.650934 L134.358202,111.388706 L134.262227,112.574705 L134.053587,115.23076 L134.041068,115.363459 L134.041068,115.398707 L134.041068,115.398707 L134.009772,115.705574 L134.032723,115.398707 L133.972217,115.398707 L111.647691,115.60605 L75,116 L75,115.941944 L75.1022338,112.964508 L75.3108742,107.146482 L75.4444041,103.279548 C75.4577448,102.832597 75.6980852,102.422814 76.0828438,102.191001 C76.3191022,102.047104 76.5953439,101.981742 76.8715046,102.004392 C77.3096495,102.039641 77.8479418,102.081109 78.4759495,102.126724 C79.4962012,102.201368 80.754303,102.288451 82.2189588,102.379682 C84.9312843,102.549703 88.3342097,102.732164 92.2336993,102.881451 C103.083002,103.296135 117.72956,103.435055 131.641703,102.224175 C132.267625,102.170266 132.91441,102.110137 133.54659,102.050008 C133.796823,102.025208 134.04894,102.072726 134.272659,102.186854 C134.336028,102.218222 134.396129,102.255725 134.45209,102.298819 C134.633717,102.429605 134.777608,102.605489 134.869371,102.808881 C134.890656,102.849346 134.908118,102.891687 134.921531,102.93536 C134.984207,103.107145 135.009798,103.290116 134.996641,103.472376 Z" id="Path" fill="#000000" opacity="0.1"></path>
                <path d="M63,106 L63,106.671579 C63.0002334,107.170025 62.7113927,107.624043 62.2580029,107.837895 L53.7568377,108 C53.2952125,107.789885 52.9994568,107.331645 53,106.827368 L53,106.195789 L63,106 Z" id="Path" fill="#000000" opacity="0.1"></path>
                <polygon id="Path" fill="#3F3D56" points="63 108.793175 52 109 52 107.206825 63 107"></polygon>
                <polygon id="Path" fill="#000000" opacity="0.1" points="63 108.793175 52 109 52 107.206825 63 107"></polygon>
                <polygon id="Path" fill="#3F3D56" points="64 108.793175 53 109 53 107.206825 64 107"></polygon>
                <path d="M143,107 L143,107.671579 C142.999767,108.170025 143.288607,108.624043 143.741997,108.837895 L152.243162,109 C152.704787,108.789885 153.000543,108.331645 153,107.827368 L153,107.195789 L143,107 Z" id="Path" fill="#000000" opacity="0.1"></path>
                <polygon id="Path" fill="#000000" opacity="0.1" points="143 108.793175 154 109 154 107.206825 143 107"></polygon>
                <polygon id="Path" fill="#3F3D56" points="143 108.793175 154 109 154 107.206825 143 107"></polygon>
                <path d="M95.8334774,66.2069057 C95.8504882,67.6758999 95.1615504,69.0609516 94.5768039,70.4187221 C92.4477826,75.3646662 91.5256979,80.7350209 91.8848434,86.0970879 C92.040067,88.4055074 92.433442,90.713927 92.040067,93.0013609 C91.6466921,95.2887948 90.2475531,97.569933 88,98.2267833 C91.7274934,100.419782 96.7733246,100.18894 100.281804,97.6685655 C102.150866,96.325485 103.543626,94.4514681 104.906617,92.6089296 C104.744733,95.9187916 103.773709,99.1408385 102.076444,102 C108.280736,101.457847 113.961143,98.3447462 117.707251,93.4336649 C118.623708,92.2143997 119.42109,90.8755164 119.774064,89.3981278 C120.431107,86.6699957 119.514649,83.8348367 118.81508,81.1088031 C118.230481,78.8299427 117.792289,76.5169197 117.503121,74.1835445 C117.411688,73.436456 117.337266,72.6683818 117.524385,71.9380818 C117.73702,71.0839666 118.304756,70.3620608 118.723647,69.5834939 C119.914403,67.3716083 119.942046,64.6938416 119.331783,62.2637054 C118.72152,59.8335692 117.526511,57.5923036 116.342134,55.3783194 C115.393781,53.6029349 114.364627,51.7457065 112.629525,50.7027206 C111.545085,50.052166 110.290538,49.7814513 109.040244,49.5191309 L103.645691,48.3796111 C102.465566,48.1298821 101.25142,47.880153 100.058537,48.062728 C98.0448825,48.3733154 96.6266063,49.8087326 95.3805646,51.281924 C94.4045694,52.4277395 92.0188035,54.5787668 91.8508218,56.0792396 C91.6977245,57.4621927 92.9352609,59.7790065 93.1457696,61.237508 C93.4221953,63.1262149 93.6178195,62.4966459 94.6980059,63.6550528 C95.3805646,64.3727614 95.8207193,65.2016939 95.8334774,66.2069057 Z" id="Path" fill="#3F3D56"></path>
                <path d="M63.8956262,71 L43.1043738,71 C43.0467297,71 43,70.7761424 43,70.5 C43,70.2238576 43.0467297,70 43.1043738,70 L63.8956262,70 C63.9532703,70 64,70.2238576 64,70.5 C64,70.7761424 63.9532703,71 63.8956262,71 Z" id="Path" fill="#F2F2F2"></path>
                <path d="M63.8956262,73 L43.1043738,73 C43.0467297,73 43,72.7761424 43,72.5 C43,72.2238576 43.0467297,72 43.1043738,72 L63.8956262,72 C63.9532703,72 64,72.2238576 64,72.5 C64,72.7761424 63.9532703,73 63.8956262,73 Z" id="Path" fill="#F2F2F2"></path>
                <path d="M63.8956262,74 L43.1043738,74 C43.0467297,74 43,73.7761424 43,73.5 C43,73.2238576 43.0467297,73 43.1043738,73 L63.8956262,73 C63.9532703,73 64,73.2238576 64,73.5 C64,73.7761424 63.9532703,74 63.8956262,74 Z" id="Path" fill="#F2F2F2"></path>
            </g>
        </g>
    </g>
</svg>