<?xml version="1.0" encoding="UTF-8"?>
<svg width="177px" height="137px" viewBox="0 0 177 137" version="1.1" xmlns="http://www.w3.org/2000/svg" xmlns:xlink="http://www.w3.org/1999/xlink">
    <!-- Generator: Sketch 58 (84663) - https://sketch.com -->
    <title>undraw_professor_8lrt</title>
    <desc>Created with Sketch.</desc>
    <g id="Sales-Page" stroke="none" stroke-width="1" fill="none" fill-rule="evenodd">
        <g id="Desktop-HD" transform="translate(-1085.000000, -869.000000)">
            <g id="undraw_professor_8lrt" transform="translate(1067.000000, 857.000000)">
                <path d="M70.2030337,12 L42.1274355,27.2130311 C43.4345621,29.4641979 43.4142217,32.2484254 42.0743444,34.4802399 C40.734467,36.7120543 38.2871596,38.0381522 35.6865426,37.9415339 C33.0859255,37.8449156 30.7436848,36.3408762 29.572979,34.0157884 L20,39.2029978 L44.7969663,85 L95,57.7970075 L70.2030337,12 Z" id="Path" fill="#F2F2F2" fill-rule="nonzero"></path>
                <circle id="Oval" fill="#38D39F" fill-rule="nonzero" cx="35" cy="31" r="6"></circle>
                <path d="M141.047966,135 L171.220157,124.980958 C170.345071,122.502959 170.863245,119.736545 172.572663,117.760239 C174.28208,115.783934 176.912136,114.910591 179.437468,115.480695 C181.9628,116.050799 183.983642,117.974101 184.712142,120.500776 L195,117.084569 L178.952032,67 L125,84.9154243 L141.047966,135 Z" id="Path" fill="#F2F2F2" fill-rule="nonzero"></path>
                <circle id="Oval" fill="#38D39F" fill-rule="nonzero" cx="178" cy="122" r="6"></circle>
                <rect id="Rectangle" fill="#3F3D56" fill-rule="nonzero" x="39" y="39" width="140" height="63"></rect>
                <rect id="Rectangle" fill="#FFFFFF" fill-rule="nonzero" x="41" y="41" width="136" height="58"></rect>
                <rect id="Rectangle" fill="#3F3D56" fill-rule="nonzero" x="150" y="97" width="13" height="4"></rect>
                <rect id="Rectangle" fill="#38D39F" fill-rule="nonzero" x="140" y="100" width="10" height="1"></rect>
                <polyline id="Path" stroke="#3F3D56" stroke-width="2" points="52 62.6363636 103.964286 62.6363636 112.020714 66.6325455 124.857143 73 133.25 57 157 57"></polyline>
                <polyline id="Path" stroke="#3F3D56" stroke-width="2" points="73 63 76.7609789 72 86 72"></polyline>
                <polyline id="Path" stroke="#3F3D56" stroke-width="2" points="88 63 100.898459 56 110 56"></polyline>
                <circle id="Oval" fill="#38D39F" fill-rule="nonzero" cx="72.5" cy="63.5" r="1.5"></circle>
                <circle id="Oval" fill="#38D39F" fill-rule="nonzero" cx="87.5" cy="63.5" r="1.5"></circle>
                <polyline id="Path" stroke="#3F3D56" stroke-width="2" points="112 67 113.034483 83 122 83"></polyline>
                <polyline id="Path" stroke="#3F3D56" stroke-width="2" points="130 64 120 56 129.448819 56"></polyline>
                <polyline id="Path" stroke="#3F3D56" stroke-width="2" points="147 58 156.80494 66 166 66"></polyline>
                <circle id="Oval" fill="#38D39F" fill-rule="nonzero" cx="111.5" cy="67.5" r="1.5"></circle>
                <circle id="Oval" fill="#38D39F" fill-rule="nonzero" cx="146.5" cy="57.5" r="1.5"></circle>
                <circle id="Oval" fill="#38D39F" fill-rule="nonzero" cx="129.5" cy="63.5" r="1.5"></circle>
                <path d="M77,74 L86,74" id="Path" stroke="#3F3D56" stroke-width="2"></path>
                <g id="Group"></g>
                <g id="Group"></g>
                <g id="Group"></g>
                <g id="Group"></g>
                <g id="Group"></g>
                <g id="Group"></g>
                <circle id="Oval" stroke="#3F3D56" stroke-width="2" cx="163" cy="25" r="3"></circle>
                <ellipse id="Oval" fill="#F2F2F2" fill-rule="nonzero" cx="45" cy="144" rx="27" ry="5"></ellipse>
                <polygon id="Path" fill="#38D39F" fill-rule="nonzero" points="63.696235 100 59 102.389555 59.3039382 103 64 100.610445"></polygon>
                <path d="M63,95.210407 L62.8181417,96.4728522 C62.8181417,96.4728522 63.0909299,105.204771 61.0904812,102.469472 C59.0900325,99.7341729 60.453975,96.0520382 60.453975,96.0520382 L60.9995528,95 L63,95.210407 Z" id="Path" fill="#FBBEBE" fill-rule="nonzero"></path>
                <path d="M49.6820915,53 C49.6820915,53 49.2340839,57.5 49.0100792,57.7142859 C48.7860745,57.9285726 52.3701351,62 52.3701351,62 L55.5061844,59.2142932 C55.5061844,59.2142932 55.2821815,55.1428641 55.954192,54.2857206 C56.6262024,53.428577 49.6820915,53 49.6820915,53 Z" id="Path" fill="#FBBEBE" fill-rule="nonzero"></path>
                <path d="M49.6820915,53 C49.6820915,53 49.2340839,57.5 49.0100792,57.7142859 C48.7860745,57.9285726 52.3701351,62 52.3701351,62 L55.5061844,59.2142932 C55.5061844,59.2142932 55.2821815,55.1428641 55.954192,54.2857206 C56.6262024,53.428577 49.6820915,53 49.6820915,53 Z" id="Path" fill="#000000" fill-rule="nonzero" opacity="0.1"></path>
                <polygon id="Path" fill="#3F3D56" fill-rule="nonzero" points="41 136.681852 41 140.772592 39.7646548 141 38 140.318148 38.5293095 136"></polygon>
                <path d="M39.7340321,138.490196 C39.7340321,138.490196 39.0808392,136.807904 37.9921839,137.018191 C36.9035285,137.228478 36.6857964,138.490196 36.6857964,138.490196 C36.6857964,138.490196 35.8148731,141.64449 34.5084856,142.695922 C33.2020981,143.747354 31.8957124,146.481077 34.5084856,146.901649 C37.1212589,147.32222 39.2985696,146.27079 39.2985696,146.060504 C39.2985696,145.850219 39.9517642,144.5885 41.0404196,144.378212 C42.129075,144.167925 43,143.957641 43,143.116495 C43,142.275349 42.3468053,141.434205 42.3468053,141.434205 C42.3468053,141.434205 42.129075,137.445387 41.6936125,137.967791 C41.3924631,138.380511 41.1711637,138.842476 41.0404196,139.33134 L39.7340321,138.490196 Z" id="Path" fill="#2F2E41" fill-rule="nonzero"></path>
                <polygon id="Path" fill="#3F3D56" fill-rule="nonzero" points="51.7500385 135.222182 51 138.555454 52.8750192 139 53.8125289 137.888909 54 135"></polygon>
                <path d="M50.9030668,137.28819 C50.9030668,137.28819 51.748873,136.601732 52.1717769,136.601732 L52.8061319,136.601732 C52.8061319,136.601732 52.8061319,135 53.8633926,135 C54.9206533,135 54.7091988,136.144094 54.7091988,136.144094 C54.7091988,136.144094 57.0351695,140.034019 57.6695246,140.720473 C58.3038796,141.406927 61.6871093,143.466299 58.9382364,144.381575 C56.1893634,145.296851 54.2862948,145.29685 53.0175848,143.695117 C53.0175848,143.695117 51.748873,143.008661 50.9030668,143.008661 C50.0572607,143.008661 49,142.551023 49,141.864567 C49,141.178111 49.634355,139.805197 49.634355,139.805197 C49.634355,139.805197 50.057259,135.686458 50.2687101,136.144094 C50.4801612,136.60173 50.9030668,137.28819 50.9030668,137.28819 Z" id="Path" fill="#2F2E41" fill-rule="nonzero"></path>
                <path d="M41.702708,85 L41.702708,92.1601342 C41.702708,92.1601342 39.3662851,106.046457 39.3662851,110.602902 C39.3662851,115.159348 35.7554476,136.856727 37.4546666,137.290675 C39.1538856,137.724623 43.1895222,138.375544 43.4019235,137.724623 C43.6143248,137.073702 45.101139,116.461186 45.3135421,116.24422 C45.5259451,116.027254 49.986386,98.8863207 49.986386,98.8863207 L50.8359947,99.1032937 L51.2607972,118.630932 C51.2607972,118.630932 49.1367774,136.205812 50.1987873,136.205812 C51.2607972,136.205812 55.7212399,135.988837 55.7212399,134.686995 C55.7212399,133.385154 58.0576628,109.301066 58.0576628,109.301066 C58.0576628,109.301066 60.8188813,90.2073754 59.7568783,88.2546112 C58.6948754,86.301847 58.6948684,85.2169784 58.6948684,85.2169784 L41.702708,85 Z" id="Path" fill="#2F2E41" fill-rule="nonzero"></path>
                <circle id="Oval" fill="#FBBEBE" fill-rule="nonzero" cx="53.5" cy="52.5" r="4.5"></circle>
                <path d="M51.406778,60.0902841 C51.406778,60.0902841 48.7584729,57.8524912 48.5466075,57 C48.5466075,57 47.1694895,58.3852998 47.1694895,58.5984222 C47.1694895,58.8115446 41.2372867,59.4509152 39.7542378,61.1558994 C38.2711888,62.8608837 37,66.483978 37,66.483978 L40.6016975,73.3039168 C40.6016975,73.3039168 40.8135629,77.1401335 40.8135629,77.5663783 C40.8135629,77.992623 39.7542412,84.8125705 40.1779685,85.0256876 C40.6016958,85.2388047 44.838986,87.3700425 48.4406801,86.943796 C52.0423741,86.5175495 55.6440751,85.8781806 56.7033899,85.8781806 C57.7627046,85.8781806 58.6101696,86.3044271 58.6101696,85.8781806 C58.6101696,85.4519341 57.9745769,84.5994411 57.9745769,84.1731946 C57.9745769,83.7469481 57.7627115,82.6813327 57.7627115,82.0419639 C57.7627115,81.402595 57.3389825,80.3369796 57.3389825,79.4844866 C57.3389825,78.6319936 62,67.1233469 62,67.1233469 C62,67.1233469 61.7881346,63.5002508 58.3983025,61.7952683 C55.0084703,60.0902858 54.5847448,59.4509152 54.5847448,59.4509152 C54.5847448,59.4509152 54.5186951,58.1721757 54.3398554,58.1721757 C54.1610157,58.1721757 53.52543,60.0902841 51.830507,60.3034082 L51.406778,60.0902841 Z" id="Path" fill="#D0CDE1" fill-rule="nonzero"></path>
                <polygon id="Path" fill="#FBBEBE" fill-rule="nonzero" points="40 88.6842651 41.680063 91 46 90.1578675 42.8800236 87"></polygon>
                <path d="M61.6043339,66 L62.8600622,67.7246329 C62.8600622,67.7246329 65.3715172,80.2282257 64.9529411,84.7553891 C64.534365,89.2825525 64.1157889,92.7318184 64.1157889,92.7318184 C64.1157889,92.7318184 64.9529411,95.9655076 64.3250761,95.9655076 C63.697211,95.9655076 59.9300311,96.181086 59.9300311,95.5343489 C59.9300311,94.8876118 60.348609,90.791607 60.348609,90.791607 L59.3021661,81.3061232 L57,78.0724358 L61.6043339,66 Z" id="Path" fill="#D0CDE1" fill-rule="nonzero"></path>
                <path d="M50.3801953,49.7100578 C50.6343998,49.5937726 50.9282745,49.6881051 51.2005142,49.6385011 C51.5202042,49.5802519 51.806246,49.324619 52.129078,49.3568812 C52.2820653,49.3874963 52.4306855,49.4395762 52.5711572,49.511796 C52.7135909,49.584033 52.8771796,49.5903562 53.0240361,49.5293013 C53.0941818,49.4941493 53.1459638,49.4268164 53.1650574,49.3459292 C53.184151,49.2650419 53.1685321,49.1791755 53.1225214,49.1120833 C53.3956604,49.0861062 53.6538522,48.9661517 53.8590745,48.7698849 C53.8999716,48.7240563 53.9474324,48.685626 53.9996384,48.6560667 C54.122648,48.6214188 54.2534631,48.6434111 54.3608812,48.7167978 L54.8353627,48.9528588 C54.9422469,48.9936002 55.0362546,49.0661807 55.1065029,49.162198 C55.1629402,49.2571735 55.1739866,49.3848834 55.2539245,49.4576067 C55.3559177,49.5503943 55.5083843,49.5049879 55.641505,49.5140832 C55.8916729,49.5403546 56.0840293,49.7645479 56.0891126,50.0357742 C56.0872267,50.1860541 56.0365815,50.3704242 56.146709,50.4623998 C56.2105844,50.5157459 56.3012708,50.5072091 56.3761024,50.5399986 C56.5700467,50.6249806 56.5708025,50.916379 56.5421481,51.140163 C56.5134937,51.3639469 56.5276703,51.6591756 56.7270153,51.7280797 C56.8673767,51.7765962 57.0108222,51.6731684 57.1566489,51.6501006 C57.3766435,51.6152995 57.5802062,51.763814 57.7760467,51.8774466 C57.9718871,51.9910792 58.2320574,52.0677301 58.4018016,51.9127308 C58.5597539,51.7684985 58.5496198,51.5046301 58.5061846,51.2862967 C58.4438402,50.9732642 58.3414451,50.6711163 58.2019443,50.388543 C58.1503216,50.30539 58.1199025,50.2090283 58.113748,50.1091552 C58.1376937,49.9669465 58.2168561,49.8425845 58.3312592,49.767451 C58.5712157,49.5627062 58.8472442,49.35658 58.924925,49.037262 C58.9819445,48.8029077 58.917807,48.5557491 58.9227583,48.3135101 C58.9287853,48.018748 59.0373759,47.7252535 58.9864499,47.4355837 C58.8941414,46.9105272 58.3527241,46.6578372 58.0032291,46.2792579 C57.5229826,45.7590438 57.3670625,44.9269923 56.8002912,44.520679 C56.3468761,44.1956294 55.7538044,44.2344316 55.2374773,44.0484542 C54.6702771,43.8441539 54.2137047,43.3747894 53.6542097,43.1470889 C53.0358536,42.9009674 52.3479318,42.9660908 51.7787149,43.3246361 C51.6117823,43.4582317 51.4254536,43.5609812 51.227332,43.6286918 C51.0604745,43.6495542 50.8918369,43.6474431 50.7254726,43.6224091 C50.3947844,43.6039989 50.0652438,43.6773834 49.7683122,43.8355566 C49.654671,43.8845814 49.5600314,43.9741645 49.5001695,44.0893726 C49.3999991,44.3294916 49.5455246,44.7048708 49.3259488,44.8196828 C49.2235742,44.8732126 49.1027135,44.8219314 48.9889844,44.8246263 C48.767829,44.8298674 48.5976882,45.037568 48.4924576,45.2475741 C48.4104096,45.4695874 48.292622,45.6741861 48.1445387,45.8519141 C47.874207,46.1074478 47.3830673,46.149676 47.3124364,46.5299583 C47.3111615,46.6909621 47.3196331,46.8518838 47.3377973,47.0116954 C47.3173724,47.3487023 46.9832199,47.6048238 47.0006593,47.9420255 C47.0207761,48.330975 47.4786301,48.521005 47.601021,48.8874781 C47.6942146,49.1665261 47.5715752,49.4682432 47.4871898,49.7505244 C47.4028045,50.0328056 47.3773551,50.3946347 47.5952902,50.5753416 C47.6807444,50.6461985 47.7906132,50.6752478 47.8777593,50.7436577 C48.1032702,50.9206832 48.1004227,51.2779362 48.0753801,51.5776786 C48.0460688,51.7040182 48.0767666,51.8378215 48.1573127,51.9348012 C48.2326378,51.9840194 48.3239495,51.9958537 48.4079293,51.967282 C48.6815959,51.895658 48.9158009,51.7054368 49.0553465,51.4414503 C49.1279705,51.3118519 49.1425658,51.1976278 49.2744951,51.1288633 C49.3640156,51.0822022 49.4727236,51.12385 49.5638474,51.0632971 C49.9973635,50.775255 49.8481326,49.9534395 50.3801953,49.7100578 Z" id="Path" fill="#2F2E41" fill-rule="nonzero"></path>
                <path d="M37.5420766,66 L36.8871264,66.6544016 C36.8871264,66.6544016 32.9574322,78.4336046 34.2673237,81.0512073 C35.5772152,83.66881 38.1970287,90.2128113 39.070295,89.9946768 C39.9435614,89.7765423 43,87.813343 43,87.5952104 C43,87.3770777 39.2886094,81.2693417 39.2886094,81.2693417 C39.2886094,81.2693417 38.8519753,79.9605404 39.0702915,79.7424077 C39.2886076,79.5242751 39.2886094,79.7424077 39.0702915,79.3061406 C38.8519735,78.8698735 38.8519753,79.3061406 39.2886094,78.8698735 C39.7252435,78.4336064 39.7252435,78.4336064 39.7252435,78.2154737 C39.7252435,77.9973411 41.0351439,72.5440049 41.0351439,72.5440049 L37.5420766,66 Z" id="Path" fill="#D0CDE1" fill-rule="nonzero"></path>
                <polygon id="Path" fill="#2F2E41" fill-rule="nonzero" points="41 91.7499658 46.2801418 90 47 91.7499658 41.2401497 93"></polygon>
                <polygon id="Path" fill="#000000" fill-rule="nonzero" opacity="0.1" points="41 91.7499658 46.2801418 90 47 91.7499658 41.2401497 93"></polygon>
                <polygon id="Path" fill="#000000" fill-rule="nonzero" opacity="0.1" points="48 59 51.5788655 62 52 61.35708"></polygon>
                <polygon id="Path" fill="#000000" fill-rule="nonzero" opacity="0.1" points="55 59 52 60.3999343 52.2499658 61"></polygon>
            </g>
        </g>
    </g>
</svg>