<svg width="576" height="689" viewBox="0 0 576 689" fill="none" xmlns="http://www.w3.org/2000/svg">
<g opacity="0.565034">
<path fill-rule="evenodd" clip-rule="evenodd" d="M690.459 163.34C690.769 164.1 690.927 164.913 690.923 165.733C690.923 165.81 691 166.119 691 166.119V281.903C690.972 285.038 689.047 287.845 686.129 289.005L594.362 325.67V363.492L686.361 401.006C686.79 401.208 687.203 401.44 687.598 401.701C687.9 401.909 688.185 402.141 688.449 402.396C689.03 403.034 689.501 403.764 689.84 404.557V405.02C690.151 405.78 690.308 406.593 690.304 407.413V523.197C690.276 526.332 688.351 529.139 685.434 530.299L588.796 568.893C587.977 569.19 587.115 569.347 586.244 569.356C585.343 569.331 584.454 569.148 583.616 568.816L496.487 534.081L449.251 573.37V642.764C449.254 645.927 447.323 648.772 444.38 649.942L347.742 688.537C346.891 688.809 346.007 688.965 345.113 689C344.246 688.958 343.389 688.802 342.562 688.537L245.924 649.942C242.981 648.772 241.051 645.927 241.054 642.764V572.367L193.817 533.155L106.688 567.89C105.85 568.222 104.961 568.404 104.06 568.43C103.189 568.42 102.327 568.264 101.509 567.967L4.87063 529.372C1.95332 528.212 0.0284895 525.406 7.76744e-05 522.271V406.487C-0.00401419 405.667 0.153601 404.853 0.46394 404.094V403.631C0.803609 402.838 1.27399 402.107 1.85553 401.47C2.11955 401.215 2.40397 400.983 2.70594 400.775C3.07586 400.493 3.49547 400.284 3.94291 400.157L96.638 363.029V325.206L4.87063 288.541C1.95332 287.382 0.0284895 284.575 7.76744e-05 281.44V165.656C-0.00401419 164.836 0.153601 164.023 0.46394 163.263V162.8C0.803609 162.007 1.27399 161.276 1.85553 160.639C2.11955 160.384 2.40397 160.152 2.70594 159.944C3.07586 159.662 3.49547 159.453 3.94291 159.326L103.364 120.963C105.201 120.233 107.248 120.233 109.085 120.963L205.723 159.558C206.151 159.76 206.565 159.992 206.96 160.253C207.262 160.461 207.546 160.693 207.81 160.947C208.392 161.585 208.862 162.316 209.202 163.109V163.572C209.512 164.331 209.67 165.144 209.666 165.965V186.651L242.523 159.326V45.472C242.527 44.6775 242.684 43.8913 242.987 43.1563V42.616C243.334 41.8503 243.804 41.1463 244.378 40.5319L245.229 39.76C245.616 39.5086 246.031 39.3015 246.465 39.1425L343.103 0.5478C344.94 -0.1826 346.988 -0.1826 348.824 0.5478L445.462 39.1425L446.699 39.76L447.55 40.5319C448.124 41.1463 448.594 41.8503 448.941 42.616V43.1563C449.244 43.8913 449.401 44.6775 449.405 45.472V159.326L484.04 186.265V165.656C484.036 164.836 484.194 164.023 484.504 163.263V162.8C484.844 162.007 485.314 161.276 485.896 160.639C486.16 160.384 486.444 160.152 486.746 159.944C487.116 159.662 487.536 159.453 487.983 159.326L584.621 120.732C586.458 120.001 588.505 120.001 590.342 120.732L686.98 159.326C687.408 159.528 687.822 159.76 688.217 160.021C688.519 160.229 688.803 160.461 689.067 160.716C689.649 161.354 690.119 162.084 690.459 162.877V163.34ZM578.823 209.885L497.647 177.466V276.654L578.823 309.074V209.885ZM388.407 128.451L425.439 159.326L352.767 188.427V89.3156L433.943 56.8961V146.359L398.303 116.718C395.029 114.545 390.643 115.172 388.111 118.175C385.578 121.177 385.706 125.599 388.407 128.451ZM420.878 45.472L345.036 15.2138L269.195 45.472L345.036 75.7303L420.878 45.472ZM256.129 56.8961L337.305 89.3156V188.427L264.633 159.326L301.665 128.451C304.953 125.722 305.403 120.849 302.67 117.567C299.937 114.284 295.057 113.835 291.769 116.563L256.129 146.359V56.8961ZM179.283 166.505L103.441 136.17L27.5999 166.119L103.441 196.377L179.283 166.505ZM192.348 177.852V276.654L111.172 309.074V209.885L192.348 177.852ZM14.5344 177.466V276.654L95.7103 309.074V209.885L14.5344 177.466ZM95.7103 550.291L14.5344 517.871V418.683L95.7103 451.102V550.291ZM27.5999 407.336L103.441 437.594L179.283 407.336L111.172 380.088V407.336C111.172 411.599 107.711 415.055 103.441 415.055C99.1716 415.055 95.7103 411.599 95.7103 407.336V380.088L27.5999 407.336ZM192.348 513.008L156.708 483.522C153.42 480.793 148.54 481.243 145.807 484.525C143.075 487.808 143.525 492.681 146.812 495.409L179.979 522.966L111.172 550.445V451.102L192.348 418.683V513.008ZM256.129 638.441L337.305 670.86V571.749L256.129 539.33V638.441ZM345.036 558.164L269.195 527.906L345.036 497.647L420.878 527.906L345.036 558.164ZM352.767 670.86L433.943 638.441V539.33L352.767 571.749V670.86ZM487.133 400.157C486.685 400.284 486.266 400.493 485.896 400.775C485.594 400.983 485.309 401.215 485.045 401.469C484.464 402.107 483.993 402.838 483.654 403.631V404.094C483.343 404.853 483.186 405.667 483.19 406.487V522.271C483.186 523.091 483.343 523.904 483.654 524.664L449.405 552.992V527.906C449.401 527.111 449.244 526.325 448.941 525.59V525.05C448.594 524.284 448.124 523.58 447.55 522.966L446.699 522.194L445.462 521.576L348.824 482.982C346.988 482.251 344.94 482.251 343.103 482.982L246.465 521.576C246.031 521.735 245.616 521.942 245.229 522.194L244.378 522.966C243.804 523.58 243.334 524.284 242.987 525.05V525.59C242.684 526.325 242.527 527.111 242.523 527.906V552.992L209.202 525.281C209.512 524.522 209.67 523.709 209.666 522.888V407.104C209.67 406.284 209.512 405.471 209.202 404.711V404.248C208.862 403.455 208.392 402.725 207.81 402.087C207.546 401.833 207.262 401.6 206.96 401.392C206.565 401.132 206.151 400.9 205.723 400.698L111.172 363.492V325.67L202.94 289.005C205.857 287.845 207.782 285.038 207.81 281.903V206.643L251.104 170.673L342.176 207.029C343.002 207.295 343.86 207.451 344.727 207.493C345.62 207.457 346.504 207.302 347.355 207.029L438.427 170.673L481.721 206.721V281.903C481.749 285.038 483.674 287.845 486.591 289.005L578.359 325.67V363.492L487.133 400.157ZM510.094 522.811L578.9 550.291V451.102L497.724 418.683V513.163L533.364 483.522C535.406 481.366 538.505 480.57 541.336 481.474C544.167 482.377 546.228 484.821 546.638 487.76C547.048 490.699 545.735 493.612 543.26 495.255L510.094 522.811ZM675.538 517.871L594.362 550.291V451.102L675.538 418.683V517.871ZM586.631 437.594L662.472 407.336L594.362 380.088V407.336C594.362 411.599 590.901 415.055 586.631 415.055C582.361 415.055 578.9 411.599 578.9 407.336V380.088L510.79 407.336L586.631 437.594ZM586.631 196.377L510.79 166.119L586.631 136.17L662.472 166.505L586.631 196.377ZM594.362 309.074L675.538 276.654V177.466L594.362 209.885V309.074Z" fill="#F3F3F3"/>
</g>
<path d="M513.386 418.311C512.767 419.642 512.149 420.956 511.533 422.252C510.572 424.264 509.623 426.238 508.687 428.172C508.271 429.03 507.854 429.871 507.448 430.712C502.856 440.068 498.569 448.342 494.927 455.147C488.196 467.706 475.134 475.606 460.855 475.753L379.88 476.632H379.026L372.084 476.706L366.147 476.77L347.939 476.967H347.202L337.932 477.068H337.649L280.515 477.686L229.517 478.219L223.585 478.282L186.741 478.682H186.699L162.804 478.937H162.548L86.9923 479.752L64.3898 479.997C62.4652 480.019 60.5411 479.923 58.6284 479.709C57.977 479.635 57.3255 479.55 56.6794 479.449C46.138 477.826 36.4723 472.65 29.2926 464.785C19.5692 454.119 12.4943 441.676 7.74202 428.172C7.05499 426.224 6.41424 424.25 5.81976 422.252C-10.6315 366.796 9.42399 295.249 45.5197 247.37C47.0326 245.368 48.5704 243.415 50.1331 241.513L50.1705 241.47C61.2715 227.882 73.7181 216.53 86.9763 208.458C110.471 194.129 136.501 190.093 162.104 202.121C183.767 212.302 203.994 217.089 223.601 218.388C225.582 218.516 227.563 218.612 229.533 218.67C274.508 220.081 316.659 203.921 366.157 193.49C368.128 193.075 370.103 192.665 372.095 192.276C407.406 185.269 446.577 181.574 493.16 189.342C497.999 190.131 502.775 191.27 507.448 192.75C509.502 193.41 511.482 194.12 513.386 194.88C535.62 203.9 547.746 220.566 552.899 241.449C553.387 243.387 553.809 245.359 554.164 247.365C563.301 297.597 536.544 368.851 513.386 418.311Z" fill="#F2F2F2"/>
<path opacity="0.1" fill-rule="evenodd" clip-rule="evenodd" d="M551.735 241.416H512.25V194.636C510.346 193.862 508.368 193.15 506.316 192.497V241.416H371.029V192C369.038 192.39 367.064 192.802 365.095 193.219V241.416H228.565V218.504C226.596 218.445 224.616 218.349 222.637 218.221V241.416H86.1061V208.265C72.857 216.371 60.419 227.77 49.3256 241.416H49.2882V241.458C47.723 243.383 46.1863 245.344 44.678 247.34H49.2882V422.952H5C5.59051 424.958 6.23082 426.94 6.92093 428.897H49.2829V478.954C51.4143 479.608 53.5898 480.106 55.7927 480.446C56.4384 480.548 57.0893 480.633 57.7403 480.708C59.6518 480.922 61.5746 481.019 63.4978 480.997L86.0848 480.751V428.887H98.3521V428.897H204.27V428.887H222.637V441.521C224.552 441.617 226.532 441.708 228.565 441.799V428.897L263.392 428.897C263.842 426.937 264.175 424.952 264.39 422.952H228.575V247.34H365.095V422.952H313.39V428.897L365.095 428.897V477.746L371.029 477.682V428.897H506.289V431.448C506.523 430.96 506.761 430.472 507 429.981L507.016 429.949C507.104 429.768 507.193 429.586 507.281 429.404C507.363 429.236 507.445 429.067 507.527 428.897C508.463 426.955 509.411 424.973 510.371 422.952C510.987 421.654 511.604 420.335 512.223 418.995V247.361H553C552.641 245.333 552.219 243.351 551.735 241.416ZM204.27 428.887H98.3521V422.952H86.1061V247.34H222.637V422.952H204.27V428.887ZM222.637 479.259V456.535L228.565 456.487V479.195L222.637 479.259ZM371.029 422.952H506.3L506.289 247.34H371.029V422.952Z" fill="black"/>
<path d="M460 469.278V476.247L378.922 476.998L378.058 477.014L347.243 477.298L346.506 477.309L337.14 477.389H336.863L279.769 477.92L186.049 478.794H185.968L162.139 479.019L161.883 479.024L56 480V471.959L80.8964 456.948L130.849 456.53L131.917 456.525L132.269 456.52L133.336 456.504L157.32 456.305L158.393 456.3L158.734 456.294L159.802 456.289L167.492 456.225L167.695 456.219L186.668 456.059H186.822L334.867 454.804L338.49 454.777H338.853L341.618 454.751L361.711 454.584L362.779 454.568L363.766 454.558H364.278L370.528 454.509L371.766 454.493L373.426 454.482L378.629 454.434L386.885 454.365L387.952 454.354L389.81 454.343H390.157L430.028 454L460 469.278Z" fill="#65617D"/>
<path opacity="0.2" d="M460 469.278V476.247L378.922 476.998L378.058 477.014L347.243 477.298L346.506 477.309L337.14 477.389H336.863L279.769 477.92L186.049 478.794H185.968L162.139 479.019L161.883 479.024L56 480V471.959L80.8964 456.948L130.849 456.53L131.917 456.525L132.269 456.52L133.336 456.504L157.32 456.305L158.393 456.3L158.734 456.294L159.802 456.289L167.492 456.225L167.695 456.219L186.668 456.059H186.822L334.867 454.804L338.49 454.777H338.853L341.618 454.751L361.711 454.584L362.779 454.568L363.766 454.558H364.278L370.528 454.509L371.766 454.493L373.426 454.482L378.629 454.434L386.885 454.365L387.952 454.354L389.81 454.343H390.157L430.028 454L460 469.278Z" fill="black"/>
<path d="M158 443V456.271C158.001 457.554 157.278 458.722 156.145 459.273C155.732 459.478 155.279 459.589 154.82 459.598L136.323 459.999C135.829 460.011 135.339 459.905 134.892 459.69C133.738 459.149 132.999 457.97 133 456.672V443H158Z" fill="#3F3D56"/>
<path opacity="0.1" d="M158 443V456.271C158.001 457.554 157.278 458.722 156.145 459.273C155.732 459.478 155.279 459.589 154.82 459.598L136.323 459.999C135.829 460.011 135.339 459.905 134.892 459.69C133.738 459.149 132.999 457.97 133 456.672V443H158Z" fill="black"/>
<path d="M159 443V456.271C159.001 457.554 158.278 458.722 157.145 459.273C156.732 459.478 156.279 459.589 155.82 459.598L137.323 459.999C136.829 460.011 136.339 459.905 135.892 459.69C134.738 459.149 133.999 457.97 134 456.672V443H159Z" fill="#3F3D56"/>
<rect x="364" y="443" width="25" height="17" fill="#3F3D56"/>
<rect opacity="0.1" x="364" y="443" width="25" height="17" fill="black"/>
<rect x="362" y="443" width="25" height="17" fill="#3F3D56"/>
<path opacity="0.1" d="M159 442V445.191L134 446V442H159Z" fill="black"/>
<path d="M204 351.115V441.155C203.987 442.297 203.078 443.227 201.935 443.27L99.1454 446H99.1185C97.9545 445.986 97.0145 445.047 97 443.885V351.115C97.0145 349.953 97.9545 349.014 99.1185 349H201.881C203.045 349.014 203.986 349.953 204 351.115Z" fill="#65617D"/>
<path opacity="0.1" d="M99 349V446H98.975C97.8899 445.986 97.0135 445.047 97 443.885V351.115C97.0135 349.953 97.8899 349.014 98.975 349H99Z" fill="black"/>
<path d="M104 355H199V433.872L104 436V355Z" fill="#38D39F"/>
<path opacity="0.1" d="M387 442V446L362 445.214V442H387Z" fill="black"/>
<path d="M421 351.115V443.885C420.985 445.058 420.029 446 418.855 446L316.064 443.27C314.922 443.227 314.013 442.297 314 441.155V351.115C314.014 349.953 314.954 349.014 316.118 349H418.86C420.033 349.003 420.985 349.944 421 351.115Z" fill="#65617D"/>
<path opacity="0.1" d="M421 351.115V443.885C420.986 445.058 420.095 446 419 446V349C420.095 349 420.986 349.942 421 351.115Z" fill="black"/>
<path d="M414 355H319V433.872L414 436V355Z" fill="#38D39F"/>
<path d="M312 351.115V441.155C311.987 442.297 311.078 443.227 309.935 443.27L207.145 446C205.971 446 205.015 445.058 205 443.885V351.115C205.014 349.953 205.955 349.014 207.119 349H309.881C311.045 349.014 311.986 349.953 312 351.115Z" fill="#65617D"/>
<path d="M212 355H307V433.872L212 436V355Z" fill="#38D39F"/>
<path opacity="0.1" d="M460 469V476.15L378.922 476.92L378.058 476.937L347.243 477.228L346.506 477.239L337.14 477.321H336.863L279.769 477.866L186.049 478.762H185.968L162.139 478.993L161.883 478.999L56 480V471.75L164.077 471.019H164.333L186.209 470.865H186.31L337.386 469.836H337.54L337.631 469.831H337.882L340.438 469.814H341.218L380.972 469.539L383.32 469.528L383.843 469.522L460 469Z" fill="black"/>
<path d="M260.5 372C275.688 372 288 359.688 288 344.5C288 329.312 275.688 317 260.5 317C245.312 317 233 329.312 233 344.5C233 359.688 245.312 372 260.5 372Z" fill="#FBBEBE"/>
<path d="M288 386.134C288 386.134 234.21 392.583 239.346 386.134C241.205 383.801 241.719 376.89 241.616 369.016C241.584 366.625 241.497 364.147 241.373 361.68C240.778 349.856 239.346 338.301 239.346 338.301C239.346 338.301 286.378 316.266 280.972 333.733C278.81 340.79 279.518 350.7 281.161 360.003C281.643 362.717 282.199 365.378 282.783 367.904C284.208 374.065 285.949 380.149 288 386.134Z" fill="#FBBEBE"/>
<path d="M270.023 383.726C276.171 382.595 282.683 380.54 288.469 382.908C289.991 383.529 291.391 384.437 292.951 384.958C294.511 385.478 296.22 385.605 297.844 385.972C303.549 387.257 308.176 391.574 311.146 396.592C314.116 401.609 315.655 407.286 317.161 412.903L320.847 426.619C324.052 438.539 327.257 450.561 328 462.885C283.376 465.424 238.65 465.677 194 463.644C196.906 458.154 199.876 452.329 199.631 446.122C199.385 439.915 195.79 433.792 197.088 427.675C197.916 423.778 200.597 420.565 202.237 416.939C206.912 406.574 203.274 392.625 211.49 384.735C215.187 381.188 220.571 379.844 225.716 380.014C232.276 380.232 238.991 382.266 245.481 383.259C253.794 384.512 261.646 385.255 270.023 383.726Z" fill="#FF6584"/>
<path opacity="0.1" d="M339.985 443.117L339.932 443.869V443.921L339.842 445.13L339.134 454.859L338.277 466.58L338.032 469.881L337.5 476.945V477.034L280.543 477.56L187.075 478.558V479H187V478.558V478.411L187.24 470.864L187.697 456.115L188.091 443.611L188.128 442.365C188.176 440.846 188.854 439.412 190.003 438.401C191.153 437.39 192.673 436.891 194.207 437.02C196.72 437.23 199.983 437.488 203.885 437.761L205.482 437.877C228.014 439.422 269.657 441.419 311.677 438.928C312.561 438.881 313.45 438.828 314.339 438.765C320.854 438.36 327.364 437.84 333.811 437.188C335.46 437.018 337.102 437.577 338.294 438.716C339.485 439.855 340.105 441.457 339.985 443.091V443.117Z" fill="black"/>
<path d="M187 479.979V479.536L280.523 478.53L337.504 478.003H337.663V477.914L338.196 470.832L338.425 467.671L339.298 455.758L339.985 446.327V446.095C340.017 445.66 339.997 445.224 339.927 444.793C339.93 444.776 339.93 444.758 339.927 444.741C339.78 443.852 339.415 443.012 338.862 442.296C337.67 440.784 335.773 439.987 333.845 440.189C327.396 440.842 320.883 441.363 314.365 441.769C313.476 441.832 312.587 441.885 311.703 441.932C269.665 444.404 228.005 442.401 205.463 440.879L203.865 440.763C199.962 440.489 196.697 440.236 194.184 440.02C191.32 439.781 188.736 441.721 188.198 444.514C188.144 444.799 188.112 445.088 188.102 445.378L187.74 457.054L187.245 471.844L187.011 479.41V479.557V480L187 479.979Z" fill="#3F3D56"/>
<path opacity="0.1" d="M339.991 446.786L339.337 454.96L338.363 467.142L338.119 470.192L337.587 477.022L337.555 477.363V477.454L337.475 478.243L337.533 477.454H337.379L280.452 477.987L187 479V478.851L187.261 471.194L187.793 456.234L188.133 446.29C188.167 445.141 188.78 444.087 189.761 443.491C190.364 443.121 191.068 442.953 191.772 443.011C192.89 443.102 194.262 443.209 195.864 443.326C198.465 443.518 201.673 443.742 205.408 443.976C212.325 444.414 221.002 444.883 230.946 445.267C258.612 446.333 295.96 446.69 331.436 443.576C333.032 443.438 334.682 443.283 336.294 443.129C336.932 443.065 337.575 443.187 338.145 443.48C338.307 443.561 338.46 443.658 338.603 443.768C339.066 444.105 339.433 444.557 339.667 445.08C339.721 445.184 339.766 445.293 339.8 445.405C339.96 445.847 340.025 446.317 339.991 446.786Z" fill="black"/>
<path opacity="0.1" d="M159 454V456.015C159.001 457.51 158.278 458.872 157.145 459.514L135.892 460C134.738 459.37 133.999 457.995 134 456.482V454.587L159 454Z" fill="black"/>
<path d="M159 460.38L131 461V455.62L159 455V460.38Z" fill="#3F3D56"/>
<path opacity="0.1" d="M159 460.38L131 461V455.62L159 455V460.38Z" fill="black"/>
<path d="M160 460.38L132 461V455.62L160 455V460.38Z" fill="#3F3D56"/>
<path opacity="0.1" d="M363 455V457.015C362.999 458.51 363.722 459.872 364.855 460.514L386.108 461C387.262 460.37 388.001 458.995 388 457.482V455.587L363 455Z" fill="black"/>
<path opacity="0.1" d="M362 461.38L390 462V456.62L362 456V461.38Z" fill="black"/>
<path d="M361 461.38L389 462V456.62L361 456V461.38Z" fill="#3F3D56"/>
<path d="M242.584 352.192C242.626 355.918 240.904 359.432 239.442 362.877C234.119 375.425 231.814 389.05 232.712 402.654C233.1 408.51 234.084 414.367 233.1 420.17C232.117 425.973 228.619 431.761 223 433.427C232.319 438.991 244.933 438.405 253.705 432.011C258.377 428.604 261.859 423.849 265.267 419.175C264.862 427.572 262.434 435.746 258.191 443C273.702 441.625 287.903 433.726 297.268 421.267C299.559 418.174 301.553 414.777 302.435 411.029C304.078 404.107 301.787 396.914 300.038 389.998C298.576 384.217 297.481 378.348 296.758 372.429C296.529 370.533 296.343 368.585 296.811 366.732C297.343 364.565 298.762 362.733 299.809 360.758C302.786 355.146 302.855 348.353 301.329 342.188C299.804 336.022 296.816 330.336 293.855 324.719C291.484 320.215 288.912 315.503 284.574 312.857C281.863 311.206 278.726 310.52 275.601 309.854L262.114 306.963C259.164 306.33 256.129 305.696 253.146 306.159C248.112 306.947 244.567 310.589 241.451 314.326C239.011 317.233 233.047 322.691 232.627 326.497C232.244 330.006 235.338 335.884 235.864 339.584C236.555 344.376 237.045 342.779 239.745 345.717C241.451 347.538 242.552 349.641 242.584 352.192Z" fill="#3F3D56"/>
<path d="M159.737 363H107.263C107.118 363 107 362.776 107 362.5C107 362.224 107.118 362 107.263 362H159.737C159.882 362 160 362.224 160 362.5C160 362.776 159.882 363 159.737 363Z" fill="#F2F2F2"/>
<path d="M159.737 368H107.263C107.118 368 107 367.776 107 367.5C107 367.224 107.118 367 107.263 367H159.737C159.882 367 160 367.224 160 367.5C160 367.776 159.882 368 159.737 368Z" fill="#F2F2F2"/>
<path d="M159.737 373H107.263C107.118 373 107 372.776 107 372.5C107 372.224 107.118 372 107.263 372H159.737C159.882 372 160 372.224 160 372.5C160 372.776 159.882 373 159.737 373Z" fill="#F2F2F2"/>
</svg>
