<svg width="584" height="478" viewBox="0 0 584 478" fill="none" xmlns="http://www.w3.org/2000/svg">
<g opacity="0.551107">
<path d="M454.715 181.117L436.809 136.624L388.673 151.066L392.649 164.207L419.608 155.848L356.09 296.117L299.999 176.061C298.7 173.285 295.812 171.515 292.817 171.757C289.783 171.931 287.159 173.956 286.178 176.879L254.933 270.692L224.536 241.956C223.078 240.588 220.826 239.931 219.143 239.931C217.142 240.025 215.26 240.91 213.922 242.412L128.467 337.807L139.519 347.945L219.885 258.235L253.21 289.734C255.066 291.477 257.649 292.188 260.127 291.531C262.579 290.901 264.566 289.05 265.375 286.623L294.42 199.448L349.451 317.237C350.683 319.879 353.307 321.555 356.196 321.555C356.209 321.555 356.222 321.555 356.235 321.555C359.137 321.541 361.774 319.825 362.98 317.156L432.366 163.941L442.312 186.668L454.715 181.117Z" fill="#F2F2F2"/>
<path fill-rule="evenodd" clip-rule="evenodd" d="M298.621 458.415H337.631C342.508 458.415 346.456 462.411 346.456 467.346C346.456 472.281 342.508 476.277 337.631 476.277H197.491C192.615 476.277 188.666 472.281 188.666 467.346C188.666 462.411 192.615 458.415 197.491 458.415H238.608V397.899H43.1539C38.2685 397.899 34.3339 393.917 34.3339 388.974V75.2121C34.3339 70.2682 38.2685 66.2864 43.1539 66.2864H494.045C498.93 66.2864 502.865 70.2682 502.865 75.2121V269.373H485.225V84.137H51.9732V380.048H340.175V397.899H298.621V458.415ZM256.258 458.415H280.971V397.899H256.258V458.415Z" fill="#F2F2F2"/>
<path fill-rule="evenodd" clip-rule="evenodd" d="M614.268 324.572H608.159V297.525C608.159 293.355 604.82 289.975 600.699 289.975H495.806C491.685 289.975 488.346 293.355 488.346 297.525V332.122C488.346 336.292 491.685 339.671 495.806 339.671H503.306V358.632H497.979C490.863 358.632 488.346 362.923 488.346 366.597V393.645H480.475V366.597C480.475 362.427 477.136 359.048 473.015 359.048H368.121C364.08 359.048 360.661 362.508 360.661 366.597V401.194C360.661 405.284 364.08 408.744 368.121 408.744H374.23V428.107H368.121C364 428.107 360.661 431.486 360.661 435.657V470.133C360.661 474.303 364 477.682 368.121 477.682H470.974C475.161 477.682 478.434 474.37 478.434 470.133V443.206H490.386V470.133C490.386 474.37 493.659 477.682 497.847 477.682H600.699C604.886 477.682 608.159 474.37 608.159 470.133V435.657C608.159 431.419 604.886 428.107 600.699 428.107H594.591V409.159H600.394H600.646C604.582 409.159 607.868 405.901 608.027 401.744L608.159 374.147H614.268C618.455 374.147 621.728 370.835 621.728 366.597V332.122C621.728 327.884 618.455 324.572 614.268 324.572ZM579.67 409.025V428.107H492.003V408.744H549.14L579.67 409.025ZM505.307 443.206V462.583H593.239V443.206H505.307ZM593.226 374.549L593.107 394.047L505.32 393.229L505.572 374.147H549.273L593.226 374.549ZM606.808 359.048V339.671H518.876V358.766L606.808 359.048ZM593.239 305.074V324.572H505.572V305.074H593.239ZM476.818 428.107V408.744H389.15V428.107H476.818ZM377.622 393.645V374.147H463.514V393.645H377.622ZM463.514 462.583V443.206H375.582V462.583H463.514Z" fill="#F2F2F2"/>
<path d="M170.417 201.792C170.699 199.681 169.2 198.17 167.885 196.466C166.56 194.795 165.876 193.569 163.682 193.262C161.509 192.965 159.793 193.426 158.294 194.658C151.927 199.352 144.725 201.694 136.762 201.694C128.647 201.694 121.358 198.56 115.122 192.393C108.854 186.181 105.682 178.733 105.682 170.246C105.682 161.754 108.886 154.272 115.22 148.011C121.553 141.762 128.832 138.596 136.86 138.596C144.736 138.596 151.906 140.932 158.174 145.543C159.956 147.017 161.672 147.489 163.779 147.236C165.898 146.934 167.23 145.502 168.567 143.809C169.86 142.143 170.699 140.707 170.406 138.475C170.102 136.226 169.157 134.506 167.517 133.231C161.503 128.59 154.979 125.623 148.101 124.08V110.452C148.101 107.674 145.879 107.618 143.133 107.618C140.387 107.618 138.166 107.674 138.166 110.452V122.837C138.025 122.836 137.892 122.803 137.75 122.803C133.846 122.841 130.143 123.444 126.543 124.322V110.452C126.543 107.674 124.321 107.618 121.575 107.618C118.83 107.618 116.608 107.674 116.608 110.452V128.077C112.214 130.321 108.037 133.105 104.259 136.82C94.8507 146.104 90.2665 156.972 90.2665 170.043C90.2665 182.944 94.981 194.163 104.269 203.376C108.041 207.117 112.215 209.908 116.608 212.146V229.194C116.608 231.972 118.83 232.059 121.575 232.059C124.321 232.059 126.543 231.972 126.543 229.194V215.864C130.14 216.719 133.843 217.293 137.75 217.293C137.89 217.293 138.026 217.261 138.166 217.26V229.194C138.166 231.972 140.387 232.059 143.133 232.059C145.879 232.059 148.101 231.972 148.101 229.194V216.025C154.888 214.523 161.429 211.668 167.592 207.212C169.102 205.838 170.102 204.002 170.417 201.792Z" fill="#F2F2F2"/>
</g>
<path d="M75.7966 0L44.2354 61.4782H50.6065V111.611H18.4979L0 147.643L229.203 265L305 117.357L75.7966 0Z" fill="#F2F2F2"/>
<rect x="69" y="40" width="351" height="176" fill="#3F3D56"/>
<rect opacity="0.3" x="119" y="103" width="259" height="1" fill="#38D39F"/>
<rect opacity="0.3" x="119" y="118" width="259" height="1" fill="#38D39F"/>
<rect opacity="0.3" x="119" y="148" width="259" height="1" fill="#38D39F"/>
<rect opacity="0.3" x="119" y="161" width="259" height="1" fill="#38D39F"/>
<rect opacity="0.3" x="119" y="133" width="259" height="1" fill="#38D39F"/>
<path d="M338 387C399.304 387 449 382.299 449 376.5C449 370.701 399.304 366 338 366C276.696 366 227 370.701 227 376.5C227 382.299 276.696 387 338 387Z" fill="#3F3D56"/>
<path d="M125.824 161L125 160.137L163.553 123.447L197.537 147.855L225.019 117.432L237.07 127.66L269.85 108.021L306.262 132.457L363.41 100L364 101.036L306.21 133.858L269.814 109.432L236.949 129.121L225.129 119.089L197.707 149.446L163.659 124.992L125.824 161Z" fill="#38D39F"/>
<path d="M236.828 355.455C239.571 365.672 248.967 372 248.967 372C248.967 372 253.915 361.762 251.172 351.545C248.429 341.328 239.033 335 239.033 335C239.033 335 234.085 345.238 236.828 355.455Z" fill="#3F3D56"/>
<path d="M241.324 353.083C249.056 360.539 250 372 250 372C250 372 238.408 371.373 230.676 363.917C222.944 356.461 222 345 222 345C222 345 233.592 345.627 241.324 353.083Z" fill="#38D39F"/>
<path opacity="0.4" d="M457 52C468.046 52 477 43.0457 477 32C477 20.9543 468.046 12 457 12C445.954 12 437 20.9543 437 32C437 43.0457 445.954 52 457 52Z" fill="#38D39F"/>
<path opacity="0.4" d="M420 55C427.732 55 434 48.732 434 41C434 33.268 427.732 27 420 27C412.268 27 406 33.268 406 41C406 48.732 412.268 55 420 55Z" fill="#38D39F"/>
<path opacity="0.4" d="M402.5 307C406.642 307 410 303.642 410 299.5C410 295.358 406.642 292 402.5 292C398.358 292 395 295.358 395 299.5C395 303.642 398.358 307 402.5 307Z" fill="#38D39F"/>
<path opacity="0.4" d="M275.5 343C278.538 343 281 340.538 281 337.5C281 334.462 278.538 332 275.5 332C272.462 332 270 334.462 270 337.5C270 340.538 272.462 343 275.5 343Z" fill="#38D39F"/>
<path opacity="0.4" d="M256.5 270C260.642 270 264 266.642 264 262.5C264 258.358 260.642 255 256.5 255C252.358 255 249 258.358 249 262.5C249 266.642 252.358 270 256.5 270Z" fill="#38D39F"/>
<path d="M363 112C367.418 112 371 108.418 371 104C371 99.5817 367.418 96 363 96C358.582 96 355 99.5817 355 104C355 108.418 358.582 112 363 112Z" fill="#38D39F"/>
<path d="M312.935 244.65L306.309 245.38C306.309 245.38 303.364 258.535 306.309 276.074C309.254 293.613 312.935 311.152 312.935 311.152C312.935 311.152 315.88 368.154 317.353 368.884C318.825 369.615 332.078 374 332.814 369.615C333.55 365.23 333.55 265.112 333.55 265.112L343.858 313.344C343.858 313.344 345.33 374 348.275 374C351.22 374 360.791 373.269 360.791 368.154C360.791 363.038 363 295.805 363 295.805C363 295.805 362.264 246.111 359.319 244.65C356.374 243.188 312.935 244.65 312.935 244.65Z" fill="#2F2E41"/>
<path d="M319.071 366.317C319.071 366.317 312.472 365.604 311.006 366.317C309.54 367.03 307.34 372.02 311.006 374.871C314.672 377.723 324.202 382 327.135 382C329.169 381.912 331.163 381.427 333 380.574L331.534 368.455L319.071 366.317Z" fill="#2F2E41"/>
<path d="M348 370.217L348.721 380.356C348.721 380.356 358.088 381.805 358.809 380.356C359.529 378.908 366.735 375.287 367.455 374.563C368.176 373.838 368.896 365.872 364.573 365.148C360.25 364.424 358.809 366.596 358.809 366.596L348 370.217Z" fill="#2F2E41"/>
<path d="M286.474 183C286.474 183 269.005 199.855 271.189 208.649C273.372 217.443 290.841 243.092 290.841 243.092C290.841 243.092 307.583 251.885 309.766 243.092C311.95 234.298 298.12 236.496 298.12 236.496L287.202 210.114L299.576 192.527L286.474 183Z" fill="#FFB8B8"/>
<path d="M364.571 157C364.571 157 380.359 146.627 379.994 139.501C379.628 132.374 370.11 109.904 370.11 109.904C370.11 109.904 362.665 94.0883 359.705 100.552C356.745 107.016 363.595 113.896 363.595 113.896L368.017 135.938L356 147.651L364.571 157Z" fill="#FFB8B8"/>
<path d="M325 143C332.18 143 338 137.18 338 130C338 122.82 332.18 117 325 117C317.82 117 312 122.82 312 130C312 137.18 317.82 143 325 143Z" fill="#FFB8B8"/>
<path d="M319 137.493L321.16 151L337 148.157C337 148.157 336.28 134.65 336.28 133.228C336.28 131.806 319 137.493 319 137.493Z" fill="#FFB8B8"/>
<path d="M317.717 151.235C317.717 151.235 335.974 146.832 338.164 148.3C340.355 149.767 351.309 151.235 351.309 151.235L363.723 170.314L360.072 194.529C360.072 194.529 359.342 233.421 360.802 240.025C362.263 246.629 370.296 247.363 353.5 248.831C336.704 250.298 333.783 248.097 322.099 251.032C310.414 253.967 300.921 249.564 303.842 246.629C306.763 243.694 311.875 196.731 306.033 192.328C300.191 187.925 298 165.177 298 165.177C298 165.177 317.717 154.904 317.717 151.235Z" fill="#D0CDE1"/>
<path d="M349 153.686L351.179 151.457L355.537 147C355.537 147 369.699 153.314 368.973 155.543C368.247 157.771 363.526 170.771 363.526 170.771L356.989 173L349 153.686Z" fill="#D0CDE1"/>
<path d="M306.081 167.442L297.324 166C297.324 166 290.757 173.209 288.568 176.093C286.378 178.977 282 186.186 282 186.186L297.324 197L309 184.744L306.081 167.442Z" fill="#D0CDE1"/>
<path d="M329.991 113.432L329.856 112.367C328.96 112.362 328.068 112.503 327.217 112.785C327.13 112.143 327.185 111.49 327.38 110.872C326.515 111.097 325.69 111.458 324.937 111.943L324.404 110L317.081 113.637C314.452 114.942 311.68 116.377 310.177 118.912C308.502 121.739 308.793 125.371 309.939 128.455C311.084 131.538 312.987 134.267 314.513 137.178C315.092 138.43 315.788 139.624 316.591 140.743C319.356 144.215 324.737 144.917 328.634 142.821C330.117 142.101 331.3 140.875 331.971 139.361C332.256 138.421 332.478 137.464 332.638 136.495C333.12 134.511 333.68 130.415 335.279 129.16C335.983 128.608 337.379 130.439 337.962 129.759C339.461 128.011 339.146 125.315 338.215 123.204C337.322 121.083 336.278 119.031 335.09 117.062C334.587 116.271 329.975 113.304 329.991 113.432Z" fill="#2F2E41"/>
<rect x="8" y="69" width="38" height="38" fill="#3F3D56"/>
</svg>
