<svg width="610" height="689" viewBox="0 0 610 689" fill="none" xmlns="http://www.w3.org/2000/svg">
<path fill-rule="evenodd" clip-rule="evenodd" d="M711.459 163.34C711.769 164.1 711.927 164.913 711.923 165.733C711.923 165.81 712 166.119 712 166.119V281.903C711.972 285.038 710.047 287.845 707.129 289.005L615.362 325.67V363.492L707.361 401.006C707.79 401.208 708.203 401.44 708.598 401.701C708.9 401.909 709.185 402.141 709.449 402.396C710.03 403.034 710.501 403.764 710.84 404.557V405.02C711.151 405.78 711.308 406.593 711.304 407.413V523.197C711.276 526.332 709.351 529.139 706.434 530.299L609.796 568.893C608.977 569.19 608.115 569.347 607.244 569.356C606.343 569.331 605.454 569.148 604.616 568.816L517.487 534.081L470.251 573.37V642.764C470.254 645.927 468.323 648.772 465.38 649.942L368.742 688.537C367.891 688.809 367.007 688.965 366.113 689C365.246 688.958 364.389 688.802 363.562 688.537L266.924 649.942C263.981 648.772 262.051 645.927 262.054 642.764V572.367L214.817 533.155L127.688 567.89C126.85 568.222 125.961 568.404 125.06 568.43C124.189 568.42 123.327 568.264 122.509 567.967L25.8706 529.372C22.9533 528.212 21.0285 525.406 21.0001 522.271V406.487C20.996 405.667 21.1536 404.853 21.4639 404.094V403.631C21.8036 402.838 22.274 402.107 22.8555 401.47C23.1195 401.215 23.404 400.983 23.7059 400.775C24.0759 400.493 24.4955 400.284 24.9429 400.157L117.638 363.029V325.206L25.8706 288.541C22.9533 287.382 21.0285 284.575 21.0001 281.44V165.656C20.996 164.836 21.1536 164.023 21.4639 163.263V162.8C21.8036 162.007 22.274 161.276 22.8555 160.639C23.1195 160.384 23.404 160.152 23.7059 159.944C24.0759 159.662 24.4955 159.453 24.9429 159.326L124.364 120.963C126.201 120.233 128.248 120.233 130.085 120.963L226.723 159.558C227.151 159.76 227.565 159.992 227.96 160.253C228.262 160.461 228.546 160.693 228.81 160.947C229.392 161.585 229.862 162.316 230.202 163.109V163.572C230.512 164.331 230.67 165.144 230.666 165.965V186.651L263.523 159.326V45.472C263.527 44.6775 263.684 43.8913 263.987 43.1563V42.616C264.334 41.8503 264.804 41.1463 265.378 40.5319L266.229 39.76C266.616 39.5086 267.031 39.3015 267.465 39.1425L364.103 0.5478C365.94 -0.1826 367.988 -0.1826 369.824 0.5478L466.462 39.1425L467.699 39.76L468.55 40.5319C469.124 41.1463 469.594 41.8503 469.941 42.616V43.1563C470.244 43.8913 470.401 44.6775 470.405 45.472V159.326L505.04 186.265V165.656C505.036 164.836 505.194 164.023 505.504 163.263V162.8C505.844 162.007 506.314 161.276 506.896 160.639C507.16 160.384 507.444 160.152 507.746 159.944C508.116 159.662 508.536 159.453 508.983 159.326L605.621 120.732C607.458 120.001 609.505 120.001 611.342 120.732L707.98 159.326C708.408 159.528 708.822 159.76 709.217 160.021C709.519 160.229 709.803 160.461 710.067 160.716C710.649 161.354 711.119 162.084 711.459 162.877V163.34ZM599.823 209.885L518.647 177.466V276.654L599.823 309.074V209.885ZM409.407 128.451L446.439 159.326L373.767 188.427V89.3156L454.943 56.8961V146.359L419.303 116.718C416.029 114.545 411.643 115.172 409.111 118.175C406.578 121.177 406.706 125.599 409.407 128.451ZM441.878 45.472L366.036 15.2138L290.195 45.472L366.036 75.7303L441.878 45.472ZM277.129 56.8961L358.305 89.3156V188.427L285.633 159.326L322.665 128.451C325.953 125.722 326.403 120.849 323.67 117.567C320.937 114.284 316.057 113.835 312.769 116.563L277.129 146.359V56.8961ZM200.283 166.505L124.441 136.17L48.5999 166.119L124.441 196.377L200.283 166.505ZM213.348 177.852V276.654L132.172 309.074V209.885L213.348 177.852ZM35.5344 177.466V276.654L116.71 309.074V209.885L35.5344 177.466ZM116.71 550.291L35.5344 517.871V418.683L116.71 451.102V550.291ZM48.5999 407.336L124.441 437.594L200.283 407.336L132.172 380.088V407.336C132.172 411.599 128.711 415.055 124.441 415.055C120.172 415.055 116.71 411.599 116.71 407.336V380.088L48.5999 407.336ZM213.348 513.008L177.708 483.522C174.42 480.793 169.54 481.243 166.807 484.525C164.075 487.808 164.525 492.681 167.812 495.409L200.979 522.966L132.172 550.445V451.102L213.348 418.683V513.008ZM277.129 638.441L358.305 670.86V571.749L277.129 539.33V638.441ZM366.036 558.164L290.195 527.906L366.036 497.647L441.878 527.906L366.036 558.164ZM373.767 670.86L454.943 638.441V539.33L373.767 571.749V670.86ZM508.133 400.157C507.685 400.284 507.266 400.493 506.896 400.775C506.594 400.983 506.309 401.215 506.045 401.469C505.464 402.107 504.993 402.838 504.654 403.631V404.094C504.343 404.853 504.186 405.667 504.19 406.487V522.271C504.186 523.091 504.343 523.904 504.654 524.664L470.405 552.992V527.906C470.401 527.111 470.244 526.325 469.941 525.59V525.05C469.594 524.284 469.124 523.58 468.55 522.966L467.699 522.194L466.462 521.576L369.824 482.982C367.988 482.251 365.94 482.251 364.103 482.982L267.465 521.576C267.031 521.735 266.616 521.942 266.229 522.194L265.378 522.966C264.804 523.58 264.334 524.284 263.987 525.05V525.59C263.684 526.325 263.527 527.111 263.523 527.906V552.992L230.202 525.281C230.512 524.522 230.67 523.709 230.666 522.888V407.104C230.67 406.284 230.512 405.471 230.202 404.711V404.248C229.862 403.455 229.392 402.725 228.81 402.087C228.546 401.833 228.262 401.6 227.96 401.392C227.565 401.132 227.151 400.9 226.723 400.698L132.172 363.492V325.67L223.94 289.005C226.857 287.845 228.782 285.038 228.81 281.903V206.643L272.104 170.673L363.176 207.029C364.002 207.295 364.86 207.451 365.727 207.493C366.62 207.457 367.504 207.302 368.355 207.029L459.427 170.673L502.721 206.721V281.903C502.749 285.038 504.674 287.845 507.591 289.005L599.359 325.67V363.492L508.133 400.157ZM531.094 522.811L599.9 550.291V451.102L518.724 418.683V513.163L554.364 483.522C556.406 481.366 559.505 480.57 562.336 481.474C565.167 482.377 567.228 484.821 567.638 487.76C568.048 490.699 566.735 493.612 564.26 495.255L531.094 522.811ZM696.538 517.871L615.362 550.291V451.102L696.538 418.683V517.871ZM607.631 437.594L683.472 407.336L615.362 380.088V407.336C615.362 411.599 611.901 415.055 607.631 415.055C603.361 415.055 599.9 411.599 599.9 407.336V380.088L531.79 407.336L607.631 437.594ZM607.631 196.377L531.79 166.119L607.631 136.17L683.472 166.505L607.631 196.377ZM615.362 309.074L696.538 276.654V177.466L615.362 209.885V309.074Z" fill="#F9F9F9"/>
<path fill-rule="evenodd" clip-rule="evenodd" d="M426.804 310.361C421.705 305.255 415.809 301.022 409.35 297.832C406.178 291.336 401.971 285.405 396.893 280.276L351.911 234.723C339.333 222.065 322.261 214.968 304.468 215.002C277.223 214.863 252.596 231.303 242.141 256.609C231.686 281.916 237.476 311.068 256.795 330.392L301.854 375.636C306.953 380.743 312.849 384.975 319.308 388.165C322.48 394.662 326.688 400.592 331.765 405.721L376.978 451.274C389.555 463.932 406.628 471.029 424.421 470.996C451.703 471.211 476.395 454.778 486.865 429.437C497.334 404.096 491.494 374.901 472.094 355.605L426.804 310.361ZM436.954 390.717C440.307 394.045 442.195 398.586 442.195 403.324C442.195 408.062 440.307 412.602 436.954 415.93C430.024 422.872 418.818 422.872 411.887 415.93L382.591 386.541C393.121 380.591 401.819 371.842 407.735 361.251L436.954 390.717ZM313.926 343.772C314.541 342.844 314.541 341.916 314.541 340.988L315.079 339.519L281.323 305.644C268.371 292.616 268.371 271.494 281.323 258.467C294.276 245.439 315.276 245.439 328.228 258.467L373.21 303.788C379.432 310.027 382.929 318.501 382.929 327.338C382.929 336.174 379.432 344.648 373.21 350.887C370.026 354.202 366.207 356.833 361.984 358.621C362.058 359.934 362.29 361.232 362.676 362.488V363.571C362.981 364.481 363.367 365.361 363.829 366.201L364.752 367.67C365.414 368.821 366.215 369.886 367.136 370.841L371.595 375.249C377.071 372.673 382.066 369.167 386.359 364.886C391.761 359.453 395.885 352.873 398.431 345.628C402.233 334.581 402.233 322.569 398.431 311.522C397.893 309.975 397.278 308.428 396.663 306.881L396.662 306.881C394.114 301.106 390.515 295.86 386.051 291.413L340.992 246.17C331.38 236.285 318.215 230.71 304.468 230.702C283.407 230.553 264.364 243.276 256.335 262.861C248.307 282.446 252.9 304.972 267.944 319.797L312.926 364.422C312.965 363.83 312.965 363.235 312.926 362.643V359.472V356.379V353.285C312.926 352.924 312.884 352.555 312.841 352.185C312.756 351.446 312.67 350.707 312.926 350.037C313.173 349.392 313.198 348.811 313.225 348.192C313.24 347.845 313.256 347.486 313.311 347.098C313.355 346.785 313.374 346.454 313.393 346.117C313.44 345.289 313.488 344.432 313.926 343.772ZM291.935 295.28C285.755 288.204 286.099 277.518 292.72 270.858C299.342 264.198 309.966 263.852 317.002 270.068L346.298 299.457C335.768 305.407 327.07 314.156 321.154 324.747L291.935 295.28ZM424.574 455.528C438.32 455.511 451.481 449.937 461.098 440.06L459.945 440.447C469.646 430.711 475.098 417.494 475.098 403.71C475.098 389.927 469.646 376.71 459.945 366.974L415.27 321.962C415.232 322.555 415.232 323.149 415.27 323.741V326.912V330.006V333.099C415.27 333.463 415.314 333.827 415.357 334.188C415.442 334.901 415.526 335.603 415.27 336.27C415.024 336.914 414.999 337.525 414.972 338.166C414.957 338.527 414.941 338.897 414.886 339.286C414.732 340.369 414.502 341.529 414.271 342.535C414.191 342.881 414.085 343.218 413.979 343.552C413.777 344.189 413.579 344.814 413.579 345.474C413.615 345.73 413.615 345.991 413.579 346.247L447.335 380.122C460.287 393.149 460.287 414.271 447.335 427.299C434.382 440.327 413.383 440.327 400.43 427.299L355.448 381.978C349.226 375.738 345.73 367.265 345.73 358.428C345.73 349.591 349.226 341.118 355.448 334.878C358.632 331.564 362.451 328.933 366.674 327.144C366.6 325.832 366.368 324.533 365.982 323.277V322.194C365.677 321.285 365.291 320.405 364.829 319.565L364.214 318.559C363.551 317.408 362.751 316.343 361.83 315.389L357.37 310.98C344.798 316.843 335.1 327.546 330.458 340.679C326.691 351.705 326.691 363.681 330.458 374.708C330.996 376.255 331.611 377.801 332.226 379.348L332.226 379.348C334.775 385.124 338.374 390.37 342.838 394.816L388.05 440.06C397.663 449.945 410.828 455.52 424.574 455.528Z" fill="#FEFEFE"/>
<path opacity="0.777716" d="M282 537C396.875 537 490 530.508 490 522.5C490 514.492 396.875 508 282 508C167.125 508 74 514.492 74 522.5C74 530.508 167.125 537 282 537Z" fill="#38D39F"/>
<path d="M239 284.481L238.469 285.577L235.031 292.65L198.959 366.796L137.749 516.932L129 517L190.243 366.796L231.978 281L235.031 282.511L238.469 284.216L239 284.481Z" fill="#535461"/>
<path d="M347 517L339.829 516.932L278.873 366.796L243.899 294.596L239.533 285.577L239 284.481L239.533 284.216L243.899 282.043L245.998 281L286.932 366.796L347 517Z" fill="#535461"/>
<rect x="236" y="261" width="8" height="256" fill="#535461"/>
<path fill-rule="evenodd" clip-rule="evenodd" d="M229.002 229.085C229.008 223.517 233.48 219.005 238.998 219C244.516 219.005 248.99 223.516 248.998 229.085V232.689C249.077 236.345 247.189 239.759 244.063 241.611C240.937 243.463 237.063 243.463 233.937 241.611C230.811 239.759 228.923 236.345 229.002 232.689V229.085ZM238.993 240.243C243.136 240.243 246.495 236.854 246.495 232.674V229.07C246.495 224.889 243.136 221.5 238.993 221.5C234.849 221.5 231.49 224.889 231.49 229.07V232.674C231.49 236.854 234.849 240.243 238.993 240.243Z" fill="#535461"/>
<path opacity="0.1" d="M287 367H278.892L243.706 294.775V367H235.869V292.828L199.731 367H191L232.81 281.174L235.869 282.686V261H243.706V282.217L245.818 281.174L287 367Z" fill="black"/>
<path opacity="0.1" d="M248.998 230V233.11C249.077 236.617 247.189 239.892 244.063 241.668C240.937 243.444 237.063 243.444 233.937 241.668C230.811 239.892 228.923 236.617 229.002 233.11V230H231.5V233.11C231.5 237.12 234.859 240.37 239.002 240.37C243.146 240.37 246.505 237.12 246.505 233.11V230H248.998Z" fill="black"/>
<rect x="88" y="230" width="301" height="136" fill="#535461"/>
<rect x="93" y="235" width="290" height="124" fill="white"/>
<g opacity="0.2">
<rect x="121.41" y="248.3" width="14.195" height="6.465" fill="#38D39F"/>
</g>
<g opacity="0.2">
<rect x="121.41" y="260.305" width="14.195" height="6.465" fill="#38D39F"/>
</g>
<g opacity="0.2">
<rect x="121.41" y="272.305" width="14.195" height="6.465" fill="#38D39F"/>
</g>
<g opacity="0.2">
<rect x="121.41" y="284.305" width="14.195" height="6.465" fill="#38D39F"/>
</g>
<g opacity="0.2">
<rect x="121.41" y="296.31" width="14.195" height="6.465" fill="#38D39F"/>
</g>
<g opacity="0.2">
<rect x="121.41" y="308.31" width="14.195" height="6.465" fill="#38D39F"/>
</g>
<g opacity="0.2">
<rect x="121.41" y="320.31" width="14.195" height="6.465" fill="#38D39F"/>
</g>
<g opacity="0.2">
<rect x="121.41" y="332.31" width="14.195" height="6.465" fill="#38D39F"/>
</g>
<g opacity="0.2">
<rect x="148.13" y="338.28" width="13.7055" height="6.465" fill="#38D39F"/>
</g>
<g opacity="0.2">
<rect x="172.135" y="338.28" width="13.7055" height="6.465" fill="#38D39F"/>
</g>
<g opacity="0.2">
<rect x="196.135" y="338.28" width="13.7055" height="6.465" fill="#38D39F"/>
</g>
<g opacity="0.2">
<rect x="220.14" y="338.28" width="13.7055" height="6.465" fill="#38D39F"/>
</g>
<g opacity="0.2">
<rect x="244.14" y="338.28" width="13.7055" height="6.465" fill="#38D39F"/>
</g>
<g opacity="0.2">
<rect x="268.145" y="338.28" width="13.7055" height="6.465" fill="#38D39F"/>
</g>
<g opacity="0.2">
<rect x="293.145" y="338.28" width="13.7055" height="6.465" fill="#38D39F"/>
</g>
<g opacity="0.2">
<rect x="316.15" y="338.28" width="13.7055" height="6.465" fill="#38D39F"/>
</g>
<g opacity="0.2">
<rect x="341.15" y="338.28" width="13.7055" height="6.465" fill="#38D39F"/>
</g>
<rect x="148" y="293" width="13" height="39" fill="#38D39F"/>
<rect x="173" y="275" width="13" height="57" fill="#38D39F"/>
<rect x="196" y="260" width="13" height="73" fill="#38D39F"/>
<rect x="221" y="268" width="13" height="64" fill="#38D39F"/>
<rect x="245" y="255" width="13" height="78" fill="#38D39F"/>
<g opacity="0.2">
<rect x="268.145" y="283.296" width="13.7055" height="48.5197" fill="#38D39F"/>
</g>
<g opacity="0.2">
<rect x="293.145" y="283.296" width="13.7055" height="48.5197" fill="#38D39F"/>
</g>
<g opacity="0.2">
<rect x="316.15" y="283.296" width="13.7055" height="48.5197" fill="#38D39F"/>
</g>
<g opacity="0.2">
<rect x="341.15" y="283.296" width="13.7055" height="48.5197" fill="#38D39F"/>
</g>
<path d="M339.496 284L222 291.594V294L342 289L339.496 284Z" fill="#535461"/>
<path fill-rule="evenodd" clip-rule="evenodd" d="M482.724 306.35C484.359 322.144 478.204 332.212 478.204 332.212L475.741 337.577C477.836 347.072 481.615 358.752 481.615 358.752C477.875 363.088 461.606 363.863 461.606 363.863V363.829H461.354C461.238 364.426 461.107 365.003 460.948 365.547C460.963 365.832 460.977 366.118 460.991 366.406C461.003 366.667 461.016 366.93 461.03 367.193C461.264 367.84 461.345 368.531 461.267 369.214C461.233 369.383 461.19 369.527 461.146 369.671L461.146 369.671C461.533 378.247 461.814 387.391 461.572 392.684C461.569 394.183 461.415 395.677 461.112 397.145C460.828 398.264 460.665 399.409 460.628 400.562C460.362 408.291 462.269 421.284 462.269 421.284C462.263 421.302 462.256 421.321 462.249 421.34C462.223 421.411 462.196 421.486 462.196 421.559C462.244 421.775 462.244 421.905 462.244 421.905C462.083 422.423 461.99 422.961 461.969 423.503C461.828 430.028 465.588 444.225 465.588 444.225C465.588 444.225 468.632 466.049 468.201 474.346C468.177 475.106 468.129 475.78 468.056 476.333C467.122 483.254 465.874 502.561 465.874 502.561C465.661 502.881 465.424 503.185 465.167 503.471C465.279 503.904 465.404 504.337 465.545 504.765C467.002 509.119 467.617 513.707 467.359 518.288C467.321 518.843 467.277 519.416 467.229 520.006C466.604 527.157 449.266 522.691 448.124 521.864C447.732 521.584 448.013 518.995 448.55 515.718L430.684 520.112C430.684 520.112 418.015 521.969 411.995 520.112C405.975 518.254 406.183 513.091 414.797 512.263C420.831 511.685 425.642 506.093 427.984 502.797C427.069 500.318 420.212 481.483 418.949 469.827C418.135 462.295 416.799 454.828 414.952 447.478L413.607 430.13L411.216 419.908L408.361 406.385C405.124 396.491 404.156 379.917 404.156 379.917L401.664 363.694C401.319 361.932 401.128 360.143 401.093 358.348C398.757 358.822 396.453 359.436 394.192 360.186C390.297 357.149 395.862 328.097 395.862 328.097C395.862 328.097 398.518 309.752 400.769 293.024C395.61 292.254 390.021 293.467 390.021 293.467L357.318 294.179C356.638 293.294 356.049 292.343 355.562 291.34H354.158C353.987 291.097 353.85 290.831 353.752 290.551L353.176 290.661C351.05 291.15 348.959 291.782 346.919 292.553C346.919 292.553 336.602 293.789 338.16 283.029C339.322 275.007 348.497 277.918 353.089 279.915L353.67 280.175C353.732 279.872 353.732 279.694 353.732 279.694L355.213 279.963C355.397 279.54 355.528 279.309 355.528 279.309C355.528 279.309 371.56 278.678 384.562 276.753C393.815 275.382 400.817 270.117 404.088 267.201C406.367 255.694 412.987 252.205 412.987 252.205C416.684 252.023 419.97 250.41 422.007 249.169C422.742 248.735 423.447 248.252 424.117 247.725L424.475 247.927L424.519 247.893C422.317 245.858 420.033 243.986 418.001 242.422L417.1 241.734C410.69 241.107 404.972 237.458 401.727 231.925C398.481 226.392 398.103 219.646 400.71 213.788C400.764 213.667 400.823 213.549 400.882 213.431C400.919 213.358 400.956 213.285 400.991 213.21C398.921 212.987 397.278 211.377 397.023 209.322C396.94 208.399 397.153 207.452 397.363 206.517C397.668 205.165 397.966 203.837 397.357 202.642C397.172 202.342 397.01 202.029 396.873 201.704C396.787 201.391 396.763 201.064 396.8 200.742C396.96 198.825 397.944 197.07 399.501 195.929C401.156 194.739 402.68 194.83 404.337 194.928C405.006 194.967 405.696 195.008 406.425 194.967C408.486 194.847 410.546 194.461 412.607 194.075C413.45 193.917 414.293 193.759 415.136 193.619C418.451 193.075 421.857 192.719 425.167 193.292C428.477 193.865 431.705 195.482 433.641 198.225C434.102 198.886 434.479 199.597 434.857 200.308C435.153 200.865 435.448 201.422 435.784 201.954C436.376 202.892 437.086 203.747 437.796 204.603L437.796 204.603C438.143 205.021 438.49 205.439 438.823 205.867C440.527 208.056 441.906 210.684 441.77 213.446C441.73 214.255 441.563 215.049 441.396 215.843L441.396 215.843C441.238 216.588 441.081 217.333 441.03 218.09C440.958 219.13 441.085 220.158 441.212 221.182C441.264 221.604 441.316 222.025 441.354 222.445C441.519 224.305 441.412 226.179 441.035 228.009C440.954 228.58 440.735 229.124 440.396 229.592C440.009 230.003 439.525 230.31 438.988 230.487C438.426 230.711 437.849 230.894 437.26 231.036C437.917 232.557 438.728 234.008 439.68 235.367C440.227 234.804 440.551 234.462 440.551 234.462L442.917 238.129C442.97 237.975 443.004 237.888 443.004 237.888C443.119 238.118 443.245 238.341 443.382 238.557C443.541 238.124 443.624 237.888 443.624 237.888C444.683 239.992 446.643 241.738 448.947 243.182C455.141 247.056 463.803 248.659 463.803 248.659C477.739 250.67 475.17 264.992 475.17 264.992C475.17 264.992 481.088 290.555 482.724 306.35ZM407.838 295.791L408.095 295.883C408.17 295.57 408.249 295.235 408.333 294.882L408.333 294.88C408.608 293.724 408.931 292.366 409.29 290.907C408.739 292.668 408.25 294.348 407.838 295.791ZM424.606 248.004L424.679 248.072L424.601 248.028L424.606 248.004ZM440.686 477.45C440.575 483.278 444.054 495.501 444.93 498.499H444.935C446.756 502.117 448.111 511.171 448.606 514.48C448.64 514.706 448.669 514.905 448.695 515.073C449.377 511.021 450.393 506.127 451.023 503.206C450.582 501.772 449.992 499.573 449.295 496.31C447.742 488.98 446.808 463.061 446.808 463.061L443.169 441.28C439.849 432.901 439.118 422.993 439.118 422.993C437.783 419.48 434.686 398.002 434.202 394.551C434.342 396.938 434.676 402.973 434.855 409.677L434.884 409.865C435.015 414.927 435.058 420.356 434.86 424.865V424.889C434.812 426.154 434.744 427.353 434.657 428.46C434.651 428.548 434.644 428.636 434.637 428.724C434.62 428.929 434.604 429.135 434.604 429.34C434.202 441.015 439.443 455.717 439.443 455.717C439.443 455.717 441.785 466.617 441.436 472.7C441.438 473.804 441.275 474.902 440.952 475.958C440.8 476.442 440.711 476.943 440.686 477.45Z" fill="url(#paint0_linear)"/>
<path d="M429.746 498.526C429.746 498.526 423.604 509.534 414.965 510.357C406.327 511.18 406.121 516.323 412.156 518.176C418.191 520.03 430.891 518.176 430.891 518.176L449 513.754C449 513.754 446.812 496.054 443.9 495.13C440.988 494.205 429.746 498.526 429.746 498.526Z" fill="#4C4C78"/>
<path d="M451.515 499.249C451.515 499.249 447.058 519.127 448.182 519.934C449.306 520.742 466.207 525.053 466.816 518.126C466.864 517.544 466.907 516.986 466.945 516.455C467.195 512 466.594 507.538 465.173 503.305C464.697 501.888 464.364 500.372 464.488 499.249C464.769 496.439 451.515 499.249 451.515 499.249Z" fill="#4C4C78"/>
<path d="M445 241.697C445 241.697 431.215 275.78 433.668 264.833C435.291 257.583 424.8 247.951 417.545 242.291C413.852 239.391 411 237.55 411 237.55C411 237.55 436.881 207.178 435.046 220.281C434.543 223.87 435.032 227.528 436.458 230.856C439.315 237.69 445 241.697 445 241.697Z" fill="#FFB9B9"/>
<path d="M357 290.851C356.233 290.66 354.981 290.783 353.684 291.052C351.487 291.544 349.327 292.18 347.219 292.956C347.219 292.956 336.556 294.205 338.166 283.357C339.362 275.27 348.844 278.207 353.593 280.214C355.208 280.904 356.278 281.482 356.278 281.482L357 290.851Z" fill="#FFB9B9"/>
<path opacity="0.1" d="M357 289.815C356.214 289.639 354.932 289.752 353.603 290C352.413 287.38 353.318 281.17 353.51 280C355.164 280.637 356.261 281.17 356.261 281.17L357 289.815Z" fill="black"/>
<path d="M357.177 280.5L354.501 280C354.501 280 353.131 289.5 354.922 292H358L357.177 280.5Z" fill="#CBCDDA"/>
<path d="M410.82 297.817C410.82 297.817 402.542 292.982 401.553 299.085C400.564 305.187 399.261 315.613 399.261 315.613L396.968 328.885L394 355.476L394.416 360C394.416 360 403.233 357.102 405.3 358.12C407.367 359.139 409.052 346.934 409.052 346.934L412.481 334.323L413 307.579L410.82 297.817Z" fill="#4C4C78"/>
<path opacity="0.1" d="M410.82 297.817C410.82 297.817 402.542 292.982 401.553 299.085C400.564 305.187 399.261 315.613 399.261 315.613L396.968 328.885L394 355.476L394.416 360C394.416 360 403.233 357.102 405.3 358.12C407.367 359.139 409.052 346.934 409.052 346.934L412.481 334.323L413 307.579L410.82 297.817Z" fill="black"/>
<path d="M406 265C406 265 397.597 274.616 384.84 276.551C372.082 278.486 356.34 279.113 356.34 279.113C356.34 279.113 352.369 286.323 358.098 294L390.196 293.28C390.196 293.28 397.3 291.715 402.805 293.28L406 265Z" fill="#4C4C78"/>
<path opacity="0.05" d="M406 265C406 265 397.597 274.616 384.84 276.551C372.082 278.486 356.34 279.113 356.34 279.113C356.34 279.113 352.369 286.323 358.098 294L390.196 293.28C390.196 293.28 397.3 291.715 402.805 293.28L406 265Z" fill="black"/>
<path opacity="0.1" d="M435.955 231.392C432.833 238.074 427.405 243 419.533 243C419.185 243 418.846 243 418.507 242.976C414.836 240.112 412 238.294 412 238.294C412 238.294 437.731 208.301 435.907 221.24C435.344 225.202 434.7 228.419 435.955 231.392Z" fill="black"/>
<path d="M439 222.514C438.992 233.283 430.257 242.006 419.489 242C408.721 241.994 399.996 233.26 400 222.492C400.004 211.724 408.736 202.997 419.505 203C424.682 202.99 429.649 205.043 433.308 208.706C436.967 212.368 439.015 217.337 439 222.514Z" fill="#FFB9B9"/>
<path d="M451 342.694C451 342.694 406.89 346.572 405.272 340.963C403.655 335.353 409.773 320.163 409.773 320.163L407.78 298.956L407.708 298.146C407.708 298.146 413.234 275.203 413.031 273.372C412.839 271.722 421.927 252.472 423.794 248.535C424.016 248.08 424.131 247.83 424.131 247.83L424.483 248.032L424.637 248.123L426.798 249.379L435.332 247.365L445.619 242L446.581 300.692L451 342.694Z" fill="#CBCDDA"/>
<path opacity="0.1" d="M428.059 249.101C428.059 249.101 424.954 248.281 423.74 251.305C423.265 252.605 422.703 253.873 422.056 255.101L420.848 262.123L418.634 273.215L417 322.285L417.738 331L421.794 323.978L422.532 278.11V272.405C422.769 267.472 423.913 262.621 425.909 258.081L426.474 256.794L430 252.381L428.059 249.101Z" fill="black"/>
<path d="M427.054 248.101C427.054 248.101 423.946 247.282 422.738 250.305C422.262 251.605 421.698 252.873 421.05 254.1L419.842 261.126L417.629 272.217L416 321.282L416.738 330L420.792 322.955L421.53 277.121V271.402C421.772 266.47 422.915 261.62 424.906 257.08L425.475 255.793L429 251.385L427.054 248.101Z" fill="#4C4C78"/>
<path opacity="0.1" d="M440.741 235C440.741 235 429.847 245.865 426 247.155C426 247.155 427.924 255.394 429.847 257C429.847 257 441.278 246.035 443.302 245.147L445 241.24L440.741 235Z" fill="black"/>
<path d="M440.741 235C440.741 235 429.847 245.865 426 247.155C426 247.155 427.924 255.394 429.847 257C429.847 257 441.278 246.035 443.302 245.147L445 241.245L440.741 235Z" fill="#CBCDDA"/>
<path opacity="0.1" d="M425 248L424.894 248.287L421.556 257.2L415.585 274.017C415.585 274.017 415.532 274.189 415.426 274.495C414.437 277.557 409.119 294.173 408.072 299L408 298.191C408 298.191 413.515 275.299 413.313 273.471C413.121 271.826 422.19 252.617 424.054 248.689C424.352 248.488 424.582 248.316 424.741 248.187L425 248Z" fill="black"/>
<path d="M425 248L421.527 257.307L415.515 274.309C415.515 274.309 415.462 274.484 415.356 274.793C414.301 278.092 408.289 296.923 407.806 300.367C407.259 304.15 399.699 324.597 399.699 324.597L395.38 360C391.511 356.996 397.005 328.075 397.005 328.075C397.005 328.075 403.177 285.183 404.638 270.914C406.098 256.644 413.977 252.474 413.977 252.474C417.614 252.291 420.894 250.685 422.911 249.451C423.639 249.015 424.337 248.53 425 248Z" fill="#4C4C78"/>
<path opacity="0.1" d="M468.838 475.039C467.907 481.913 466.665 501.088 466.665 501.088C462.314 507.548 452.678 504.06 452.678 504.06C452.678 504.06 451.645 502.13 450.091 494.827C448.536 487.523 447.606 461.797 447.606 461.797L443.976 440.186C440.663 431.874 439.937 422.029 439.937 422.029C438.476 418.232 434.963 393.307 434.963 393.307C434.963 393.307 436.425 415.666 435.484 427.465C434.544 439.265 440.244 455.14 440.244 455.14C440.244 455.14 443.46 470.017 441.798 474.634C440.137 479.25 445.945 498.324 445.945 498.324C445.457 503.867 428.961 501.609 428.961 501.609C428.961 501.609 421.2 480.987 419.84 468.575C419.026 461.096 417.693 453.682 415.85 446.385L414.506 429.149L412.118 418.961L409.273 405.526C406.058 395.68 405.078 379.216 405.078 379.216L402.589 363.061C400.962 355.072 403.076 345.695 404.479 340.789C405.088 338.661 405.575 337.364 405.575 337.364C407.003 338.367 415.178 339.544 419.407 340.499C421.721 341.027 424.101 341.216 426.471 341.059C437.163 340.218 447.74 338.298 458.037 335.328C458.733 335.121 459.104 335 459.104 335L459.323 336.848L459.839 341.247L460.76 349.057C460.76 349.057 463.557 390.702 461.9 396.332C460.244 401.961 463.04 420.934 463.04 420.934C461.486 425.434 466.353 443.727 466.353 443.727C466.353 443.727 469.773 468.165 468.838 475.039Z" fill="black"/>
<path d="M468.838 475.033C467.907 481.908 466.665 501.086 466.665 501.086C462.314 507.551 452.678 504.058 452.678 504.058C452.678 504.058 451.645 502.128 450.091 494.828C448.536 487.529 447.606 461.79 447.606 461.79L443.976 440.147C440.688 431.834 439.937 421.963 439.937 421.963C438.476 418.166 434.963 393.237 434.963 393.237C434.963 393.237 436.425 415.599 435.484 427.4C434.544 439.201 440.244 455.098 440.244 455.098C440.244 455.098 443.46 469.977 441.798 474.594C440.137 479.211 445.945 498.292 445.945 498.292C445.457 503.831 428.961 501.573 428.961 501.573C428.961 501.573 421.2 480.972 419.84 468.554C419.026 461.074 417.693 453.659 415.85 446.361L414.506 429.127L412.118 418.972L409.273 405.535C406.058 395.683 405.078 379.217 405.078 379.217L402.589 363.06C400.962 355.07 403.076 345.691 404.479 340.785C405.088 338.662 405.575 337.364 405.575 337.364C407.003 338.368 415.178 339.54 419.407 340.495C421.721 341.026 424.101 341.214 426.471 341.055C437.163 340.214 447.74 338.294 458.037 335.323L459.104 335L459.323 336.843L459.839 341.248L460.76 349.059C460.76 349.059 463.557 390.704 461.9 396.34C460.244 401.975 463.04 420.945 463.04 420.945C461.486 425.441 466.353 443.736 466.353 443.736C466.353 443.736 469.773 468.149 468.838 475.033Z" fill="#474463"/>
<path opacity="0.1" d="M438.981 222.892C438.987 226.371 438.08 229.791 436.352 232.809C433.26 233.356 429.97 232.751 427.656 230.703C426.071 229.303 425.047 227.391 423.684 225.768C422.802 224.772 421.855 223.835 420.848 222.965C420.191 222.309 419.436 221.758 418.611 221.333C417.77 220.907 416.779 220.897 415.929 221.304C414.838 221.914 414.48 223.275 413.847 224.359C413.371 225.291 412.556 226.003 411.571 226.35C410.56 226.674 409.457 226.298 408.851 225.425C408.18 224.267 408.672 222.461 407.547 221.754C407.25 221.607 406.943 221.481 406.629 221.377C405.179 220.718 405.01 218.767 404.885 217.169C404.822 216.384 404.653 215.498 403.996 215.077C403.338 214.656 402.474 214.869 401.691 214.883C401.459 214.893 401.227 214.875 401 214.83C404.803 206.239 414.085 201.487 423.259 203.433C432.433 205.38 438.997 213.494 439 222.892H438.981Z" fill="black"/>
<path d="M399.655 196.928C398.131 198.06 397.168 199.801 397.016 201.701C396.98 202.015 397.004 202.333 397.088 202.638C397.221 202.961 397.381 203.273 397.565 203.569C398.567 205.572 397.035 207.944 397.231 210.177C397.506 212.359 399.34 214 401.525 214.019C402.298 214.019 403.148 213.788 403.801 214.211C404.455 214.633 404.617 215.507 404.679 216.285C404.803 217.87 404.961 219.805 406.397 220.458C406.707 220.564 407.009 220.689 407.304 220.833C408.42 221.534 407.934 223.33 408.597 224.472C409.195 225.339 410.285 225.711 411.283 225.39C412.254 225.047 413.057 224.342 413.526 223.421C414.141 222.34 414.509 221.02 415.587 220.391C416.425 219.983 417.405 219.992 418.235 220.415C419.05 220.838 419.796 221.386 420.445 222.038C421.44 222.9 422.376 223.828 423.245 224.818C424.591 226.422 425.603 228.319 427.168 229.707C430.117 232.314 434.63 232.588 438.266 231.085C438.791 230.909 439.265 230.605 439.645 230.201C439.977 229.737 440.192 229.198 440.27 228.631C440.64 226.823 440.746 224.971 440.585 223.133C440.456 221.692 440.165 220.252 440.266 218.811C440.366 217.265 440.915 215.771 440.991 214.225C441.124 211.488 439.774 208.89 438.128 206.724C437.135 205.433 436.019 204.237 435.16 202.854C434.411 201.653 433.867 200.333 433.065 199.171C431.185 196.458 428.017 194.849 424.782 194.287C421.547 193.725 418.221 194.071 414.981 194.614C412.156 195.094 409.313 195.776 406.45 195.944C403.945 196.121 401.926 195.271 399.655 196.928Z" fill="#472727"/>
<path opacity="0.1" d="M424 248L420.399 257.37L414.165 274.489C414.165 274.489 414.11 274.664 414 274.976V275L421.844 249.451C422.595 249.015 423.315 248.53 424 248V248Z" fill="black"/>
<path d="M461.988 353.542C461.988 353.542 462.32 365.096 459.502 368L452 352.38L458.293 349L461.988 353.542Z" fill="#FFB9B9"/>
<path opacity="0.1" d="M480 357.927C476.315 362.229 460.279 363 460.279 363L444.405 337.949C444.405 337.949 440.648 335.338 433.592 323.578C426.536 311.819 426.767 302.762 427.161 295.998C427.555 289.234 431.971 269.796 431.971 269.796C432.659 265.421 442.553 238 442.553 238C443.592 240.076 445.526 241.811 447.787 243.241C453.896 247.095 462.424 248.676 462.424 248.676C476.162 250.675 473.627 264.887 473.627 264.887C473.627 264.887 473.781 320.129 472.934 326.739C472.087 333.348 480 357.927 480 357.927Z" fill="black"/>
<path d="M462 356.153L461.544 360L456.038 358.079L452 352.26L455.031 350L462 356.153Z" fill="#CBCDDA"/>
<path opacity="0.1" d="M462 340.644L459.063 340.944L430.749 343.771C426.202 344.227 421.613 344.002 417.132 343.103L404 340.479C404.606 338.349 405.09 337.047 405.09 337.047C406.51 338.054 414.641 339.23 418.848 340.189C421.149 340.721 423.517 340.91 425.874 340.75C436.508 339.907 447.028 337.98 457.27 335L458.55 336.525L462 340.644Z" fill="black"/>
<g opacity="0.1">
<path d="M404.776 337.514C404.682 337.468 404.592 337.416 404.504 337.36C404.504 337.36 404.504 337.388 404.475 337.432L404.776 337.514Z" fill="black"/>
<path d="M464.989 443.55C464.989 443.55 460.141 425.288 461.692 420.8C461.692 420.8 458.909 401.873 460.562 396.239C462.216 390.604 459.423 349.043 459.423 349.043L458.507 341.246L457.993 336.849L457.779 335.01L456.713 335.332L456.053 335.525L456.136 336.238L456.65 340.63L457.566 348.427C457.566 348.427 460.349 390.002 458.705 395.622C457.062 401.242 459.835 420.183 459.835 420.183C458.288 424.676 463.132 442.933 463.132 442.933C463.132 442.933 466.526 467.311 465.61 474.169C464.693 481.027 463.442 500.175 463.442 500.175C460.281 504.889 454.313 504.302 451.321 503.642L451.375 503.758C451.375 503.758 460.965 507.244 465.295 500.791C465.295 500.791 466.531 481.638 467.462 474.785C468.393 467.932 464.989 443.55 464.989 443.55Z" fill="black"/>
<path d="M440.558 474.376C442.206 469.767 439.011 454.915 439.011 454.915C439.011 454.915 433.343 439.023 434.269 427.267C434.657 422.36 434.633 415.627 434.468 409.448C433.154 401.478 431.893 392.593 431.893 392.593C431.893 392.593 433.348 414.914 432.417 426.689C431.486 438.464 437.154 454.342 437.154 454.342C437.154 454.342 440.354 469.189 438.701 473.798C437.047 478.407 442.817 497.429 442.817 497.429C442.405 501.86 431.811 501.282 427.607 500.897L427.767 501.321C427.767 501.321 444.16 503.574 444.674 498.046C444.684 498.031 438.909 478.985 440.558 474.376Z" fill="black"/>
</g>
<path d="M481 357.927C477.321 362.229 461.28 363 461.28 363L445.407 337.949C445.407 337.949 441.651 335.338 434.59 323.578C427.529 311.819 427.77 302.762 428.16 295.998C428.549 289.234 432.969 269.796 432.969 269.796C433.657 265.421 443.551 238 443.551 238C444.585 240.076 446.519 241.811 448.784 243.241C454.892 247.095 463.42 248.676 463.42 248.676C477.152 250.675 474.617 264.887 474.617 264.887C474.617 264.887 474.771 320.129 473.925 326.739C473.078 333.348 481 357.927 481 357.927Z" fill="#4C4C78"/>
<path opacity="0.1" d="M446.659 251.61L443.143 252.896L445.484 254.51L428 296C428.406 289.255 432.897 269.797 432.897 269.797C433.598 265.422 443.672 238 443.672 238C444.725 240.076 446.693 241.811 449 243.242L446.659 251.61Z" fill="black"/>
<path opacity="0.1" d="M451 325.719L468.681 321L471 328.437L452.932 333L451 325.719Z" fill="black"/>
<path opacity="0.1" d="M461.069 255.023C461.069 255.023 453.137 262.55 456.13 279.328C459.123 296.105 463.909 314.319 463.909 314.319L451 350.391C451 350.391 459.998 359.852 464.421 361L477.306 332.157C477.306 332.157 483.331 322.16 481.729 306.473C480.127 290.786 474.333 265.401 474.333 265.401C474.333 265.401 474.337 249.949 461.069 255.023Z" fill="black"/>
<path d="M461.081 255.023C461.081 255.023 453.15 262.55 456.131 279.328C459.112 296.105 463.899 314.319 463.899 314.319L451 350.391C451 350.391 459.991 359.852 464.411 361L477.31 332.157C477.31 332.157 483.33 322.16 481.729 306.473C480.129 290.786 474.338 265.401 474.338 265.401C474.338 265.401 474.338 249.949 461.081 255.023Z" fill="#4C4C78"/>
<path opacity="0.1" d="M451.884 351.061C451.884 351.061 461.702 365.022 460.96 368.739C460.218 372.457 457.341 370.469 457.341 370.469L453.475 365.022L450 354.832C450 354.832 450.34 350.434 451.884 351.061Z" fill="black"/>
<path opacity="0.1" d="M449.885 351.061C449.885 351.061 459.681 365.022 458.962 368.739C458.244 372.457 455.342 370.469 455.342 370.469L451.471 365.022L448 354.832C448 354.832 448.341 350.434 449.885 351.061Z" fill="black"/>
<path d="M450.885 351.061C450.885 351.061 460.685 365.022 459.962 368.739C459.239 372.457 456.341 370.469 456.341 370.469L452.472 365.022L449 354.832C449 354.832 449.336 350.434 450.885 351.061Z" fill="#474463"/>
<defs>
<linearGradient id="paint0_linear" x1="482.992" y1="524.024" x2="482.992" y2="192.994" gradientUnits="userSpaceOnUse">
<stop stop-color="#808080" stop-opacity="0.25"/>
<stop offset="0.54" stop-color="#808080" stop-opacity="0.12"/>
<stop offset="1" stop-color="#808080" stop-opacity="0.1"/>
</linearGradient>
</defs>
</svg>
