<?xml version="1.0" encoding="UTF-8"?>
<svg width="187px" height="121px" viewBox="0 0 187 121" version="1.1" xmlns="http://www.w3.org/2000/svg" xmlns:xlink="http://www.w3.org/1999/xlink">
    <!-- Generator: Sketch 58 (84663) - https://sketch.com -->
    <title>undraw_key_points_ig28</title>
    <desc>Created with Sketch.</desc>
    <g id="Sales-Page" stroke="none" stroke-width="1" fill="none" fill-rule="evenodd">
        <g id="Desktop-HD" transform="translate(-218.000000, -880.000000)" fill-rule="nonzero">
            <g id="undraw_key_points_ig28" transform="translate(218.000000, 880.000000)">
                <circle id="Oval" fill="#2F2E41" cx="147" cy="14" r="8"></circle>
                <path d="M143.50097,21 C143.50097,21 143.64711,26.0742223 140.43205,27.6118526 C137.21699,29.149483 153,28.9957295 153,28.9957295 C153,28.9957295 148.323552,22.9989329 149.638802,21 L143.50097,21 Z" id="Path" fill="#FFB8B8"></path>
                <path d="M143.50097,21 C143.50097,21 143.64711,26.0742223 140.43205,27.6118526 C137.21699,29.149483 153,28.9957295 153,28.9957295 C153,28.9957295 148.323552,22.9989329 149.638802,21 L143.50097,21 Z" id="Path" fill="#000000" opacity="0.1"></path>
                <circle id="Oval" fill="#FFB8B8" cx="147.5" cy="18.5" r="5.5"></circle>
                <path d="M146.807819,26.4468288 L141.986679,25.3617108 L139.180343,28.3276983 L136.01422,28.7617463 L140.187744,45.9789457 L140.043831,50.3194159 C140.043831,50.3194159 135.438561,53.7917939 135.726392,69.8515364 C136.014223,85.911279 133.423758,117.741398 136.58988,118.030764 C139.756002,118.32013 146.376076,119.766952 146.807826,118.46481 C147.239576,117.162668 147.959143,65.8004309 147.959143,65.8004309 C147.959143,65.8004309 147.815227,117.307351 149.973947,117.886081 C152.132668,118.46481 158.75274,119.622269 159.616228,117.741398 C160.479715,115.860526 159.616228,66.8132064 159.616228,66.8132064 C159.616228,66.8132064 159.472314,54.0811586 154.291386,50.3194141 L153.715727,46.9917194 L158.177082,28.7617427 L154.579208,28.7617427 L152.42049,25 L147.959136,26.5915066 L146.807819,26.4468288 Z" id="Path" fill="#2F2E41"></path>
                <path d="M135.110265,46 L128.903961,56.7368379 C128.903961,56.7368379 124.364929,61.5127483 126.636437,62.8319421 C128.907945,64.151136 131.322953,57.2708041 131.322953,57.2708041 L138,48.2556731 L135.110265,46 Z" id="Path" fill="#FFB8B8"></path>
                <path d="M159.965665,46 L164.745414,56.8651412 C164.745414,56.8651412 168.555,61.8895427 166.270112,62.8979181 C163.985223,63.9062934 162.401028,57.1118825 162.401028,57.1118825 L157,47.831228 L159.965665,46 Z" id="Path" fill="#FFB8B8"></path>
                <path d="M137.619999,29.9879216 L135.799999,29 C135.799999,29 132.58,34.3630096 133.14,43.3954437 C133.14,43.3954437 132.58,48.1939244 133.7,48.476188 C134.82,48.7584515 138.039998,49.3229787 138.179999,48.7584515 C138.32,48.1939244 140,37.7501706 140,37.7501706 L137.619999,29.9879216 Z" id="Path" fill="#2F2E41"></path>
                <path d="M156.674913,28.7185467 L158.349826,28 C159.570659,29.517407 160.34542,31.3621083 160.583044,33.3172797 C161.001773,36.6226142 162.955838,47.2571736 161.4205,47.5445941 C159.885163,47.8320146 156.256184,48.4068555 156.256184,47.5445941 C156.256184,46.6823327 155,36.6226125 155,36.6226125 L156.674913,28.7185467 Z" id="Path" fill="#2F2E41"></path>
                <polygon id="Path" fill="#2F2E41" points="152.806935 13.1290266 148.754312 11 143.157867 11.8709734 142 17 144.882361 16.8888305 145.687439 15.0043768 145.687439 16.8576681 147.017424 16.8063725 147.789336 13.8065476 148.271824 17 153 16.9031863"></polygon>
                <circle id="Oval" fill="#2F2E41" cx="147.5" cy="4.5" r="3.5"></circle>
                <path d="M143.054297,3.5 C143.054404,1.77265928 144.305251,0.303587875 146,0.0403854178 C144.647901,-0.168045388 143.300214,0.442058033 142.557235,1.59893936 C141.814255,2.75582069 141.814255,4.24417931 142.557235,5.40106064 C143.300214,6.55794197 144.647901,7.16804539 146,6.95961458 C144.305253,6.6964101 143.054409,5.22734219 143.054297,3.5 L143.054297,3.5 Z" id="Path" fill="#2F2E41"></path>
                <ellipse id="Oval" fill="#38D39F" cx="89.5" cy="105" rx="1.5" ry="1"></ellipse>
                <path d="M89,105 C89,105 96.1854267,116.36036 95.9963322,118" id="Path" fill="#38D39F"></path>
                <path d="M94.2039574,106 L94.2039574,112.660525 C92.8368111,110.758551 90.1099421,108.800094 85,107.210294 L94.2039574,119.903579 L94.2039574,120 C94.2039574,120 94.2213432,119.990588 94.2537104,119.972199 L94.2693864,119.993815 C94.2693864,119.993815 94.2825291,119.976185 94.3060247,119.942102 C95.3783533,119.318451 104.371833,113.695197 94.2039574,106 Z" id="Path" fill="#3F3D56"></path>
                <rect id="Rectangle" fill="#3F3D56" x="89" y="119.82009" width="98" height="1"></rect>
                <path d="M114,120 L110,120 L110,116 L114,116 L114,120 Z M110.307692,119.692308 L113.692308,119.692308 L113.692308,116.307688 L110.307692,116.307688 L110.307692,119.692308 Z" id="Shape" fill="#3F3D56"></path>
                <circle id="Oval" fill="#38D39F" cx="180" cy="114" r="2"></circle>
                <path d="M180,119 C177.238576,119 175,116.761424 175,114 C175,111.238576 177.238576,109 180,109 C182.761424,109 185,111.238576 185,114 C184.996911,116.760143 182.760143,118.996911 180,119 L180,119 Z M180,109.384622 C177.450995,109.384622 175.384618,111.450999 175.384618,114.000003 C175.384618,116.549008 177.450995,118.615385 180,118.615385 C182.549005,118.615385 184.615382,116.549008 184.615382,114.000003 C184.612468,111.452206 182.547797,109.387536 180,109.384622 L180,109.384622 Z" id="Shape" fill="#2F2E41"></path>
                <rect id="Rectangle" fill="#38D39F" x="6" y="8" width="121" height="72"></rect>
                <polygon id="Path" fill="#000000" opacity="0.1" points="82 7 6 59 6 46.5449318 63.797089 7"></polygon>
                <polygon id="Path" fill="#000000" opacity="0.1" points="118 8 118 9.2519403 14.3909968 80 6 80 6 73.3480597 101.700579 8"></polygon>
                <rect id="Rectangle" fill="#3F3D56" x="16.8201923" y="67" width="1" height="13"></rect>
                <circle id="Oval" fill="#3F3D56" cx="16.5" cy="66.5" r="4.5"></circle>
                <rect id="Rectangle" fill="#3F3D56" x="41.8201923" y="56" width="1" height="24"></rect>
                <circle id="Oval" fill="#3F3D56" cx="41.5" cy="56.5" r="4.5"></circle>
                <rect id="Rectangle" fill="#3F3D56" x="66.8201923" y="36" width="1" height="44"></rect>
                <circle id="Oval" fill="#3F3D56" cx="66.5" cy="36.5" r="4.5"></circle>
                <rect id="Rectangle" fill="#3F3D56" x="91.8201923" y="49" width="1" height="31"></rect>
                <circle id="Oval" fill="#3F3D56" cx="91.5" cy="49.5" r="4.5"></circle>
                <rect id="Rectangle" fill="#3F3D56" x="116.820192" y="23" width="1" height="57"></rect>
                <circle id="Oval" fill="#3F3D56" cx="116.5" cy="23.5" r="4.5"></circle>
                <rect id="Rectangle" fill="#3F3D56" x="7" y="66.82009" width="1" height="1"></rect>
                <path d="M14,68 L12.333276,68 L12.333276,67 L14,67 L14,68 Z M10.6666371,68 L9,68 L9,67 L10.6666371,67 L10.6666371,68 Z" id="Shape" fill="#3F3D56"></path>
                <rect id="Rectangle" fill="#3F3D56" x="16" y="66.82009" width="1" height="1"></rect>
                <rect id="Rectangle" fill="#3F3D56" x="7" y="56.82009" width="1" height="1"></rect>
                <path d="M38,57 L35.8461607,57 L35.8461607,56 L38,56 L38,57 Z M33.6923213,57 L31.538482,57 L31.538482,56 L33.6923213,56 L33.6923213,57 Z M29.3846427,57 L27.2308034,57 L27.2308034,56 L29.3846427,56 L29.3846427,57 Z M25.0768771,57 L22.9230377,57 L22.9230377,56 L25.0768771,56 L25.0768771,57 Z M20.7691966,57 L18.6153573,57 L18.6153573,56 L20.7691966,56 L20.7691966,57 Z M16.461518,57 L14.3076787,57 L14.3076787,56 L16.461518,56 L16.461518,57 Z M12.1538393,57 L10,57 L10,56 L12.1538393,56 L12.1538393,57 Z" id="Shape" fill="#3F3D56"></path>
                <rect id="Rectangle" fill="#3F3D56" x="40" y="56.82009" width="1" height="1"></rect>
                <rect id="Rectangle" fill="#3F3D56" x="7" y="48.82009" width="1" height="1"></rect>
                <path d="M86,50 L83.8285668,50 L83.8285668,49 L86,49 L86,50 Z M81.6571534,50 L79.4857202,50 L79.4857202,49 L81.6571534,49 L81.6571534,50 Z M77.3143068,50 L75.1428736,50 L75.1428736,49 L77.3143068,49 L77.3143068,50 Z M72.9713721,50 L70.7999389,50 L70.7999389,49 L72.9713721,49 L72.9713721,50 Z M68.6285255,50 L66.4570995,50 L66.4570995,49 L68.6285255,49 L68.6285255,50 Z M64.2856789,50 L62.1142475,50 L62.1142475,49 L64.2856789,49 L64.2856789,50 Z M59.9428322,50 L57.7714008,50 L57.7714008,49 L59.9428322,49 L59.9428322,50 Z M55.5999856,50 L53.4285542,50 L53.4285542,49 L55.5999856,49 L55.5999856,50 Z M51.257139,50 L49.0857076,50 L49.0857076,49 L51.257139,49 L51.257139,50 Z M46.9142924,50 L44.742861,50 L44.742861,49 L46.9142924,49 L46.9142924,50 Z M42.5714458,50 L40.4000144,50 L40.4000144,49 L42.5714458,49 L42.5714458,50 Z M38.2285992,50 L36.0571678,50 L36.0571678,49 L38.2285992,49 L38.2285992,50 Z M33.8857525,50 L31.7142331,50 L31.7142331,49 L33.8857525,49 L33.8857525,50 Z M29.5428197,50 L27.3713865,50 L27.3713865,49 L29.5428197,49 L29.5428197,50 Z M25.199973,50 L23.0285398,50 L23.0285398,49 L25.199973,49 L25.199973,50 Z M20.8571264,50 L18.6856932,50 L18.6856932,49 L20.8571264,49 L20.8571264,50 Z M16.5142798,50 L14.3428466,50 L14.3428466,49 L16.5142798,49 L16.5142798,50 Z M12.1714332,50 L10,50 L10,49 L12.1714332,49 L12.1714332,50 Z" id="Shape" fill="#3F3D56"></path>
                <rect id="Rectangle" fill="#3F3D56" x="88" y="48.82009" width="1" height="1"></rect>
                <rect id="Rectangle" fill="#3F3D56" x="7" y="35.82009" width="1" height="1"></rect>
                <path d="M61,37 L58.7826322,37 L58.7826322,36 L61,36 L61,37 Z M56.5652626,37 L54.3478068,37 L54.3478068,36 L56.5652626,36 L56.5652626,37 Z M52.130439,37 L49.9130694,37 L49.9130694,36 L52.130439,36 L52.130439,37 Z M47.6957051,37 L45.4782458,37 L45.4782458,36 L47.6957051,36 L47.6957051,37 Z M43.260878,37 L41.0435084,37 L41.0435084,36 L43.260878,36 L43.260878,37 Z M38.8261405,37 L36.6086848,37 L36.6086848,36 L38.8261405,36 L38.8261405,37 Z M34.3913224,37 L32.1739545,37 L32.1739545,36 L34.3913224,36 L34.3913224,37 Z M29.9564916,37 L27.7391238,37 L27.7391238,36 L29.9564916,36 L29.9564916,37 Z M25.5217542,37 L23.3043828,37 L23.3043828,36 L25.5217542,36 L25.5217542,37 Z M21.0869306,37 L18.869561,37 L18.869561,36 L21.0869306,36 L21.0869306,37 Z M16.6521932,37 L14.4348254,37 L14.4348254,36 L16.6521932,36 L16.6521932,37 Z M12.2173696,37 L10,37 L10,36 L12.2173696,36 L12.2173696,37 Z" id="Shape" fill="#3F3D56"></path>
                <rect id="Rectangle" fill="#3F3D56" x="63" y="35.82009" width="1" height="1"></rect>
                <polygon id="Rectangle" fill="#3F3D56" transform="translate(7.012495, 23.413024) rotate(-0.195830) translate(-7.012495, -23.413024) " points="6.47306995 23.2331136 7.5519215 23.2331115 7.5519208 23.5929334 6.47306925 23.5929355"></polygon>
                <path d="M10.0012278,24 L10,23.4851041 L12.12246,23.4751743 L12.1236878,23.9900702 L10.0012278,24 Z M14.2460653,23.980264 L14.2448392,23.4653681 L16.3672903,23.4554486 L16.3685163,23.9703446 L14.2460653,23.980264 Z M18.4909027,23.9604019 L18.4896767,23.445506 L20.6121367,23.4355762 L20.6133627,23.9504722 L18.4909027,23.9604019 Z M22.7358227,23.940666 L22.7345967,23.42577 L24.8569687,23.4158403 L24.8581966,23.9307362 L22.7358227,23.940666 Z M26.9806602,23.9208039 L26.9794323,23.4059079 L29.1018044,23.3959781 L29.1030322,23.9108741 L26.9806602,23.9208039 Z M31.2254976,23.9010679 L31.2242698,23.386172 L33.3467298,23.3762422 L33.3479576,23.8911381 L31.2254976,23.9010679 Z M35.470335,23.8812058 L35.469109,23.3663098 L37.591569,23.3563801 L37.5927951,23.871276 L35.470335,23.8812058 Z M39.7151725,23.8614698 L39.7139446,23.3465739 L41.8364047,23.3366441 L41.8376325,23.8515401 L39.7151725,23.8614698 Z M43.9600099,23.8416103 L43.9587821,23.3267143 L46.0812421,23.316782 L46.0824699,23.8316779 L43.9600099,23.8416103 Z M48.2049299,23.8218743 L48.2037021,23.3069784 L50.3260759,23.297046 L50.327302,23.811942 L48.2049299,23.8218743 Z M52.4497674,23.8020122 L52.4485413,23.2871163 L54.5709134,23.2771839 L54.5721394,23.7920799 L52.4497674,23.8020122 Z M56.6946048,23.7822763 L56.6933788,23.2673803 L58.8158388,23.257448 L58.8170648,23.7723439 L56.6946048,23.7822763 Z M60.9394423,23.7624141 L60.9382144,23.2475182 L63.0606744,23.2375859 L63.0619023,23.7524818 L60.9394423,23.7624141 Z M65.1842797,23.7426782 L65.1830519,23.2277822 L67.3055119,23.2178499 L67.3067397,23.7327458 L65.1842797,23.7426782 Z M69.4291997,23.7228161 L69.4279719,23.2079201 L71.5503457,23.1979904 L71.5515718,23.7128863 L69.4291997,23.7228161 Z M73.6740371,23.7030801 L73.6728111,23.1881842 L75.7951832,23.1782544 L75.796411,23.6931503 L73.6740371,23.7030801 Z M77.9188746,23.683218 L77.9176467,23.1683221 L80.0400188,23.1583923 L80.0412466,23.6732882 L77.9188746,23.683218 Z M82.163712,23.663482 L82.1624842,23.1485861 L84.2849442,23.1386563 L84.286172,23.6535523 L82.163712,23.663482 Z M86.4084561,23.6436199 L86.4074042,23.128724 L88.529778,23.1187942 L88.53083,23.6336902 L86.4084561,23.6436199 Z M90.6533761,23.623884 L90.6523242,23.108988 L92.7746981,23.0990583 L92.77575,23.6139542 L90.6533761,23.623884 Z M94.898122,23.6040219 L94.8970701,23.0891259 L97.0196181,23.0791961 L97.02067,23.5940921 L94.898122,23.6040219 Z M99.143042,23.5842859 L99.1419901,23.06939 L101.264362,23.0594602 L101.265414,23.5743561 L99.143042,23.5842859 Z M103.387786,23.5644264 L103.386734,23.0495304 L105.509282,23.0395981 L105.510334,23.554494 L103.387786,23.5644264 Z M107.632706,23.5446904 L107.631656,23.0297945 L109.754028,23.0198621 L109.75508,23.5347581 L107.632706,23.5446904 Z M111.877628,23.5248283 L111.876576,23.0099323 L113.998948,23 L114,23.5148959 L111.877628,23.5248283 Z" id="Shape" fill="#3F3D56"></path>
                <polygon id="Rectangle" fill="#3F3D56" transform="translate(116.515385, 23.056714) rotate(-0.167860) translate(-116.515385, -23.056714) " points="115.97596 22.8768037 117.054811 22.8768019 117.054811 23.2366238 115.975959 23.2366256"></polygon>
                <rect id="Rectangle" fill="#3F3D56" x="0" y="21" width="4" height="4"></rect>
                <rect id="Rectangle" fill="#3F3D56" x="0" y="34" width="4" height="4"></rect>
                <rect id="Rectangle" fill="#3F3D56" x="0" y="47" width="4" height="4"></rect>
                <rect id="Rectangle" fill="#3F3D56" x="0" y="55" width="4" height="4"></rect>
                <rect id="Rectangle" fill="#3F3D56" x="0" y="65" width="4" height="4"></rect>
                <polygon id="Rectangle" fill="#38D39F" transform="translate(173.566425, 58.362948) rotate(104.722595) translate(-173.566425, -58.362948) " points="168.889578 53.6884191 178.24458 53.6871109 178.243272 63.0374778 168.88827 63.038786"></polygon>
                <path d="M166.128979,62.7055115 C165.739583,61.6720039 166.2616,60.5184606 167.294936,60.1290003 C168.328273,59.7395399 169.481625,60.2616432 169.871021,61.2951506 C170.260417,62.328658 169.738401,63.4822016 168.705065,63.8716624 C167.671772,64.2597573 166.519371,63.7380847 166.128979,62.7055115 Z M169.559185,61.4126806 C169.234689,60.5514241 168.273562,60.1163377 167.412448,60.4408878 C166.551334,60.7654379 166.11632,61.726724 166.440816,62.5879805 C166.765312,63.449237 167.726439,63.8843236 168.587553,63.5597735 C169.447908,63.2344142 169.882572,62.2739006 169.559183,61.4126806 L169.559185,61.4126806 Z" id="Shape" fill="#3F3D56"></path>
                <ellipse id="Oval" fill="#2F2E41" cx="141" cy="118.5" rx="3" ry="1.5"></ellipse>
                <ellipse id="Oval" fill="#2F2E41" cx="155" cy="118.5" rx="3" ry="1.5"></ellipse>
                <path d="M99,40 C97.8954305,40 97,39.1045695 97,38 C97,36.8954305 97.8954305,36 99,36 C100.104569,36 101,36.8954305 101,38 C100.998737,39.104046 100.104046,39.9987371 99,40 L99,40 Z M99,36.3333333 C98.0795254,36.3333333 97.3333333,37.0795254 97.3333333,38 C97.3333333,38.9204746 98.0795254,39.6666667 99,39.6666667 C99.9204746,39.6666667 100.666667,38.9204746 100.666667,38 C100.665643,37.0799496 99.9200504,36.3343566 99,36.3333333 Z" id="Shape" fill="#FFFFFF"></path>
                <path d="M51,73 C49.8954305,73 49,72.1045695 49,71 C49,69.8954305 49.8954305,69 51,69 C52.1045695,69 53,69.8954305 53,71 C52.9987371,72.104046 52.104046,72.9987371 51,73 L51,73 Z M51,69.3333333 C50.0795254,69.3333333 49.3333333,70.0795254 49.3333333,71 C49.3333333,71.9204746 50.0795254,72.6666667 51,72.6666667 C51.9204746,72.6666667 52.6666667,71.9204746 52.6666667,71 C52.6656434,70.0799496 51.9200504,69.3343566 51,69.3333333 L51,69.3333333 Z" id="Shape" fill="#FFFFFF"></path>
                <path d="M30,21 C28.8954305,21 28,20.1045695 28,19 C28,17.8954305 28.8954305,17 30,17 C31.1045695,17 32,17.8954305 32,19 C31.9987371,20.104046 31.104046,20.9987371 30,21 L30,21 Z M30,17.3333333 C29.0795254,17.3333333 28.3333333,18.0795254 28.3333333,19 C28.3333333,19.9204746 29.0795254,20.6666667 30,20.6666667 C30.9204746,20.6666667 31.6666667,19.9204746 31.6666667,19 C31.6656434,18.0799496 30.9200504,17.3343566 30,17.3333333 Z" id="Shape" fill="#FFFFFF"></path>
            </g>
        </g>
    </g>
</svg>