<svg width="300" height="18" viewBox="0 0 300 18" fill="none" xmlns="http://www.w3.org/2000/svg">
<path d="M279.2 18C273.366 18 270.402 13.7507 268.059 10.313C265.62 6.82759 263.994 4.67905 260.743 4.67905C257.539 4.67905 255.865 6.82759 253.427 10.313C251.084 13.7507 248.119 18 242.286 18C236.452 18 233.487 13.7507 231.144 10.313C228.706 6.82759 227.08 4.67905 223.828 4.67905C220.625 4.67905 218.951 6.82759 216.513 10.313C214.17 13.7507 211.205 18 205.371 18C199.538 18 196.573 13.7507 194.23 10.313C191.792 6.82759 190.166 4.67905 186.914 4.67905C183.711 4.67905 182.037 6.82759 179.598 10.313C177.255 13.7507 174.291 18 168.457 18C162.624 18 159.659 13.7507 157.316 10.313C154.877 6.82759 153.252 4.67905 150 4.67905C146.796 4.67905 145.123 6.82759 142.684 10.313C140.341 13.7507 137.376 18 131.543 18C125.709 18 122.745 13.7507 120.402 10.313C117.963 6.82759 116.337 4.67905 113.086 4.67905C109.882 4.67905 108.208 6.82759 105.77 10.313C103.427 13.7507 100.462 18 94.6286 18C88.795 18 85.8304 13.7507 83.4874 10.313C81.0488 6.82759 79.423 4.67905 76.1715 4.67905C72.9678 4.67905 71.2942 6.82759 68.8556 10.313C66.5126 13.7507 63.548 18 57.7144 18C51.8808 18 48.9162 13.7507 46.5732 10.313C44.1345 6.82759 42.5088 4.67905 39.2573 4.67905C36.0536 4.67905 34.38 6.82759 31.9413 10.313C29.5983 13.7507 26.6337 18 20.8001 18C14.9665 18 12.0019 13.7507 9.65891 10.313C7.22027 6.82759 5.59452 4.67905 2.343 4.67905C1.05196 4.67905 0 3.62865 0 2.33952C0 1.0504 1.05196 0 2.343 0C8.1766 0 11.1412 4.24934 13.4842 7.687C15.9229 11.1724 17.5486 13.321 20.8001 13.321C24.0038 13.321 25.6774 11.1724 28.116 7.687C30.459 4.24934 33.4237 0 39.2573 0C45.0909 0 48.0555 4.24934 50.3985 7.687C52.8371 11.1724 54.4629 13.321 57.7144 13.321C60.9181 13.321 62.5916 11.1724 65.0303 7.687C67.3733 4.24934 70.3379 0 76.1715 0C82.0051 0 84.9697 4.24934 87.3127 7.687C89.7514 11.1724 91.3771 13.321 94.6286 13.321C97.8323 13.321 99.5059 11.1724 101.945 7.687C104.288 4.24934 107.252 0 113.086 0C118.919 0 121.884 4.24934 124.227 7.687C126.666 11.1724 128.291 13.321 131.543 13.321C134.747 13.321 136.42 11.1724 138.859 7.687C141.202 4.24934 144.166 0 150 0C155.834 0 158.798 4.24934 161.141 7.687C163.58 11.1724 165.206 13.321 168.457 13.321C171.661 13.321 173.334 11.1724 175.773 7.687C178.116 4.24934 181.081 0 186.914 0C192.748 0 195.712 4.24934 198.055 7.687C200.494 11.1724 202.12 13.321 205.371 13.321C208.623 13.321 210.249 11.1724 212.687 7.687C215.03 4.24934 217.995 0 223.828 0C229.662 0 232.627 4.24934 234.97 7.687C237.408 11.1724 239.034 13.321 242.286 13.321C245.489 13.321 247.163 11.1724 249.602 7.687C251.945 4.24934 254.909 0 260.743 0C266.576 0 269.541 4.24934 271.884 7.687C274.323 11.1724 275.948 13.321 279.2 13.321C282.404 13.321 284.077 11.1724 286.516 7.687C288.859 4.24934 291.823 0 297.657 0C298.948 0 300 1.0504 300 2.33952C300 3.62865 298.948 4.67905 297.657 4.67905C294.453 4.67905 292.78 6.82759 290.341 10.313C287.998 13.7507 285.033 18 279.2 18Z" fill="#EBEBEB"/>
</svg>
