<svg width="404" height="404" viewBox="0 0 404 404" fill="none" xmlns="http://www.w3.org/2000/svg">
<g opacity="0.0335751">
<path fill-rule="evenodd" clip-rule="evenodd" d="M74.5161 121.705C78.2218 121.705 81.2258 118.696 81.2258 114.984V81.377C81.4173 66.6043 73.6302 52.8795 60.8619 45.4852C70.5798 34.7351 70.0346 18.2014 59.6297 8.11706C49.2248 -1.96724 32.7107 -1.96724 22.3058 8.11706C11.9009 18.2014 11.3557 34.7351 21.0736 45.4852C8.30527 52.8795 0.518229 66.6043 0.709689 81.377V114.984C0.709689 118.696 3.71371 121.705 7.41937 121.705H74.5161ZM27.5484 27.6065C27.5484 20.1824 33.5564 14.1639 40.9678 14.1639C48.3791 14.1639 54.3871 20.1824 54.3871 27.6065C54.3871 35.0307 48.3791 41.0492 40.9678 41.0492C33.5564 41.0492 27.5484 35.0307 27.5484 27.6065ZM40.9678 54.4918C14.4377 54.4918 14.129 80.2815 14.129 81.377V108.262H67.8065V81.377C68.093 74.1625 65.3575 67.1561 60.2608 62.0506C55.1641 56.945 48.1698 54.2048 40.9678 54.4918Z" fill="black"/>
<rect x="34.2581" y="67.9344" width="13.4194" height="26.8852" fill="black"/>
<path fill-rule="evenodd" clip-rule="evenodd" d="M382.926 327.78C392.644 317.03 392.099 300.496 381.694 290.412C371.289 280.328 354.775 280.328 344.37 290.412C333.965 300.496 333.42 317.03 343.138 327.78C330.37 335.175 322.583 348.899 322.774 363.672V397.279C322.774 400.991 325.778 404 329.484 404H396.581C400.286 404 403.29 400.991 403.29 397.279V363.672C403.482 348.899 395.695 335.175 382.926 327.78ZM349.613 309.902C349.613 302.477 355.621 296.459 363.032 296.459C370.444 296.459 376.452 302.477 376.452 309.902C376.452 317.326 370.444 323.344 363.032 323.344C355.621 323.344 349.613 317.326 349.613 309.902ZM336.194 363.672V390.557H389.871V363.672C390.157 356.458 387.422 349.451 382.325 344.346C377.229 339.24 370.234 336.5 363.032 336.787C336.502 336.787 336.194 362.577 336.194 363.672Z" fill="black"/>
<rect x="356.323" y="350.229" width="13.4194" height="26.8852" fill="black"/>
<path fill-rule="evenodd" clip-rule="evenodd" d="M221.894 166.469C231.612 155.719 231.067 139.185 220.662 129.101C210.257 119.016 193.743 119.016 183.338 129.101C172.933 139.185 172.388 155.719 182.106 166.469C169.338 173.863 161.551 187.588 161.742 202.361V235.967C161.742 239.679 164.746 242.689 168.452 242.689H235.548C239.254 242.689 242.258 239.679 242.258 235.967V202.361C242.45 187.588 234.663 173.863 221.894 166.469ZM188.581 148.59C188.581 141.166 194.589 135.148 202 135.148C209.411 135.148 215.419 141.166 215.419 148.59C215.419 156.014 209.411 162.033 202 162.033C194.589 162.033 188.581 156.014 188.581 148.59ZM175.161 202.361V229.246H228.839V202.361C229.125 195.146 226.39 188.14 221.293 183.034C216.196 177.929 209.202 175.188 202 175.475C175.47 175.475 175.161 201.265 175.161 202.361Z" fill="black"/>
<rect x="195.29" y="188.918" width="13.4194" height="26.8852" fill="black"/>
<rect x="269.097" y="54.4918" width="93.9355" height="13.4426" fill="black"/>
<rect x="302.645" y="27.6066" width="73.8064" height="13.4426" fill="black"/>
<path fill-rule="evenodd" clip-rule="evenodd" d="M248.968 0.721313H396.581C400.286 0.721313 403.29 3.73055 403.29 7.44263V88.0984C403.29 91.8104 400.286 94.8197 396.581 94.8197H385.939L367.776 113.014C365.156 115.638 360.909 115.638 358.289 113.014L340.125 94.8197H248.968C245.262 94.8197 242.258 91.8104 242.258 88.0984V7.44263C242.258 3.73055 245.262 0.721313 248.968 0.721313ZM383.161 81.377H389.871V14.1639H255.677V81.377H342.903C344.683 81.3774 346.389 82.0858 347.647 83.3464L363.032 98.7584L378.418 83.3464C379.676 82.0858 381.382 81.3774 383.161 81.377Z" fill="black"/>
<rect x="27.5484" y="363.672" width="93.9355" height="13.4426" fill="black"/>
<rect x="61.0968" y="336.787" width="73.8064" height="13.4426" fill="black"/>
<path fill-rule="evenodd" clip-rule="evenodd" d="M155.032 404H7.41933C3.71368 404 0.709656 400.991 0.709656 397.279V316.623C0.709656 312.911 3.71368 309.902 7.41933 309.902H18.0609L36.224 291.707C38.8441 289.083 43.0913 289.083 45.7115 291.707L63.8746 309.902H155.032C158.738 309.902 161.742 312.911 161.742 316.623V397.279C161.742 400.991 158.738 404 155.032 404ZM20.8387 323.344H14.129V390.557H148.323V323.344H61.0968C59.3174 323.344 57.611 322.635 56.353 321.375L40.9677 305.963L25.5824 321.375C24.3244 322.635 22.6181 323.344 20.8387 323.344Z" fill="black"/>
<rect x="275.806" y="27.6066" width="13.4194" height="13.4426" fill="black"/>
<rect x="34.2581" y="336.787" width="13.4194" height="13.4426" fill="black"/>
<rect x="181.871" y="356.951" width="13.4194" height="13.4426" fill="black"/>
<rect x="208.71" y="356.951" width="13.4194" height="13.4426" fill="black"/>
<rect x="235.548" y="356.951" width="13.4194" height="13.4426" fill="black"/>
<rect x="262.387" y="356.951" width="13.4194" height="13.4426" fill="black"/>
<rect x="289.226" y="356.951" width="13.4194" height="13.4426" fill="black"/>
<rect x="356.323" y="249.41" width="13.4194" height="13.4426" fill="black"/>
<rect x="356.323" y="222.525" width="13.4194" height="13.4426" fill="black"/>
<rect x="356.323" y="195.639" width="13.4194" height="13.4426" fill="black"/>
<rect x="356.323" y="168.754" width="13.4194" height="13.4426" fill="black"/>
<rect x="356.323" y="141.869" width="13.4194" height="13.4426" fill="black"/>
<rect x="34.2581" y="249.41" width="13.4194" height="13.4426" fill="black"/>
<rect x="34.2581" y="222.525" width="13.4194" height="13.4426" fill="black"/>
<rect x="34.2581" y="195.639" width="13.4194" height="13.4426" fill="black"/>
<rect x="67.8064" y="195.639" width="13.4194" height="13.4426" fill="black"/>
<rect x="94.6451" y="195.639" width="13.4194" height="13.4426" fill="black"/>
<rect x="121.484" y="195.639" width="13.4194" height="13.4426" fill="black"/>
<rect x="269.097" y="195.639" width="13.4194" height="13.4426" fill="black"/>
<rect x="295.936" y="195.639" width="13.4194" height="13.4426" fill="black"/>
<rect x="322.774" y="195.639" width="13.4194" height="13.4426" fill="black"/>
<rect x="34.2581" y="168.754" width="13.4194" height="13.4426" fill="black"/>
<rect x="34.2581" y="141.869" width="13.4194" height="13.4426" fill="black"/>
<rect x="94.6451" y="34.3279" width="13.4194" height="13.4426" fill="black"/>
<rect x="121.484" y="34.3279" width="13.4194" height="13.4426" fill="black"/>
<rect x="148.323" y="34.3279" width="13.4194" height="13.4426" fill="black"/>
<rect x="175.161" y="34.3279" width="13.4194" height="13.4426" fill="black"/>
<rect x="202" y="34.3279" width="13.4194" height="13.4426" fill="black"/>
</g>
</svg>
