<svg width="253" height="225" viewBox="0 0 253 225" fill="none" xmlns="http://www.w3.org/2000/svg">
<path d="M133 225C199.274 225 253 221.418 253 217C253 212.582 199.274 209 133 209C66.7258 209 13 212.582 13 217C13 221.418 66.7258 225 133 225Z" fill="#3F3D56"/>
<path opacity="0.1" d="M161.5 222C204.854 222 240 219.314 240 216C240 212.686 204.854 210 161.5 210C118.146 210 83 212.686 83 216C83 219.314 118.146 222 161.5 222Z" fill="black"/>
<path d="M57 194.294L58.2308 207.824L63.7692 209L65 205.471C65 205.471 62.8462 195.765 62.8462 194L57 194.294Z" fill="#A0616A"/>
<path d="M72.7601 185C72.7601 185 70.1402 191 69.1577 191.6C68.1752 192.2 72.1051 200 72.1051 200L78 199.1C78 199.1 76.035 192.8 77.6725 189.2L72.7601 185Z" fill="#A0616A"/>
<path d="M71.2693 188C71.2693 188 68.8974 188.771 67.9487 192.164C67 195.557 67 195.866 67 195.866L68.5812 199.259H69.5299C69.5299 199.259 71.1111 204.503 70.7949 206.353C70.4787 208.204 73.0086 215.299 77.436 214.99C81.8633 214.682 80.9146 209.438 80.9146 209.438L78.7009 198.642C78.7009 198.642 78.7009 195.866 78.0684 195.866C77.436 195.866 72.3761 196.791 72.3761 196.791V197.717C72.3761 197.717 68.7393 192.935 71.2693 188Z" fill="#2F2E41"/>
<path d="M62.5109 206.46V204.655C62.5109 204.655 56.2262 205.558 56.2262 206.46V208.567C56.2262 208.567 50.8393 220 56.8248 220C62.8102 220 64.0073 217.593 64.0073 217.593V214.283C64.0073 214.283 67 212.779 67 211.876C67 210.974 64.0796 203 64.0796 203C64.0796 203 64.0073 207.664 62.5109 206.46Z" fill="#2F2E41"/>
<path d="M55.5 54C60.7467 54 65 49.7467 65 44.5C65 39.2533 60.7467 35 55.5 35C50.2533 35 46 39.2533 46 44.5C46 49.7467 50.2533 54 55.5 54Z" fill="#A0616A"/>
<path d="M52 52.0952C52 52.0952 53.2174 57.9762 53.2174 58.5952C53.2174 59.2143 59 62 59 62L64.1739 61.0714L66 55.5C66 55.5 62.9565 50.8571 62.9565 49L52 52.0952Z" fill="#A0616A"/>
<path d="M52.7259 56.3005C52.7259 56.3005 55.8779 61.4448 60.458 59.9153C63.0707 59.1209 64.8781 56.7346 64.9384 54L80 59.3036L77.2519 81.634L79.6947 107.635L77.8626 111H50.9924C50.9924 111 50.0763 106.412 49.771 106.412C49.4656 106.412 48.855 105.494 49.1603 105.188C49.4656 104.882 50.0763 104.576 49.771 103.658C49.4656 102.741 49.1603 92.6462 49.1603 92.6462L40 66.0333L52.7259 56.3005Z" fill="#D0CDE1"/>
<path d="M41 114.727L46.04 122C46.04 122 46.88 114.424 48 114.121L45.2 112L41 114.727Z" fill="#A0616A"/>
<path d="M101.921 109C101.921 109 109.808 114.029 108.932 117.284C108.056 120.538 99 111.663 99 111.367C99 111.071 101.921 109 101.921 109Z" fill="#A0616A"/>
<path d="M50.6526 107.926H50.0421L49.1262 112.249C49.1262 112.249 44.2415 116.572 46.6839 123.365L51.5685 155.786L52.1791 193.456L57.6743 195L63.7802 193.765L65.3066 143.435C65.3066 143.435 67.4437 138.804 66.5278 137.26C65.6119 135.716 66.8331 136.025 66.8331 136.025L73.2442 153.933C73.2442 153.933 71.1072 159.8 73.2442 161.653C73.2442 161.653 72.9389 162.579 73.2442 162.888C73.5495 163.196 75.076 164.432 74.4654 165.049C73.8548 165.667 73.5495 165.049 73.5495 165.975C73.5495 166.902 70.4966 174.621 71.7178 184.502L75.6866 190.677L79.3501 188.516L86.0665 169.372C86.0665 169.372 84.54 166.593 86.0665 165.975C87.5929 165.358 87.8982 164.74 87.2877 163.814C86.6771 162.888 86.6771 159.8 87.5929 158.256C88.5088 156.712 87.5929 154.242 87.5929 154.242L84.2347 123.056C84.2347 123.056 85.7612 114.719 80.5712 110.396L79.6554 107C79.6554 107 72.0231 112.558 50.6526 107.926Z" fill="#2F2E41"/>
<path d="M47.298 36.3818C47.298 36.3818 50.4001 29.6864 56.346 31.2315C62.2919 32.7766 65.6526 35.0942 65.9111 37.4118C66.1696 39.7295 65.7819 43.2059 65.7819 43.2059C65.7819 43.2059 65.1356 38.4419 60.9993 39.472C56.8631 40.502 50.4002 39.7295 50.4002 39.7295L49.3661 49C49.3661 49 48.2028 47.3262 46.9102 48.3562C45.6176 49.3863 43.1617 38.4419 47.298 36.3818Z" fill="#2F2E41"/>
<path d="M44.5778 66H39.9111C39.9111 66 35.8667 69.3795 36.1778 75.8313L34 93.9578C34 93.9578 34 102.867 37.7333 109.319L41.7778 117C41.7778 117 43.3333 112.699 48 113.313L45.5111 106.861V105.325C45.5111 105.325 44.5778 104.096 44.5778 103.789C44.5778 103.482 45.8222 103.482 44.8889 102.867C43.9556 102.253 43.0222 96.1084 43.0222 96.1084C43.0222 96.1084 43.3333 94.8795 43.6444 94.5723C43.9556 94.2651 43.3333 93.3434 43.3333 93.3434L43.9556 92.4217L48 77.3675L44.5778 66Z" fill="#D0CDE1"/>
<path d="M74.625 58L79.9375 58.9205C79.9375 58.9205 83.0625 61.9886 84.3125 65.6705L86.8125 76.7159L90.875 84.6932C90.875 84.6932 95.5625 89.2955 99 99.7273L104 108.932L98.6875 112C98.6875 112 84 95.125 82.125 89.2955L74 73.9545L74.625 58Z" fill="#D0CDE1"/>
<rect x="104" y="104" width="126" height="114" fill="#3F3D56"/>
<rect x="102" y="120" width="3" height="85" fill="#38D39F"/>
<rect x="181" y="121" width="17" height="1" fill="#F2F2F2"/>
<rect x="181" y="117" width="17" height="3" fill="#F2F2F2"/>
<path d="M198 205H187V199H194.951V199.462H187.478V204.538H197.522V201.646H198V205Z" fill="#F2F2F2"/>
<rect x="122" y="130" width="76" height="2" fill="#F2F2F2"/>
<rect x="122" y="139" width="76" height="2" fill="#F2F2F2"/>
<rect x="122" y="147" width="76" height="2" fill="#F2F2F2"/>
<rect x="122" y="156" width="76" height="2" fill="#F2F2F2"/>
<rect x="122" y="164" width="76" height="2" fill="#F2F2F2"/>
<rect x="122" y="173" width="76" height="2" fill="#F2F2F2"/>
<rect x="122" y="181" width="76" height="2" fill="#F2F2F2"/>
<rect x="122" y="190" width="76" height="2" fill="#F2F2F2"/>
<path d="M209 134C210.657 134 212 132.657 212 131C212 129.343 210.657 128 209 128C207.343 128 206 129.343 206 131C206 132.657 207.343 134 209 134Z" fill="#38D39F"/>
<path d="M209 143C210.657 143 212 141.657 212 140C212 138.343 210.657 137 209 137C207.343 137 206 138.343 206 140C206 141.657 207.343 143 209 143Z" fill="#F2F2F2"/>
<path d="M209 151C210.657 151 212 149.657 212 148C212 146.343 210.657 145 209 145C207.343 145 206 146.343 206 148C206 149.657 207.343 151 209 151Z" fill="#38D39F"/>
<path d="M209 160C210.657 160 212 158.657 212 157C212 155.343 210.657 154 209 154C207.343 154 206 155.343 206 157C206 158.657 207.343 160 209 160Z" fill="#F2F2F2"/>
<path d="M209 168C210.657 168 212 166.657 212 165C212 163.343 210.657 162 209 162C207.343 162 206 163.343 206 165C206 166.657 207.343 168 209 168Z" fill="#F2F2F2"/>
<path d="M209 177C210.657 177 212 175.657 212 174C212 172.343 210.657 171 209 171C207.343 171 206 172.343 206 174C206 175.657 207.343 177 209 177Z" fill="#F2F2F2"/>
<path d="M209 186C210.657 186 212 184.657 212 183C212 181.343 210.657 180 209 180C207.343 180 206 181.343 206 183C206 184.657 207.343 186 209 186Z" fill="#38D39F"/>
<path d="M209 194C210.657 194 212 192.657 212 191C212 189.343 210.657 188 209 188C207.343 188 206 189.343 206 191C206 192.657 207.343 194 209 194Z" fill="#38D39F"/>
<path d="M192.674 203L190 200.558L190.337 200.25L192.674 202.384L199.663 196L200 196.308L192.674 203Z" fill="#38D39F"/>
<path opacity="0.1" d="M193 209C201.837 209 209 208.552 209 208C209 207.448 201.837 207 193 207C184.163 207 177 207.448 177 208C177 208.552 184.163 209 193 209Z" fill="black"/>
<path d="M31.7267 214C31.6779 213.913 30.5278 211.823 30.1291 207.482C29.7634 203.5 29.9985 196.788 33.1966 187.425C39.2552 169.687 31.8003 155.375 31.7242 155.232L32.092 155C32.1113 155.036 34.0349 158.685 35.1713 164.496C36.6728 172.199 36.126 180.209 33.5951 187.586C27.5469 205.294 32.0434 213.676 32.0895 213.759L31.7267 214Z" fill="#3F3D56"/>
<path d="M29 155C30.6569 155 32 153.657 32 152C32 150.343 30.6569 149 29 149C27.3431 149 26 150.343 26 152C26 153.657 27.3431 155 29 155Z" fill="#38D39F"/>
<path d="M39 166C40.6569 166 42 164.657 42 163C42 161.343 40.6569 160 39 160C37.3431 160 36 161.343 36 163C36 164.657 37.3431 166 39 166Z" fill="#38D39F"/>
<path d="M32 173C33.6569 173 35 171.657 35 170C35 168.343 33.6569 167 32 167C30.3431 167 29 168.343 29 170C29 171.657 30.3431 173 32 173Z" fill="#38D39F"/>
<path d="M40 179C41.6569 179 43 177.657 43 176C43 174.343 41.6569 173 40 173C38.3431 173 37 174.343 37 176C37 177.657 38.3431 179 40 179Z" fill="#38D39F"/>
<path d="M30 189C31.6569 189 33 187.657 33 186C33 184.343 31.6569 183 30 183C28.3431 183 27 184.343 27 186C27 187.657 28.3431 189 30 189Z" fill="#38D39F"/>
<path d="M33.4444 214C33.4444 214 30.6667 206.571 39 201L33.4444 214Z" fill="#3F3D56"/>
<path d="M30 214C30 214 28.627 205.931 18 206L30 214Z" fill="#3F3D56"/>
<path fill-rule="evenodd" clip-rule="evenodd" d="M4.20001 0H37.8C40.1809 0 42 1.82873 42 4.22222L41.9974 23.9268C41.9974 26.1778 40.1783 28.149 37.7974 28.149H36.3983V38L26.5991 28.149H4.20001C1.81911 28.149 0 26.1778 0 23.9268V4.22222C0 1.82873 1.81911 0 4.20001 0ZM34.9992 13.3686C34.9992 11.4 33.4609 9.85095 31.5 9.85095C29.5392 9.85095 28.0009 11.3999 28.0009 13.3712C28.0009 15.3398 29.5391 16.8888 31.5 16.8862C33.4583 16.8862 34.9992 15.3398 34.9992 13.3686ZM9.10091 16.8889C7.14001 16.8889 5.6018 15.3398 5.6018 13.3713C5.6018 11.4 7.1427 9.85365 9.10091 9.85365C11.0618 9.85365 12.6 11.4027 12.6 13.3713C12.6 15.3399 11.0591 16.8889 9.10091 16.8889ZM16.8 13.3713C16.8 15.3398 18.3382 16.8889 20.2991 16.8889C22.26 16.8889 23.8009 15.3399 23.7982 13.3713C23.7982 11.4027 22.26 9.85365 20.2991 9.85365C18.3409 9.85365 16.8 11.4 16.8 13.3713Z" fill="#3F3D56"/>
</svg>
