<svg width="657" height="537" viewBox="0 0 657 537" fill="none" xmlns="http://www.w3.org/2000/svg">
<path d="M133 537C199.274 537 253 533.418 253 529C253 524.582 199.274 521 133 521C66.7258 521 13 524.582 13 529C13 533.418 66.7258 537 133 537Z" fill="#3F3D56"/>
<path opacity="0.1" d="M161.5 534C204.854 534 240 531.314 240 528C240 524.686 204.854 522 161.5 522C118.146 522 83 524.686 83 528C83 531.314 118.146 534 161.5 534Z" fill="black"/>
<path d="M57 506.294L58.2308 519.824L63.7692 521L65 517.471C65 517.471 62.8462 507.765 62.8462 506L57 506.294Z" fill="#A0616A"/>
<path d="M72.7601 497C72.7601 497 70.1402 503 69.1577 503.6C68.1752 504.2 72.1051 512 72.1051 512L78 511.1C78 511.1 76.035 504.8 77.6725 501.2L72.7601 497Z" fill="#A0616A"/>
<path d="M71.2693 500C71.2693 500 68.8974 500.771 67.9487 504.164C67 507.557 67 507.866 67 507.866L68.5812 511.259H69.5299C69.5299 511.259 71.1111 516.503 70.7949 518.353C70.4787 520.204 73.0086 527.299 77.436 526.99C81.8633 526.682 80.9146 521.438 80.9146 521.438L78.7009 510.642C78.7009 510.642 78.7009 507.866 78.0684 507.866C77.436 507.866 72.3761 508.791 72.3761 508.791V509.717C72.3761 509.717 68.7393 504.935 71.2693 500Z" fill="#2F2E41"/>
<path d="M62.5109 518.46V516.655C62.5109 516.655 56.2262 517.558 56.2262 518.46V520.567C56.2262 520.567 50.8393 532 56.8248 532C62.8102 532 64.0073 529.593 64.0073 529.593V526.283C64.0073 526.283 67 524.779 67 523.876C67 522.974 64.0796 515 64.0796 515C64.0796 515 64.0073 519.664 62.5109 518.46Z" fill="#2F2E41"/>
<path d="M55.5 366C60.7467 366 65 361.747 65 356.5C65 351.253 60.7467 347 55.5 347C50.2533 347 46 351.253 46 356.5C46 361.747 50.2533 366 55.5 366Z" fill="#A0616A"/>
<path d="M52 364.095C52 364.095 53.2174 369.976 53.2174 370.595C53.2174 371.214 59 374 59 374L64.1739 373.071L66 367.5C66 367.5 62.9565 362.857 62.9565 361L52 364.095Z" fill="#A0616A"/>
<path d="M52.7259 368.301C52.7259 368.301 55.8779 373.445 60.458 371.915C63.0707 371.121 64.8781 368.735 64.9384 366L80 371.304L77.2519 393.634L79.6947 419.635L77.8626 423H50.9924C50.9924 423 50.0763 418.412 49.771 418.412C49.4656 418.412 48.855 417.494 49.1603 417.188C49.4656 416.882 50.0763 416.576 49.771 415.658C49.4656 414.741 49.1603 404.646 49.1603 404.646L40 378.033L52.7259 368.301Z" fill="#D0CDE1"/>
<path d="M41 426.727L46.04 434C46.04 434 46.88 426.424 48 426.121L45.2 424L41 426.727Z" fill="#A0616A"/>
<path d="M101.921 421C101.921 421 109.808 426.029 108.932 429.284C108.056 432.538 99 423.663 99 423.367C99 423.071 101.921 421 101.921 421Z" fill="#A0616A"/>
<path d="M50.6526 419.926H50.0421L49.1262 424.249C49.1262 424.249 44.2415 428.572 46.6839 435.365L51.5685 467.786L52.1791 505.456L57.6743 507L63.7802 505.765L65.3066 455.435C65.3066 455.435 67.4437 450.804 66.5278 449.26C65.6119 447.716 66.8331 448.025 66.8331 448.025L73.2442 465.933C73.2442 465.933 71.1072 471.8 73.2442 473.653C73.2442 473.653 72.9389 474.579 73.2442 474.888C73.5495 475.196 75.076 476.432 74.4654 477.049C73.8548 477.667 73.5495 477.049 73.5495 477.975C73.5495 478.902 70.4966 486.621 71.7178 496.502L75.6866 502.677L79.3501 500.516L86.0665 481.372C86.0665 481.372 84.54 478.593 86.0665 477.975C87.5929 477.358 87.8982 476.74 87.2877 475.814C86.6771 474.888 86.6771 471.8 87.5929 470.256C88.5088 468.712 87.5929 466.242 87.5929 466.242L84.2347 435.056C84.2347 435.056 85.7612 426.719 80.5712 422.396L79.6554 419C79.6554 419 72.0231 424.558 50.6526 419.926Z" fill="#2F2E41"/>
<path d="M47.298 348.382C47.298 348.382 50.4001 341.686 56.346 343.231C62.2919 344.777 65.6526 347.094 65.9111 349.412C66.1696 351.729 65.7819 355.206 65.7819 355.206C65.7819 355.206 65.1356 350.442 60.9993 351.472C56.8631 352.502 50.4002 351.729 50.4002 351.729L49.3661 361C49.3661 361 48.2028 359.326 46.9102 360.356C45.6176 361.386 43.1617 350.442 47.298 348.382Z" fill="#2F2E41"/>
<path d="M44.5778 378H39.9111C39.9111 378 35.8667 381.38 36.1778 387.831L34 405.958C34 405.958 34 414.867 37.7333 421.319L41.7778 429C41.7778 429 43.3333 424.699 48 425.313L45.5111 418.861V417.325C45.5111 417.325 44.5778 416.096 44.5778 415.789C44.5778 415.482 45.8222 415.482 44.8889 414.867C43.9556 414.253 43.0222 408.108 43.0222 408.108C43.0222 408.108 43.3333 406.88 43.6444 406.572C43.9556 406.265 43.3333 405.343 43.3333 405.343L43.9556 404.422L48 389.367L44.5778 378Z" fill="#D0CDE1"/>
<path d="M74.625 370L79.9375 370.92C79.9375 370.92 83.0625 373.989 84.3125 377.67L86.8125 388.716L90.875 396.693C90.875 396.693 95.5625 401.295 99 411.727L104 420.932L98.6875 424C98.6875 424 84 407.125 82.125 401.295L74 385.955L74.625 370Z" fill="#D0CDE1"/>
<rect x="104" y="416" width="126" height="114" fill="#3F3D56"/>
<rect x="102" y="432" width="3" height="85" fill="#38D39F"/>
<rect x="181" y="433" width="17" height="1" fill="#F2F2F2"/>
<rect x="181" y="429" width="17" height="3" fill="#F2F2F2"/>
<path d="M198 517H187V511H194.951V511.462H187.478V516.538H197.522V513.646H198V517Z" fill="#F2F2F2"/>
<rect x="122" y="442" width="76" height="2" fill="#F2F2F2"/>
<rect x="122" y="451" width="76" height="2" fill="#F2F2F2"/>
<rect x="122" y="459" width="76" height="2" fill="#F2F2F2"/>
<rect x="122" y="468" width="76" height="2" fill="#F2F2F2"/>
<rect x="122" y="476" width="76" height="2" fill="#F2F2F2"/>
<rect x="122" y="485" width="76" height="2" fill="#F2F2F2"/>
<rect x="122" y="493" width="76" height="2" fill="#F2F2F2"/>
<rect x="122" y="502" width="76" height="2" fill="#F2F2F2"/>
<path d="M209 446C210.657 446 212 444.657 212 443C212 441.343 210.657 440 209 440C207.343 440 206 441.343 206 443C206 444.657 207.343 446 209 446Z" fill="#38D39F"/>
<path d="M209 455C210.657 455 212 453.657 212 452C212 450.343 210.657 449 209 449C207.343 449 206 450.343 206 452C206 453.657 207.343 455 209 455Z" fill="#F2F2F2"/>
<path d="M209 463C210.657 463 212 461.657 212 460C212 458.343 210.657 457 209 457C207.343 457 206 458.343 206 460C206 461.657 207.343 463 209 463Z" fill="#38D39F"/>
<path d="M209 472C210.657 472 212 470.657 212 469C212 467.343 210.657 466 209 466C207.343 466 206 467.343 206 469C206 470.657 207.343 472 209 472Z" fill="#F2F2F2"/>
<path d="M209 480C210.657 480 212 478.657 212 477C212 475.343 210.657 474 209 474C207.343 474 206 475.343 206 477C206 478.657 207.343 480 209 480Z" fill="#F2F2F2"/>
<path d="M209 489C210.657 489 212 487.657 212 486C212 484.343 210.657 483 209 483C207.343 483 206 484.343 206 486C206 487.657 207.343 489 209 489Z" fill="#F2F2F2"/>
<path d="M209 498C210.657 498 212 496.657 212 495C212 493.343 210.657 492 209 492C207.343 492 206 493.343 206 495C206 496.657 207.343 498 209 498Z" fill="#38D39F"/>
<path d="M209 506C210.657 506 212 504.657 212 503C212 501.343 210.657 500 209 500C207.343 500 206 501.343 206 503C206 504.657 207.343 506 209 506Z" fill="#38D39F"/>
<path d="M192.674 515L190 512.558L190.337 512.25L192.674 514.384L199.663 508L200 508.308L192.674 515Z" fill="#38D39F"/>
<path opacity="0.1" d="M193 521C201.837 521 209 520.552 209 520C209 519.448 201.837 519 193 519C184.163 519 177 519.448 177 520C177 520.552 184.163 521 193 521Z" fill="black"/>
<path d="M31.7267 526C31.6779 525.913 30.5278 523.823 30.1291 519.482C29.7634 515.5 29.9985 508.788 33.1966 499.425C39.2552 481.687 31.8003 467.375 31.7242 467.232L32.092 467C32.1113 467.036 34.0349 470.685 35.1713 476.496C36.6728 484.199 36.126 492.209 33.5951 499.586C27.5469 517.294 32.0434 525.676 32.0895 525.759L31.7267 526Z" fill="#3F3D56"/>
<path d="M29 467C30.6569 467 32 465.657 32 464C32 462.343 30.6569 461 29 461C27.3431 461 26 462.343 26 464C26 465.657 27.3431 467 29 467Z" fill="#38D39F"/>
<path d="M39 478C40.6569 478 42 476.657 42 475C42 473.343 40.6569 472 39 472C37.3431 472 36 473.343 36 475C36 476.657 37.3431 478 39 478Z" fill="#38D39F"/>
<path d="M32 485C33.6569 485 35 483.657 35 482C35 480.343 33.6569 479 32 479C30.3431 479 29 480.343 29 482C29 483.657 30.3431 485 32 485Z" fill="#38D39F"/>
<path d="M40 491C41.6569 491 43 489.657 43 488C43 486.343 41.6569 485 40 485C38.3431 485 37 486.343 37 488C37 489.657 38.3431 491 40 491Z" fill="#38D39F"/>
<path d="M30 501C31.6569 501 33 499.657 33 498C33 496.343 31.6569 495 30 495C28.3431 495 27 496.343 27 498C27 499.657 28.3431 501 30 501Z" fill="#38D39F"/>
<path d="M33.4444 526C33.4444 526 30.6667 518.571 39 513L33.4444 526Z" fill="#3F3D56"/>
<path d="M30 526C30 526 28.627 517.931 18 518L30 526Z" fill="#3F3D56"/>
<path fill-rule="evenodd" clip-rule="evenodd" d="M4.20001 312H37.8C40.1809 312 42 313.829 42 316.222L41.9974 335.927C41.9974 338.178 40.1783 340.149 37.7974 340.149H36.3983V350L26.5991 340.149H4.20001C1.81911 340.149 0 338.178 0 335.927V316.222C0 313.829 1.81911 312 4.20001 312ZM34.9992 325.369C34.9992 323.4 33.4609 321.851 31.5 321.851C29.5392 321.851 28.0009 323.4 28.0009 325.371C28.0009 327.34 29.5391 328.889 31.5 328.886C33.4583 328.886 34.9992 327.34 34.9992 325.369ZM9.10091 328.889C7.14001 328.889 5.6018 327.34 5.6018 325.371C5.6018 323.4 7.1427 321.854 9.10091 321.854C11.0618 321.854 12.6 323.403 12.6 325.371C12.6 327.34 11.0591 328.889 9.10091 328.889ZM16.8 325.371C16.8 327.34 18.3382 328.889 20.2991 328.889C22.26 328.889 23.8009 327.34 23.7982 325.371C23.7982 323.403 22.26 321.854 20.2991 321.854C18.3409 321.854 16.8 323.4 16.8 325.371Z" fill="#3F3D56"/>
<g opacity="0.0335751">
<path fill-rule="evenodd" clip-rule="evenodd" d="M327.516 121.705C331.222 121.705 334.226 118.696 334.226 114.984V81.377C334.417 66.6043 326.63 52.8795 313.862 45.4852C323.58 34.7351 323.035 18.2014 312.63 8.11706C302.225 -1.96724 285.711 -1.96724 275.306 8.11706C264.901 18.2014 264.356 34.7351 274.074 45.4852C261.305 52.8795 253.518 66.6043 253.71 81.377V114.984C253.71 118.696 256.714 121.705 260.419 121.705H327.516ZM280.548 27.6065C280.548 20.1824 286.556 14.1639 293.968 14.1639C301.379 14.1639 307.387 20.1824 307.387 27.6065C307.387 35.0307 301.379 41.0492 293.968 41.0492C286.556 41.0492 280.548 35.0307 280.548 27.6065ZM293.968 54.4918C267.438 54.4918 267.129 80.2815 267.129 81.377V108.262H320.806V81.377C321.093 74.1625 318.357 67.1561 313.261 62.0506C308.164 56.945 301.17 54.2048 293.968 54.4918Z" fill="black"/>
<rect x="287.258" y="67.9344" width="13.4194" height="26.8852" fill="black"/>
<path fill-rule="evenodd" clip-rule="evenodd" d="M635.926 327.78C645.644 317.03 645.099 300.496 634.694 290.412C624.289 280.328 607.775 280.328 597.37 290.412C586.965 300.496 586.42 317.03 596.138 327.78C583.37 335.175 575.583 348.899 575.774 363.672V397.279C575.774 400.991 578.778 404 582.484 404H649.581C653.286 404 656.29 400.991 656.29 397.279V363.672C656.482 348.899 648.695 335.175 635.926 327.78ZM602.613 309.902C602.613 302.477 608.621 296.459 616.032 296.459C623.444 296.459 629.452 302.477 629.452 309.902C629.452 317.326 623.444 323.344 616.032 323.344C608.621 323.344 602.613 317.326 602.613 309.902ZM589.194 363.672V390.557H642.871V363.672C643.157 356.458 640.422 349.451 635.325 344.346C630.229 339.24 623.234 336.5 616.032 336.787C589.502 336.787 589.194 362.577 589.194 363.672Z" fill="black"/>
<rect x="609.323" y="350.229" width="13.4194" height="26.8852" fill="black"/>
<path fill-rule="evenodd" clip-rule="evenodd" d="M474.894 166.469C484.612 155.719 484.067 139.185 473.662 129.101C463.257 119.016 446.743 119.016 436.338 129.101C425.933 139.185 425.388 155.719 435.106 166.469C422.338 173.863 414.551 187.588 414.742 202.361V235.967C414.742 239.679 417.746 242.689 421.452 242.689H488.548C492.254 242.689 495.258 239.679 495.258 235.967V202.361C495.45 187.588 487.663 173.863 474.894 166.469ZM441.581 148.59C441.581 141.166 447.589 135.148 455 135.148C462.411 135.148 468.419 141.166 468.419 148.59C468.419 156.014 462.411 162.033 455 162.033C447.589 162.033 441.581 156.014 441.581 148.59ZM428.161 202.361V229.246H481.839V202.361C482.125 195.146 479.39 188.14 474.293 183.034C469.196 177.929 462.202 175.188 455 175.475C428.47 175.475 428.161 201.265 428.161 202.361Z" fill="black"/>
<rect x="448.29" y="188.918" width="13.4194" height="26.8852" fill="black"/>
<rect x="522.097" y="54.4918" width="93.9355" height="13.4426" fill="black"/>
<rect x="555.645" y="27.6066" width="73.8064" height="13.4426" fill="black"/>
<path fill-rule="evenodd" clip-rule="evenodd" d="M501.968 0.721313H649.581C653.286 0.721313 656.29 3.73055 656.29 7.44263V88.0984C656.29 91.8104 653.286 94.8197 649.581 94.8197H638.939L620.776 113.014C618.156 115.638 613.909 115.638 611.289 113.014L593.125 94.8197H501.968C498.262 94.8197 495.258 91.8104 495.258 88.0984V7.44263C495.258 3.73055 498.262 0.721313 501.968 0.721313ZM636.161 81.377H642.871V14.1639H508.677V81.377H595.903C597.683 81.3774 599.389 82.0858 600.647 83.3464L616.032 98.7584L631.418 83.3464C632.676 82.0858 634.382 81.3774 636.161 81.377Z" fill="black"/>
<rect x="280.548" y="363.672" width="93.9355" height="13.4426" fill="black"/>
<rect x="314.097" y="336.787" width="73.8064" height="13.4426" fill="black"/>
<path fill-rule="evenodd" clip-rule="evenodd" d="M408.032 404H260.419C256.714 404 253.71 400.991 253.71 397.279V316.623C253.71 312.911 256.714 309.902 260.419 309.902H271.061L289.224 291.707C291.844 289.083 296.091 289.083 298.711 291.707L316.875 309.902H408.032C411.738 309.902 414.742 312.911 414.742 316.623V397.279C414.742 400.991 411.738 404 408.032 404ZM273.839 323.344H267.129V390.557H401.323V323.344H314.097C312.317 323.344 310.611 322.635 309.353 321.375L293.968 305.963L278.582 321.375C277.324 322.635 275.618 323.344 273.839 323.344Z" fill="black"/>
<rect x="528.806" y="27.6066" width="13.4194" height="13.4426" fill="black"/>
<rect x="287.258" y="336.787" width="13.4194" height="13.4426" fill="black"/>
<rect x="434.871" y="356.951" width="13.4194" height="13.4426" fill="black"/>
<rect x="461.71" y="356.951" width="13.4194" height="13.4426" fill="black"/>
<rect x="488.548" y="356.951" width="13.4194" height="13.4426" fill="black"/>
<rect x="515.387" y="356.951" width="13.4194" height="13.4426" fill="black"/>
<rect x="542.226" y="356.951" width="13.4194" height="13.4426" fill="black"/>
<rect x="609.323" y="249.41" width="13.4194" height="13.4426" fill="black"/>
<rect x="609.323" y="222.525" width="13.4194" height="13.4426" fill="black"/>
<rect x="609.323" y="195.639" width="13.4194" height="13.4426" fill="black"/>
<rect x="609.323" y="168.754" width="13.4194" height="13.4426" fill="black"/>
<rect x="609.323" y="141.869" width="13.4194" height="13.4426" fill="black"/>
<rect x="287.258" y="249.41" width="13.4194" height="13.4426" fill="black"/>
<rect x="287.258" y="222.525" width="13.4194" height="13.4426" fill="black"/>
<rect x="287.258" y="195.639" width="13.4194" height="13.4426" fill="black"/>
<rect x="320.806" y="195.639" width="13.4194" height="13.4426" fill="black"/>
<rect x="347.645" y="195.639" width="13.4194" height="13.4426" fill="black"/>
<rect x="374.484" y="195.639" width="13.4194" height="13.4426" fill="black"/>
<rect x="522.097" y="195.639" width="13.4194" height="13.4426" fill="black"/>
<rect x="548.936" y="195.639" width="13.4194" height="13.4426" fill="black"/>
<rect x="575.774" y="195.639" width="13.4194" height="13.4426" fill="black"/>
<rect x="287.258" y="168.754" width="13.4194" height="13.4426" fill="black"/>
<rect x="287.258" y="141.869" width="13.4194" height="13.4426" fill="black"/>
<rect x="347.645" y="34.3279" width="13.4194" height="13.4426" fill="black"/>
<rect x="374.484" y="34.3279" width="13.4194" height="13.4426" fill="black"/>
<rect x="401.323" y="34.3279" width="13.4194" height="13.4426" fill="black"/>
<rect x="428.161" y="34.3279" width="13.4194" height="13.4426" fill="black"/>
<rect x="455" y="34.3279" width="13.4194" height="13.4426" fill="black"/>
</g>
</svg>
