<?xml version="1.0" encoding="UTF-8"?>
<svg width="26px" height="26px" viewBox="0 0 26 26" version="1.1" xmlns="http://www.w3.org/2000/svg" xmlns:xlink="http://www.w3.org/1999/xlink">
    <!-- Generator: Sketch 56.2 (81672) - https://sketch.com -->
    <title>noun_Close_806150</title>
    <desc>Created with Sketch.</desc>
    <g id="Mobile-Design" stroke="none" stroke-width="1" fill="none" fill-rule="evenodd">
        <g id="Infoscreen-for-Token-Frontpage-Mobile" transform="translate(-269.000000, -147.000000)" fill="#000000" fill-rule="nonzero">
            <g id="noun_Close_806150" transform="translate(269.000000, 147.000000)">
                <g id="Group">
                    <path d="M13,26 C20.1861111,26 26,20.1861111 26,13 C26,5.81388889 20.1861111,0 13,0 C5.81388889,0 0,5.81388889 0,13 C0,20.1861111 5.81388889,26 13,26 Z M13,2.16666667 C18.9583333,2.16666667 23.8333333,7.04166667 23.8333333,13 C23.8333333,18.9583333 18.9583333,23.8333333 13,23.8333333 C7.04166667,23.8333333 2.16666667,18.9583333 2.16666667,13 C2.16666667,7.04166667 7.04166667,2.16666667 13,2.16666667 Z" id="Shape"></path>
                    <path d="M8.26944444,17.7305556 C8.48611111,17.9472222 8.775,18.0555556 9.02777778,18.0555556 C9.28055556,18.0555556 9.56944444,17.9472222 9.78611111,17.7305556 L13,14.5166667 L16.2138889,17.7305556 C16.4305556,17.9472222 16.7194444,18.0555556 16.9722222,18.0555556 C17.225,18.0555556 17.5138889,17.9472222 17.7305556,17.7305556 C18.1638889,17.2972222 18.1638889,16.6111111 17.7305556,16.2138889 L14.5166667,13 L17.7305556,9.78611111 C18.1638889,9.35277778 18.1638889,8.66666667 17.7305556,8.26944444 C17.2972222,7.83611111 16.6111111,7.83611111 16.2138889,8.26944444 L13,11.4833333 L9.78611111,8.26944444 C9.35277778,7.83611111 8.66666667,7.83611111 8.26944444,8.26944444 C7.83611111,8.70277778 7.83611111,9.38888889 8.26944444,9.78611111 L11.4833333,13 L8.26944444,16.2138889 C7.83611111,16.6111111 7.83611111,17.2972222 8.26944444,17.7305556 Z" id="Path"></path>
                </g>
            </g>
        </g>
    </g>
</svg>