<?xml version="1.0" encoding="UTF-8"?>
<svg width="26px" height="26px" viewBox="0 0 26 26" version="1.1" xmlns="http://www.w3.org/2000/svg" xmlns:xlink="http://www.w3.org/1999/xlink">
    <!-- Generator: Sketch 56.2 (81672) - https://sketch.com -->
    <title>noun_Info_808461</title>
    <desc>Created with Sketch.</desc>
    <g id="Mobile-Design" stroke="none" stroke-width="1" fill="none" fill-rule="evenodd">
        <g id="Regrouping-price-Copy-5" transform="translate(-268.000000, -149.000000)" fill="#000000" fill-rule="nonzero">
            <g id="noun_Info_808461" transform="translate(268.000000, 149.000000)">
                <g id="Group">
                    <path d="M13,26 C5.82045455,26 0,20.1795455 0,13 C0,5.82045455 5.82045455,0 13,0 C20.1795455,0 26,5.82045455 26,13 C26,20.1795455 20.1795455,26 13,26 Z M13,2.36363636 C7.12045455,2.36363636 2.36363636,7.12045455 2.36363636,13 C2.36363636,18.8795455 7.12045455,23.6363636 13,23.6363636 C18.8795455,23.6363636 23.6363636,18.8795455 23.6363636,13 C23.6363636,7.12045455 18.8795455,2.36363636 13,2.36363636 Z" id="Shape"></path>
                    <g transform="translate(11.522727, 6.500000)">
                        <path d="M1.47727273,13.2954545 C0.827272727,13.2954545 0.295454545,12.7636364 0.295454545,12.1136364 L0.295454545,5.31818182 C0.295454545,4.66818182 0.827272727,4.13636364 1.47727273,4.13636364 C2.12727273,4.13636364 2.65909091,4.66818182 2.65909091,5.31818182 L2.65909091,12.1136364 C2.65909091,12.7636364 2.12727273,13.2954545 1.47727273,13.2954545 Z" id="Path"></path>
                        <g>
                            <circle id="Oval" cx="1.47727273" cy="1.47727273" r="1.18181818"></circle>
                            <path d="M1.47727273,2.95454545 C0.65,2.95454545 0,2.30454545 0,1.47727273 C0,0.65 0.65,0 1.47727273,0 C2.30454545,0 2.95454545,0.65 2.95454545,1.47727273 C2.95454545,2.30454545 2.30454545,2.95454545 1.47727273,2.95454545 Z M1.47727273,0.590909091 C0.975,0.590909091 0.590909091,0.975 0.590909091,1.47727273 C0.590909091,1.97954545 0.975,2.36363636 1.47727273,2.36363636 C1.97954545,2.36363636 2.36363636,1.97954545 2.36363636,1.47727273 C2.36363636,0.975 1.97954545,0.590909091 1.47727273,0.590909091 Z" id="Shape"></path>
                        </g>
                    </g>
                </g>
            </g>
        </g>
    </g>
</svg>