<svg width="693" height="653" viewBox="0 0 693 653" fill="none" xmlns="http://www.w3.org/2000/svg">
<path d="M371.739 543.088C197.546 529.835 -10.1881 394.9 0.387924 255.962C10.964 117.024 212.156 -12.315 386.35 0.937572C560.543 14.1901 660.815 273.841 650.239 412.779C639.663 551.717 545.933 556.34 371.739 543.088Z" fill="#F2F2F2"/>
<rect x="1" y="51" width="330" height="343" fill="#3F3D56"/>
<path d="M226.394 189.325C241.115 216.514 235.86 250.187 213.556 271.598C191.251 293.008 157.392 296.881 130.83 281.059C104.268 265.236 91.5469 233.619 99.7498 203.809C107.953 173.998 135.058 153.341 165.975 153.337C166.52 153.337 167.063 153.345 167.605 153.357L166.879 124.011C166.577 124.009 166.277 124 165.975 124C121.47 124.013 82.5627 154.016 71.2359 197.057C59.909 240.099 79.0077 285.368 117.741 307.288C156.474 329.208 205.114 322.273 236.178 290.401C267.242 258.53 272.929 209.726 250.025 171.565L226.394 189.325Z" fill="#38D39F"/>
<path opacity="0.3" d="M227.126 190L251 172.053C233.271 142.502 201.453 124.3 167 124L167.734 153.654C192.615 154.237 215.279 168.106 227.126 190Z" fill="#38D39F"/>
<path d="M215 308L250 343" stroke="#2F2E41" stroke-width="2"/>
<path d="M240 94L215 136" stroke="#2F2E41" stroke-width="2"/>
<rect x="222" y="342" width="57" height="13" fill="#F2F2F2"/>
<rect x="209" y="81" width="57" height="13" fill="#F2F2F2"/>
<rect x="363" y="48" width="330" height="138" fill="#3F3D56"/>
<path d="M497 155H459.899C457.367 140.111 457.367 124.889 459.899 110H497C492.82 124.699 492.82 140.301 497 155Z" fill="#FF6584"/>
<path d="M600 155H562.899C560.367 140.111 560.367 124.889 562.899 110H600C595.82 124.699 595.82 140.301 600 155Z" fill="#FF6584"/>
<path d="M443 124H405.899C403.367 109.111 403.367 93.8894 405.899 79H443C438.82 93.6987 438.82 109.301 443 124Z" fill="#38D39F"/>
<path d="M510 124H547.101C549.633 109.111 549.633 93.8894 547.101 79H510C514.18 93.6987 514.18 109.301 510 124Z" fill="#38D39F"/>
<path d="M613 124H650.101C652.633 109.111 652.633 93.8894 650.101 79H613C617.18 93.6987 617.18 109.301 613 124H613Z" fill="#38D39F"/>
<path d="M631 545.04C631 559.171 563.931 587 481.64 587C399.35 587 333 559.171 333 545.04C333 530.91 399.35 535.829 481.64 535.829C563.931 535.829 631 530.91 631 545.04Z" fill="#3F3D56"/>
<path opacity="0.1" d="M631 545.04C631 559.171 563.931 587 481.64 587C399.35 587 333 559.171 333 545.04C333 530.91 399.35 535.829 481.64 535.829C563.931 535.829 631 530.91 631 545.04Z" fill="black"/>
<path d="M482 571C564.29 571 631 559.359 631 545C631 530.641 564.29 519 482 519C399.71 519 333 530.641 333 545C333 559.359 399.71 571 482 571Z" fill="#3F3D56"/>
<path opacity="0.1" d="M481.5 565C545.841 565 598 556.046 598 545C598 533.954 545.841 525 481.5 525C417.159 525 365 533.954 365 545C365 556.046 417.159 565 481.5 565Z" fill="black"/>
<path d="M430 392H392.899C390.367 377.111 390.367 361.889 392.899 347H430C425.82 361.699 425.82 377.301 430 392Z" fill="#38D39F"/>
<path d="M548.217 165L553.413 167.569C553.413 167.569 581.558 237.353 572.032 254.05C562.506 270.747 532.629 302 532.629 302L527 286.159L550.021 236.811L548.217 165Z" fill="#575A89"/>
<path opacity="0.1" d="M548.217 165L553.413 167.569C553.413 167.569 581.558 237.353 572.032 254.05C562.506 270.747 532.629 302 532.629 302L527 286.159L550.021 236.811L548.217 165Z" fill="black"/>
<path d="M542.386 514C542.386 514 549.766 530.467 545.859 531.733C541.952 533 537.177 533 532.402 533C527.626 533 521.983 531.311 521.115 529.622C520.247 527.933 524.588 516.956 524.588 516.956L542.386 514Z" fill="#F2F2F2"/>
<path d="M444.886 522.927C444.886 522.927 449.576 537.564 447.444 538.401C445.313 539.237 438.491 543.001 434.654 541.746C430.817 540.492 424.848 537.564 423.568 536.31C422.289 535.055 423.568 528.364 423.568 528.364L429.537 520L444.886 522.927Z" fill="#F2F2F2"/>
<path d="M528.052 300.795L534.145 302.934C534.145 302.934 535.703 317.477 534.003 322.61C532.303 327.742 528.477 364.955 530.602 372.654C532.728 380.354 531.453 392.758 531.453 392.758C531.453 392.758 544.204 434.676 541.654 443.658C539.104 452.641 539.529 465.473 542.079 471.889C544.629 478.305 546.755 480.871 545.479 486.004C544.204 491.137 541.654 493.703 544.204 497.98C546.755 502.258 551.855 503.541 549.305 507.391C546.755 511.24 544.204 514.234 545.054 516.801C545.904 519.367 522.526 524.072 520.401 520.223C520.401 520.223 527.202 514.234 520.401 510.812C513.6 507.39 515.725 494.559 515.725 494.559C515.725 494.559 503.824 445.369 504.249 441.52C504.674 437.67 485.546 377.787 485.546 377.787C485.546 377.787 457.493 463.334 455.792 467.184C454.092 471.033 457.918 480.443 455.792 483.01C453.667 485.576 456.643 491.992 453.667 494.559C450.692 497.125 458.768 506.535 453.667 509.957C448.566 513.379 446.016 524.072 446.441 526.211C446.866 528.349 425.188 525.783 425.188 522.789C425.188 519.795 425.613 517.228 423.488 512.096C421.363 506.963 420.088 503.541 421.788 501.83C423.488 500.119 424.763 497.98 423.063 491.992C421.363 486.004 425.613 467.611 424.338 464.189C423.063 460.768 423.488 437.67 423.488 437.67C423.488 437.67 427.739 403.879 426.464 398.318C425.188 392.758 426.464 391.475 426.889 389.336C427.314 387.197 429.864 364.1 431.564 360.678C433.264 357.256 435.39 298.657 445.166 295.662C454.942 292.668 528.052 300.795 528.052 300.795Z" fill="#2F2E41"/>
<path d="M532.314 529.815C532.314 529.815 547.843 527.298 548.706 529.815C549.569 532.331 552.157 552.04 546.118 552.459C540.078 552.879 529.725 554.137 528 550.363C526.275 546.588 518.078 544.072 518.078 544.072C518.078 544.072 506 540.718 506 536.943C506 533.169 506.431 527.298 508.588 526.879C510.745 526.46 519.373 521.847 519.373 520.17C519.373 518.492 532.314 529.815 532.314 529.815Z" fill="#2F2E41"/>
<path d="M435.983 536.531C435.983 536.531 447.105 533.11 449.672 535.248C452.239 537.386 455.661 560.903 449.672 560.475C443.683 560.048 427.854 562.613 426.999 559.192C426.143 555.772 414.593 554.917 414.593 554.917C414.593 554.917 402.187 548.931 403.042 542.517C403.898 536.103 405.181 533.965 410.315 533.538C415.448 533.11 419.299 527.124 419.726 526.697C420.154 526.269 423.926 523.143 424.393 526.63C424.86 530.117 430.421 537.814 435.983 536.531Z" fill="#2F2E41"/>
<path d="M471 121C485.359 121 497 109.359 497 95C497 80.6406 485.359 69 471 69C456.641 69 445 80.6406 445 95C445 109.359 456.641 121 471 121Z" fill="#FFB9B9"/>
<path d="M493.113 102C493.113 102 494.833 129.987 501.282 132.494C507.731 135 468.607 135 468.607 135C468.607 135 468.177 117.456 462.588 113.278C456.999 109.101 493.113 102 493.113 102Z" fill="#FFB9B9"/>
<path d="M503.961 126.107C503.961 126.107 477.522 116.234 468.141 131.687C468.141 131.687 438.291 145.853 436.159 154.438C434.027 163.024 454.069 227.413 454.069 227.413C454.069 227.413 454.069 280.642 449.805 286.222C445.54 291.802 437.438 297.812 442.982 299.1C448.525 300.388 535.516 309.831 535.09 304.251C534.664 298.671 529.12 293.949 535.09 290.515C541.06 287.08 535.943 283.217 539.781 272.056C543.619 260.895 553 168.604 553 168.604C553 168.604 546.604 157.014 545.324 155.726C544.045 154.438 503.961 126.107 503.961 126.107Z" fill="#575A89"/>
<path d="M427.235 313C427.235 313 410.256 351.354 425.058 356.584C439.861 361.814 438.99 316.051 438.99 316.051L427.235 313Z" fill="#FFB9B9"/>
<path d="M484.379 100.606C482.867 97.5441 480.604 94.012 477.223 94.1984C475.514 94.2927 474.04 95.3677 472.516 96.1569C470.992 96.946 469.04 97.4352 467.647 96.4295C465.609 94.9584 466.241 91.4693 464.418 89.7338C462.429 87.8392 458.427 88.897 457.143 86.4578C456.457 85.1553 457.011 83.5394 456.712 82.0954C454.629 82.1349 452.48 82.1626 450.549 81.3718C448.619 80.581 446.947 78.7486 447.001 76.6441C447.118 75.1957 447.807 73.8557 448.912 72.9263C451.54 70.5107 455.343 70.0475 458.586 68.5825C461.168 67.4167 463.412 65.5997 465.949 64.3386C470.315 62.1682 475.353 61.7473 480.205 62.122C487.561 62.6901 495.001 65.1575 500.336 70.3086C505.67 75.4596 508.493 83.5861 506.193 90.6709C504.889 94.6855 502.126 98.0599 500.584 101.987C499.639 104.675 498.984 107.458 498.63 110.288L497.548 117C497.716 115.955 495.447 113.335 494.703 112.712C493.079 111.352 490.718 111.813 489.21 110.554C486.981 108.691 485.691 103.262 484.379 100.606Z" fill="#2F2E41"/>
<path opacity="0.1" d="M445.11 152.245L438.268 156.529C438.268 156.529 427.151 223.791 428.433 233.216C429.716 242.642 423.302 295.765 425.44 300.05C427.578 304.334 428.433 305.191 428.433 307.761C428.433 310.332 422.447 319.757 426.295 321.471C430.144 323.184 444.255 326.183 444.255 321.471C444.255 316.758 441.689 310.332 446.393 307.333C451.096 304.334 454.517 285.055 454.517 285.055C454.517 285.055 456.655 265.348 458.793 261.492C460.931 257.636 463.924 243.498 463.924 237.501C463.924 231.503 469.056 207.083 466.062 194.659C463.069 182.235 462.214 148.818 445.11 152.245Z" fill="black"/>
<path d="M443.11 151.245L436.268 155.529C436.268 155.529 425.151 222.791 426.433 232.216C427.716 241.642 421.302 294.765 423.44 299.05C425.578 303.334 426.433 304.191 426.433 306.761C426.433 309.332 420.447 318.757 424.295 320.471C428.144 322.184 442.255 325.183 442.255 320.471C442.255 315.758 439.689 309.332 444.393 306.333C449.096 303.334 452.517 284.055 452.517 284.055C452.517 284.055 454.655 264.348 456.793 260.492C458.931 256.636 461.924 242.498 461.924 236.501C461.924 230.503 467.056 206.083 464.062 193.659C461.069 181.235 460.214 147.818 443.11 151.245Z" fill="#575A89"/>
<g clip-path="url(#clip0)">
<path d="M511 541V643" stroke="#35CAAB" stroke-width="3" stroke-linecap="square"/>
<path fill-rule="evenodd" clip-rule="evenodd" d="M503 540C503 544.971 507.029 549 512 549C516.971 549 521 544.971 521 540C521 535.029 516.971 531 512 531C507.029 531 503 535.029 503 540Z" fill="#35CAAB"/>
<path fill-rule="evenodd" clip-rule="evenodd" d="M512 652L500 632H524L512 652Z" fill="#35CAAB"/>
</g>
<path opacity="0.103981" fill-rule="evenodd" clip-rule="evenodd" d="M313.5 511C345.809 511 372 503.613 372 494.5C372 485.387 345.809 478 313.5 478C281.191 478 255 485.387 255 494.5C255 503.613 281.191 511 313.5 511Z" fill="#38364D"/>
<path d="M268.01 440.306L271.028 489L337 482.104L334.375 434.504C334.304 433.216 333.753 432.013 332.846 431.169C331.939 430.324 330.754 429.909 329.559 430.017L272.078 435.217C269.658 435.436 267.849 437.701 268.01 440.306Z" fill="#7A799C"/>
<path d="M359 495.839L292.844 503.703L290.347 504L271 490.399V487.451L336.74 481L359 495.839Z" fill="#7A799C"/>
<path d="M273 441.278L275.23 481L332 475.704L329.972 437L273 441.278Z" fill="#9493B6"/>
<path opacity="0.1" d="M304 493.687L311.445 498L334 496.125L326.336 492L304 493.687Z" fill="black"/>
<path d="M277 486.828L285.654 494L341 488.173L331.138 481L277 486.828Z" fill="#9493B6"/>
<g clip-path="url(#clip1)">
<path d="M258 473H135C101.863 473 75 499.863 75 533L75 643" stroke="#38D39F" stroke-width="3"/>
<path fill-rule="evenodd" clip-rule="evenodd" d="M260.5 472.5C260.5 477.471 256.471 481.5 251.5 481.5C246.529 481.5 242.5 477.471 242.5 472.5C242.5 467.529 246.529 463.5 251.5 463.5C256.471 463.5 260.5 467.529 260.5 472.5Z" fill="#35CAAB"/>
<path fill-rule="evenodd" clip-rule="evenodd" d="M74.5 652.5L86.5 632.5H62.5L74.5 652.5Z" fill="#35CAAB"/>
</g>
<defs>
<clipPath id="clip0">
<rect width="122" height="25" fill="white" transform="translate(524.5 530.5) rotate(90)"/>
</clipPath>
<clipPath id="clip1">
<rect width="189" height="198" fill="white" transform="matrix(0 1 1 0 62.5 463.5)"/>
</clipPath>
</defs>
</svg>
