<svg width="735" height="595" viewBox="0 0 735 595" fill="none" xmlns="http://www.w3.org/2000/svg">
<path d="M116.801 0L68.166 94.6533H77.9838V171.84H28.505L0 227.314L353.198 408L470 180.686L116.801 0Z" fill="#F2F2F2"/>
<rect x="107" y="61" width="540" height="271" fill="#3F3D56"/>
<rect opacity="0.3" x="182" y="159" width="399" height="1" fill="#38D39F"/>
<rect opacity="0.3" x="183" y="182" width="399" height="1" fill="#38D39F"/>
<rect opacity="0.3" x="183" y="228" width="399" height="1" fill="#38D39F"/>
<rect opacity="0.3" x="183" y="248" width="399" height="1" fill="#38D39F"/>
<rect opacity="0.3" x="183" y="205" width="399" height="1" fill="#38D39F"/>
<path d="M521 595C615.441 595 692 588.06 692 579.5C692 570.94 615.441 564 521 564C426.559 564 350 570.94 350 579.5C350 588.06 426.559 595 521 595Z" fill="#3F3D56"/>
<path d="M194.268 249L193 247.67L252.361 191.131L304.688 228.744L347.004 181.862L365.559 197.623L416.033 167.36L472.098 205.016L560.092 155L561 156.596L472.017 207.175L415.978 169.535L365.374 199.876L347.173 184.416L304.951 231.195L252.525 193.512L194.268 249Z" fill="#38D39F"/>
<path d="M364.294 547.512C368.58 563.252 383.26 573 383.26 573C383.26 573 390.992 557.228 386.706 541.488C382.42 525.748 367.74 516 367.74 516C367.74 516 360.008 531.772 364.294 547.512Z" fill="#3F3D56"/>
<path d="M371.676 544.573C383.55 556.171 385 574 385 574C385 574 367.199 573.025 355.324 561.427C343.45 549.829 342 532 342 532C342 532 359.801 532.975 371.676 544.573Z" fill="#38D39F"/>
<path opacity="0.4" d="M704.5 80C721.345 80 735 66.3447 735 49.5C735 32.6553 721.345 19 704.5 19C687.655 19 674 32.6553 674 49.5C674 66.3447 687.655 80 704.5 80Z" fill="#38D39F"/>
<path opacity="0.4" d="M647.5 85C659.374 85 669 75.3741 669 63.5C669 51.6259 659.374 42 647.5 42C635.626 42 626 51.6259 626 63.5C626 75.3741 635.626 85 647.5 85Z" fill="#38D39F"/>
<path opacity="0.4" d="M620.5 471C626.851 471 632 465.851 632 459.5C632 453.149 626.851 448 620.5 448C614.149 448 609 453.149 609 459.5C609 465.851 614.149 471 620.5 471Z" fill="#38D39F"/>
<path opacity="0.4" d="M424 529C428.971 529 433 524.971 433 520C433 515.029 428.971 511 424 511C419.029 511 415 515.029 415 520C415 524.971 419.029 529 424 529Z" fill="#38D39F"/>
<path opacity="0.4" d="M394.5 416C400.851 416 406 410.851 406 404.5C406 398.149 400.851 393 394.5 393C388.149 393 383 398.149 383 404.5C383 410.851 388.149 416 394.5 416Z" fill="#38D39F"/>
<path d="M559 172C565.627 172 571 166.627 571 160C571 153.373 565.627 148 559 148C552.373 148 547 153.373 547 160C547 166.627 552.373 172 559 172Z" fill="#38D39F"/>
<path d="M482.176 376.999L472.008 378.124C472.008 378.124 467.489 398.361 472.008 425.344C476.527 452.327 482.176 479.31 482.176 479.31C482.176 479.31 486.695 567.006 488.955 568.13C491.214 569.254 511.55 576 512.68 569.254C513.81 562.508 513.81 408.48 513.81 408.48L529.626 482.683C529.626 482.683 531.886 576 536.405 576C540.924 576 555.611 574.876 555.611 567.006C555.611 559.136 559 455.7 559 455.7C559 455.7 557.87 379.248 553.351 376.999C548.832 374.751 482.176 376.999 482.176 376.999Z" fill="#2F2E41"/>
<path d="M491.106 563.495C491.106 563.495 481.208 562.381 479.009 563.495C476.81 564.609 473.511 572.406 479.009 576.861C484.508 581.317 498.804 588 503.202 588C506.253 587.863 509.245 587.105 512 585.772L509.801 566.837L491.106 563.495Z" fill="#2F2E41"/>
<path d="M536 569.152L537.117 584.994C537.117 584.994 551.636 587.257 552.753 584.994C553.87 582.731 565.039 577.073 566.156 575.942C567.273 574.81 568.389 562.363 561.688 561.231C554.987 560.099 552.753 563.494 552.753 563.494L536 569.152Z" fill="#2F2E41"/>
<path d="M441.807 283C441.807 283 414.931 308.809 418.291 322.275C421.65 335.74 448.525 375.015 448.525 375.015C448.525 375.015 474.281 388.481 477.64 375.015C481 361.55 459.723 364.916 459.723 364.916L442.926 324.519L461.963 297.588L441.807 283Z" fill="#FFB8B8"/>
<path d="M561.213 242C561.213 242 585.554 226.083 584.99 215.148C584.427 204.212 569.754 169.733 569.754 169.733C569.754 169.733 558.275 145.463 553.711 155.382C549.148 165.3 559.709 175.858 559.709 175.858L566.526 209.681L548 227.653L561.213 242Z" fill="#FFB8B8"/>
<path d="M501 219C512.046 219 521 210.046 521 199C521 187.954 512.046 179 501 179C489.954 179 481 187.954 481 199C481 210.046 489.954 219 501 219Z" fill="#FFB8B8"/>
<path d="M491 212.239L494.36 234L519 229.419C519 229.419 517.88 207.658 517.88 205.368C517.88 203.077 491 212.239 491 212.239Z" fill="#FFB8B8"/>
<path d="M490.472 232.976C490.472 232.976 518.686 226.203 522.072 228.461C525.458 230.719 542.387 232.976 542.387 232.976L561.573 262.329L555.93 299.583C555.93 299.583 554.801 359.417 557.058 369.577C559.315 379.737 571.73 380.866 545.772 383.124C519.815 385.382 515.301 381.995 497.243 386.511C479.186 391.027 464.514 384.253 469.029 379.737C473.543 375.222 481.443 302.97 472.414 296.196C463.386 289.423 460 254.426 460 254.426C460 254.426 490.472 238.621 490.472 232.976Z" fill="#D0CDE1"/>
<path d="M537 236.029L540.377 232.686L547.132 226C547.132 226 569.084 235.471 567.958 238.814C566.832 242.157 559.515 261.657 559.515 261.657L549.383 265L537 236.029Z" fill="#D0CDE1"/>
<path d="M472.459 256.279L458.838 254C458.838 254 448.622 265.395 445.216 269.953C441.811 274.512 435 285.907 435 285.907L458.838 303L477 283.628L472.459 256.279Z" fill="#D0CDE1"/>
<path d="M508.187 173.349L507.979 171.69C506.605 171.682 505.238 171.902 503.933 172.342C503.799 171.341 503.884 170.323 504.182 169.36C502.856 169.709 501.591 170.272 500.437 171.028L499.62 168L488.39 173.669C484.359 175.704 480.109 177.94 477.805 181.892C475.236 186.299 475.683 191.961 477.439 196.768C479.195 201.574 482.113 205.828 484.453 210.366C485.341 212.318 486.408 214.178 487.64 215.923C491.879 221.335 500.13 222.429 506.106 219.162C508.38 218.04 510.193 216.129 511.223 213.768C511.658 212.304 512 210.812 512.245 209.302C512.984 206.209 513.842 199.824 516.295 197.867C517.374 197.006 519.514 199.86 520.408 198.8C522.707 196.075 522.224 191.873 520.797 188.582C519.427 185.277 517.826 182.077 516.005 179.009C515.234 177.775 508.162 173.15 508.187 173.349Z" fill="#2F2E41"/>
<rect x="13" y="106" width="58" height="58" fill="#3F3D56"/>
</svg>
