<svg width="691" height="689" viewBox="0 0 691 689" fill="none" xmlns="http://www.w3.org/2000/svg">
<path fill-rule="evenodd" clip-rule="evenodd" d="M690.459 163.34C690.769 164.1 690.927 164.913 690.923 165.733C690.923 165.81 691 166.119 691 166.119V281.903C690.972 285.038 689.047 287.845 686.129 289.005L594.362 325.67V363.492L686.361 401.006C686.79 401.208 687.203 401.44 687.598 401.701C687.9 401.909 688.185 402.141 688.449 402.396C689.03 403.034 689.501 403.764 689.84 404.557V405.02C690.151 405.78 690.308 406.593 690.304 407.413V523.197C690.276 526.332 688.351 529.139 685.434 530.299L588.796 568.893C587.977 569.19 587.115 569.347 586.244 569.356C585.343 569.331 584.454 569.148 583.616 568.816L496.487 534.081L449.251 573.37V642.764C449.254 645.927 447.323 648.772 444.38 649.942L347.742 688.537C346.891 688.809 346.007 688.965 345.113 689C344.246 688.958 343.389 688.802 342.562 688.537L245.924 649.942C242.981 648.772 241.051 645.927 241.054 642.764V572.367L193.817 533.155L106.688 567.89C105.85 568.222 104.961 568.404 104.06 568.43C103.189 568.42 102.327 568.264 101.509 567.967L4.87063 529.372C1.95332 528.212 0.0284895 525.406 7.76744e-05 522.271V406.487C-0.00401419 405.667 0.153601 404.853 0.46394 404.094V403.631C0.803609 402.838 1.27399 402.107 1.85553 401.47C2.11955 401.215 2.40397 400.983 2.70594 400.775C3.07586 400.493 3.49547 400.284 3.94291 400.157L96.638 363.029V325.206L4.87063 288.541C1.95332 287.382 0.0284895 284.575 7.76744e-05 281.44V165.656C-0.00401419 164.836 0.153601 164.023 0.46394 163.263V162.8C0.803609 162.007 1.27399 161.276 1.85553 160.639C2.11955 160.384 2.40397 160.152 2.70594 159.944C3.07586 159.662 3.49547 159.453 3.94291 159.326L103.364 120.963C105.201 120.233 107.248 120.233 109.085 120.963L205.723 159.558C206.151 159.76 206.565 159.992 206.96 160.253C207.262 160.461 207.546 160.693 207.81 160.947C208.392 161.585 208.862 162.316 209.202 163.109V163.572C209.512 164.331 209.67 165.144 209.666 165.965V186.651L242.523 159.326V45.472C242.527 44.6775 242.684 43.8913 242.987 43.1563V42.616C243.334 41.8503 243.804 41.1463 244.378 40.5319L245.229 39.76C245.616 39.5086 246.031 39.3015 246.465 39.1425L343.103 0.5478C344.94 -0.1826 346.988 -0.1826 348.824 0.5478L445.462 39.1425L446.699 39.76L447.55 40.5319C448.124 41.1463 448.594 41.8503 448.941 42.616V43.1563C449.244 43.8913 449.401 44.6775 449.405 45.472V159.326L484.04 186.265V165.656C484.036 164.836 484.194 164.023 484.504 163.263V162.8C484.844 162.007 485.314 161.276 485.896 160.639C486.16 160.384 486.444 160.152 486.746 159.944C487.116 159.662 487.536 159.453 487.983 159.326L584.621 120.732C586.458 120.001 588.505 120.001 590.342 120.732L686.98 159.326C687.408 159.528 687.822 159.76 688.217 160.021C688.519 160.229 688.803 160.461 689.067 160.716C689.649 161.354 690.119 162.084 690.459 162.877V163.34ZM578.823 209.885L497.647 177.466V276.654L578.823 309.074V209.885ZM388.407 128.451L425.439 159.326L352.767 188.427V89.3156L433.943 56.8961V146.359L398.303 116.718C395.029 114.545 390.643 115.172 388.111 118.175C385.578 121.177 385.706 125.599 388.407 128.451ZM420.878 45.472L345.036 15.2138L269.195 45.472L345.036 75.7303L420.878 45.472ZM256.129 56.8961L337.305 89.3156V188.427L264.633 159.326L301.665 128.451C304.953 125.722 305.403 120.849 302.67 117.567C299.937 114.284 295.057 113.835 291.769 116.563L256.129 146.359V56.8961ZM179.283 166.505L103.441 136.17L27.5999 166.119L103.441 196.377L179.283 166.505ZM192.348 177.852V276.654L111.172 309.074V209.885L192.348 177.852ZM14.5344 177.466V276.654L95.7103 309.074V209.885L14.5344 177.466ZM95.7103 550.291L14.5344 517.871V418.683L95.7103 451.102V550.291ZM27.5999 407.336L103.441 437.594L179.283 407.336L111.172 380.088V407.336C111.172 411.599 107.711 415.055 103.441 415.055C99.1716 415.055 95.7103 411.599 95.7103 407.336V380.088L27.5999 407.336ZM192.348 513.008L156.708 483.522C153.42 480.793 148.54 481.243 145.807 484.525C143.075 487.808 143.525 492.681 146.812 495.409L179.979 522.966L111.172 550.445V451.102L192.348 418.683V513.008ZM256.129 638.441L337.305 670.86V571.749L256.129 539.33V638.441ZM345.036 558.164L269.195 527.906L345.036 497.647L420.878 527.906L345.036 558.164ZM352.767 670.86L433.943 638.441V539.33L352.767 571.749V670.86ZM487.133 400.157C486.685 400.284 486.266 400.493 485.896 400.775C485.594 400.983 485.309 401.215 485.045 401.469C484.464 402.107 483.993 402.838 483.654 403.631V404.094C483.343 404.853 483.186 405.667 483.19 406.487V522.271C483.186 523.091 483.343 523.904 483.654 524.664L449.405 552.992V527.906C449.401 527.111 449.244 526.325 448.941 525.59V525.05C448.594 524.284 448.124 523.58 447.55 522.966L446.699 522.194L445.462 521.576L348.824 482.982C346.988 482.251 344.94 482.251 343.103 482.982L246.465 521.576C246.031 521.735 245.616 521.942 245.229 522.194L244.378 522.966C243.804 523.58 243.334 524.284 242.987 525.05V525.59C242.684 526.325 242.527 527.111 242.523 527.906V552.992L209.202 525.281C209.512 524.522 209.67 523.709 209.666 522.888V407.104C209.67 406.284 209.512 405.471 209.202 404.711V404.248C208.862 403.455 208.392 402.725 207.81 402.087C207.546 401.833 207.262 401.6 206.96 401.392C206.565 401.132 206.151 400.9 205.723 400.698L111.172 363.492V325.67L202.94 289.005C205.857 287.845 207.782 285.038 207.81 281.903V206.643L251.104 170.673L342.176 207.029C343.002 207.295 343.86 207.451 344.727 207.493C345.62 207.457 346.504 207.302 347.355 207.029L438.427 170.673L481.721 206.721V281.903C481.749 285.038 483.674 287.845 486.591 289.005L578.359 325.67V363.492L487.133 400.157ZM510.094 522.811L578.9 550.291V451.102L497.724 418.683V513.163L533.364 483.522C535.406 481.366 538.505 480.57 541.336 481.474C544.167 482.377 546.228 484.821 546.638 487.76C547.048 490.699 545.735 493.612 543.26 495.255L510.094 522.811ZM675.538 517.871L594.362 550.291V451.102L675.538 418.683V517.871ZM586.631 437.594L662.472 407.336L594.362 380.088V407.336C594.362 411.599 590.901 415.055 586.631 415.055C582.361 415.055 578.9 411.599 578.9 407.336V380.088L510.79 407.336L586.631 437.594ZM586.631 196.377L510.79 166.119L586.631 136.17L662.472 166.505L586.631 196.377ZM594.362 309.074L675.538 276.654V177.466L594.362 209.885V309.074Z" fill="#F3F3F3"/>
</svg>
